  0
SECTION
  2
HEADER
  9
$ACADVER
  1
AC1027
  9
$ACADMAINTVER
 70
   105
  9
$DWGCODEPAGE
  3
ANSI_1252
  9
$REQUIREDVERSIONS
160
                 0
  9
$INSBASE
 10
0.0
 20
0.0
 30
0.0
  9
$EXTMIN
 10
-13.66972337145522
 20
-63.66972337145522
 30
0.0
  9
$EXTMAX
 10
101.5
 20
53.66972337145522
 30
0.0
  9
$LIMMIN
 10
0.0
 20
0.0
  9
$LIMMAX
 10
12.0
 20
9.0
  9
$ORTHOMODE
 70
     0
  9
$REGENMODE
 70
     1
  9
$FILLMODE
 70
     1
  9
$QTEXTMODE
 70
     0
  9
$MIRRTEXT
 70
     0
  9
$LTSCALE
 40
1.0
  9
$ATTMODE
 70
     1
  9
$TEXTSIZE
 40
0.2
  9
$TRACEWID
 40
0.05
  9
$TEXTSTYLE
  7
Standard
  9
$CLAYER
  8
body
  9
$CELTYPE
  6
ByLayer
  9
$CECOLOR
 62
   256
  9
$CELTSCALE
 40
1.0
  9
$DISPSILH
 70
     0
  9
$DIMSCALE
 40
1.0
  9
$DIMASZ
 40
1.0
  9
$DIMEXO
 40
0.25
  9
$DIMDLI
 40
2.0
  9
$DIMRND
 40
0.0
  9
$DIMDLE
 40
0.0
  9
$DIMEXE
 40
0.5
  9
$DIMTP
 40
0.0
  9
$DIMTM
 40
0.0
  9
$DIMTXT
 40
1.0
  9
$DIMCEN
 40
0.09
  9
$DIMTSZ
 40
0.0
  9
$DIMTOL
 70
     0
  9
$DIMLIM
 70
     0
  9
$DIMTIH
 70
     1
  9
$DIMTOH
 70
     1
  9
$DIMSE1
 70
     0
  9
$DIMSE2
 70
     0
  9
$DIMTAD
 70
     0
  9
$DIMZIN
 70
     8
  9
$DIMBLK
  1

  9
$DIMASO
 70
     1
  9
$DIMSHO
 70
     1
  9
$DIMPOST
  1

  9
$DIMAPOST
  1

  9
$DIMALT
 70
     0
  9
$DIMALTD
 70
     2
  9
$DIMALTF
 40
25.4
  9
$DIMLFAC
 40
1.0
  9
$DIMTOFL
 70
     0
  9
$DIMTVP
 40
0.0
  9
$DIMTIX
 70
     0
  9
$DIMSOXD
 70
     0
  9
$DIMSAH
 70
     0
  9
$DIMBLK1
  1

  9
$DIMBLK2
  1

  9
$DIMSTYLE
  2
Standard
  9
$DIMCLRD
 70
    18
  9
$DIMCLRE
 70
    18
  9
$DIMCLRT
 70
    18
  9
$DIMTFAC
 40
1.0
  9
$DIMGAP
 40
0.25
  9
$DIMJUST
 70
     0
  9
$DIMSD1
 70
     0
  9
$DIMSD2
 70
     0
  9
$DIMTOLJ
 70
     1
  9
$DIMTZIN
 70
     0
  9
$DIMALTZ
 70
     0
  9
$DIMALTTZ
 70
     0
  9
$DIMUPT
 70
     0
  9
$DIMDEC
 70
     4
  9
$DIMTDEC
 70
     4
  9
$DIMALTU
 70
     2
  9
$DIMALTTD
 70
     2
  9
$DIMTXSTY
  7
Standard
  9
$DIMAUNIT
 70
     0
  9
$DIMADEC
 70
     0
  9
$DIMALTRND
 40
0.0
  9
$DIMAZIN
 70
     2
  9
$DIMDSEP
 70
    46
  9
$DIMATFIT
 70
     3
  9
$DIMFRAC
 70
     0
  9
$DIMLDRBLK
  1

  9
$DIMLUNIT
 70
     2
  9
$DIMLWD
 70
    -2
  9
$DIMLWE
 70
    -2
  9
$DIMTMOVE
 70
     0
  9
$DIMFXL
 40
1.0
  9
$DIMFXLON
 70
     0
  9
$DIMJOGANG
 40
0.7853981633974483
  9
$DIMTFILL
 70
     0
  9
$DIMTFILLCLR
 70
     0
  9
$DIMARCSYM
 70
     0
  9
$DIMLTYPE
  6

  9
$DIMLTEX1
  6

  9
$DIMLTEX2
  6

  9
$DIMTXTDIRECTION
 70
     0
  9
$LUNITS
 70
     2
  9
$LUPREC
 70
     4
  9
$SKETCHINC
 40
0.1
  9
$FILLETRAD
 40
0.5
  9
$AUNITS
 70
     0
  9
$AUPREC
 70
     0
  9
$MENU
  1
.
  9
$ELEVATION
 40
0.0
  9
$PELEVATION
 40
0.0
  9
$THICKNESS
 40
0.0
  9
$LIMCHECK
 70
     0
  9
$CHAMFERA
 40
0.0
  9
$CHAMFERB
 40
0.0
  9
$CHAMFERC
 40
0.0
  9
$CHAMFERD
 40
0.0
  9
$SKPOLY
 70
     0
  9
$TDCREATE
 40
2461083.651337222
  9
$TDUCREATE
 40
2461083.984670556
  9
$TDUPDATE
 40
2461083.651337327
  9
$TDUUPDATE
 40
2461083.98467066
  9
$TDINDWG
 40
0.0000000116
  9
$TDUSRTIMER
 40
0.0000000116
  9
$USRTIMER
 70
     1
  9
$ANGBASE
 50
0.0
  9
$ANGDIR
 70
     0
  9
$PDMODE
 70
     3
  9
$PDSIZE
 40
0.0
  9
$PLINEWID
 40
0.0
  9
$SPLFRAME
 70
     0
  9
$SPLINETYPE
 70
     6
  9
$SPLINESEGS
 70
     8
  9
$HANDSEED
  5
3688
  9
$SURFTAB1
 70
     6
  9
$SURFTAB2
 70
     6
  9
$SURFTYPE
 70
     6
  9
$SURFU
 70
     6
  9
$SURFV
 70
     6
  9
$UCSBASE
  2

  9
$UCSNAME
  2

  9
$UCSORG
 10
0.0
 20
0.0
 30
0.0
  9
$UCSXDIR
 10
1.0
 20
0.0
 30
0.0
  9
$UCSYDIR
 10
0.0
 20
1.0
 30
0.0
  9
$UCSORTHOREF
  2

  9
$UCSORTHOVIEW
 70
     0
  9
$UCSORGTOP
 10
0.0
 20
0.0
 30
0.0
  9
$UCSORGBOTTOM
 10
0.0
 20
0.0
 30
0.0
  9
$UCSORGLEFT
 10
0.0
 20
0.0
 30
0.0
  9
$UCSORGRIGHT
 10
0.0
 20
0.0
 30
0.0
  9
$UCSORGFRONT
 10
0.0
 20
0.0
 30
0.0
  9
$UCSORGBACK
 10
0.0
 20
0.0
 30
0.0
  9
$PUCSBASE
  2

  9
$PUCSNAME
  2

  9
$PUCSORG
 10
0.0
 20
0.0
 30
0.0
  9
$PUCSXDIR
 10
1.0
 20
0.0
 30
0.0
  9
$PUCSYDIR
 10
0.0
 20
1.0
 30
0.0
  9
$PUCSORTHOREF
  2

  9
$PUCSORTHOVIEW
 70
     0
  9
$PUCSORGTOP
 10
0.0
 20
0.0
 30
0.0
  9
$PUCSORGBOTTOM
 10
0.0
 20
0.0
 30
0.0
  9
$PUCSORGLEFT
 10
0.0
 20
0.0
 30
0.0
  9
$PUCSORGRIGHT
 10
0.0
 20
0.0
 30
0.0
  9
$PUCSORGFRONT
 10
0.0
 20
0.0
 30
0.0
  9
$PUCSORGBACK
 10
0.0
 20
0.0
 30
0.0
  9
$USERI1
 70
     0
  9
$USERI2
 70
     0
  9
$USERI3
 70
     0
  9
$USERI4
 70
     0
  9
$USERI5
 70
     0
  9
$USERR1
 40
0.0
  9
$USERR2
 40
0.0
  9
$USERR3
 40
0.0
  9
$USERR4
 40
0.0
  9
$USERR5
 40
0.0
  9
$WORLDVIEW
 70
     1
  9
$SHADEDGE
 70
     3
  9
$SHADEDIF
 70
    70
  9
$TILEMODE
 70
     1
  9
$MAXACTVP
 70
    64
  9
$PINSBASE
 10
0.0
 20
0.0
 30
0.0
  9
$PLIMCHECK
 70
     0
  9
$PEXTMIN
 10
0.0
 20
0.0
 30
0.0
  9
$PEXTMAX
 10
0.0
 20
0.0
 30
0.0
  9
$PLIMMIN
 10
-20.0
 20
-7.5
  9
$PLIMMAX
 10
277.0
 20
202.5
  9
$UNITMODE
 70
     0
  9
$VISRETAIN
 70
     1
  9
$PLINEGEN
 70
     0
  9
$PSLTSCALE
 70
     1
  9
$TREEDEPTH
 70
  3020
  9
$CMLSTYLE
  2
Standard
  9
$CMLJUST
 70
     0
  9
$CMLSCALE
 40
1.0
  9
$PROXYGRAPHICS
 70
     1
  9
$MEASUREMENT
 70
     1
  9
$CELWEIGHT
370
    -1
  9
$ENDCAPS
280
     0
  9
$JOINSTYLE
280
     0
  9
$LWDISPLAY
290
     0
  9
$INSUNITS
 70
     4
  9
$HYPERLINKBASE
  1

  9
$STYLESHEET
  1

  9
$XEDIT
290
     1
  9
$CEPSNTYPE
380
     0
  9
$PSTYLEMODE
290
     1
  9
$FINGERPRINTGUID
  2
{4ceff1e1-b772-4610-9f47-fe7de43f7b8e}
  9
$VERSIONGUID
  2
{FAEB1C32-E019-11D5-929B-00C0DF256EC4}
  9
$EXTNAMES
290
     1
  9
$PSVPSCALE
 40
0.0
  9
$OLESTARTUP
290
     0
  9
$SORTENTS
280
   127
  9
$INDEXCTL
280
     0
  9
$HIDETEXT
280
     1
  9
$XCLIPFRAME
280
     2
  9
$HALOGAP
280
     0
  9
$OBSCOLOR
 70
   257
  9
$OBSLTYPE
280
     0
  9
$INTERSECTIONDISPLAY
280
     0
  9
$INTERSECTIONCOLOR
 70
   257
  9
$DIMASSOC
280
     2
  9
$PROJECTNAME
  1

  9
$CAMERADISPLAY
290
     0
  9
$LENSLENGTH
 40
50.0
  9
$CAMERAHEIGHT
 40
0.0
  9
$STEPSPERSEC
 40
2.0
  9
$STEPSIZE
 40
6.0
  9
$3DDWFPREC
 40
2.0
  9
$PSOLWIDTH
 40
0.25
  9
$PSOLHEIGHT
 40
4.0
  9
$LOFTANG1
 40
1.570796326794897
  9
$LOFTANG2
 40
1.570796326794897
  9
$LOFTMAG1
 40
0.0
  9
$LOFTMAG2
 40
0.0
  9
$LOFTPARAM
 70
     7
  9
$LOFTNORMALS
280
     1
  9
$LATITUDE
 40
37.795
  9
$LONGITUDE
 40
-122.394
  9
$NORTHDIRECTION
 40
0.0
  9
$TIMEZONE
 70
 -8000
  9
$LIGHTGLYPHDISPLAY
280
     1
  9
$TILEMODELIGHTSYNCH
280
     1
  9
$CMATERIAL
347
35D2
  9
$SOLIDHIST
280
     0
  9
$SHOWHIST
280
     1
  9
$DWFFRAME
280
     2
  9
$DGNFRAME
280
     2
  9
$REALWORLDSCALE
290
     1
  9
$INTERFERECOLOR
 62
   256
  9
$CSHADOW
280
     0
  9
$SHADOWPLANELOCATION
 40
0.0
  0
ENDSEC
  0
SECTION
  2
CLASSES
  0
CLASS
  1
ACDBDICTIONARYWDFLT
  2
AcDbDictionaryWithDefault
  3
ObjectDBX Classes
 90
        0
 91
        3
280
     0
281
     0
  0
CLASS
  1
VISUALSTYLE
  2
AcDbVisualStyle
  3
ObjectDBX Classes
 90
     4095
 91
        3
280
     0
281
     0
  0
CLASS
  1
MATERIAL
  2
AcDbMaterial
  3
ObjectDBX Classes
 90
     1153
 91
        3
280
     0
281
     0
  0
CLASS
  1
SCALE
  2
AcDbScale
  3
ObjectDBX Classes
 90
     1153
 91
        3
280
     0
281
     0
  0
CLASS
  1
TABLESTYLE
  2
AcDbTableStyle
  3
ObjectDBX Classes
 90
     4095
 91
        3
280
     0
281
     0
  0
CLASS
  1
MLEADERSTYLE
  2
AcDbMLeaderStyle
  3
ACDB_MLEADERSTYLE_CLASS
 90
     4095
 91
        3
280
     0
281
     0
  0
CLASS
  1
SUN
  2
AcDbSun
  3
SCENEOE
 90
     1153
 91
        3
280
     0
281
     0
  0
CLASS
  1
DICTIONARYVAR
  2
AcDbDictionaryVar
  3
ObjectDBX Classes
 90
        0
 91
        3
280
     0
281
     0
  0
CLASS
  1
CELLSTYLEMAP
  2
AcDbCellStyleMap
  3
ObjectDBX Classes
 90
     1152
 91
        3
280
     0
281
     0
  0
ENDSEC
  0
SECTION
  2
TABLES
  0
TABLE
  2
VPORT
  5
3597
330
0
100
AcDbSymbolTable
 70
     1
  0
VPORT
  5
35B7
330
3597
100
AcDbSymbolTableRecord
100
AcDbViewportTableRecord
  2
*Active
 70
     0
 10
0.0
 20
0.0
 11
1.0
 21
1.0
 12
33.92760340479991
 22
-2.479716920557024
 13
0.0
 23
0.0
 14
0.5
 24
0.5
 15
0.5
 25
0.5
 16
0.0
 26
0.0
 36
1.0
 17
0.0
 27
0.0
 37
0.0
 40
68.49133142333554
 41
1.914325842696629
 42
50.0
 43
0.0
 44
0.0
 50
0.0
 51
0.0
 71
     0
 72
   100
 73
     1
 74
     3
 75
     0
 76
     0
 77
     0
 78
     0
281
     0
 65
     1
110
0.0
120
0.0
130
0.0
111
1.0
121
0.0
131
0.0
112
0.0
122
1.0
132
0.0
 79
     0
146
0.0
348
35BD
 60
     3
 61
     5
292
     1
282
     1
141
0.0
142
0.0
 63
   250
361
35FB
  0
ENDTAB
  0
TABLE
  2
LTYPE
  5
3594
330
0
100
AcDbSymbolTable
 70
    48
  0
LTYPE
  5
35A2
330
3594
100
AcDbSymbolTableRecord
100
AcDbLinetypeTableRecord
  2
ByBlock
 70
     0
  3

 72
    65
 73
     0
 40
0.0
  0
LTYPE
  5
35A3
330
3594
100
AcDbSymbolTableRecord
100
AcDbLinetypeTableRecord
  2
ByLayer
 70
     0
  3

 72
    65
 73
     0
 40
0.0
  0
LTYPE
  5
35A4
330
3594
100
AcDbSymbolTableRecord
100
AcDbLinetypeTableRecord
  2
Continuous
 70
     0
  3
Solid line
 72
    65
 73
     0
 40
0.0
  0
LTYPE
  5
363F
330
3594
100
AcDbSymbolTableRecord
100
AcDbLinetypeTableRecord
  2
BATTING
 70
     0
  3
Batting SSSSSSSSSSSSSSSSSSSSSSSSSSSSSSSSSSSSSSSSSSSSSSS
 72
    65
 73
     4
 40
10.16254
 49
0.00254
 74
     0
 49
-2.54
 74
     2
 75
     0
340
363D
 46
2.54
 50
0.0
 44
-2.54
 45
0.0
  9
BAT
 49
-5.08
 74
     2
 75
     0
340
363E
 46
2.54
 50
180.0
 44
2.54
 45
0.0
  9
BAT
 49
-2.54
 74
     0
  0
LTYPE
  5
3640
330
3594
100
AcDbSymbolTableRecord
100
AcDbLinetypeTableRecord
  2
BORDER
 70
     0
  3
Border __ __ . __ __ . __ __ . __ __ . __ __ .
 72
    65
 73
     6
 40
44.45
 49
12.7
 74
     0
 49
-6.35
 74
     0
 49
12.7
 74
     0
 49
-6.35
 74
     0
 49
0.0
 74
     0
 49
-6.35
 74
     0
  0
LTYPE
  5
3641
330
3594
100
AcDbSymbolTableRecord
100
AcDbLinetypeTableRecord
  2
BORDER2
 70
     0
  3
Border (.5x) __.__.__.__.__.__.__.__.__.__.__.
 72
    65
 73
     6
 40
22.225
 49
6.35
 74
     0
 49
-3.175
 74
     0
 49
6.35
 74
     0
 49
-3.175
 74
     0
 49
0.0
 74
     0
 49
-3.175
 74
     0
  0
LTYPE
  5
3642
330
3594
100
AcDbSymbolTableRecord
100
AcDbLinetypeTableRecord
  2
BORDERX2
 70
     0
  3
Border (2x) ____  ____  .  ____  ____  .  ___
 72
    65
 73
     6
 40
88.89999999999999
 49
25.4
 74
     0
 49
-12.7
 74
     0
 49
25.4
 74
     0
 49
-12.7
 74
     0
 49
0.0
 74
     0
 49
-12.7
 74
     0
  0
LTYPE
  5
3643
330
3594
100
AcDbSymbolTableRecord
100
AcDbLinetypeTableRecord
  2
CENTER
 70
     0
  3
Center ____ _ ____ _ ____ _ ____ _ ____ _ ____
 72
    65
 73
     4
 40
50.8
 49
31.75
 74
     0
 49
-6.35
 74
     0
 49
6.35
 74
     0
 49
-6.35
 74
     0
  0
LTYPE
  5
3644
330
3594
100
AcDbSymbolTableRecord
100
AcDbLinetypeTableRecord
  2
CENTER2
 70
     0
  3
Center (.5x) ___ _ ___ _ ___ _ ___ _ ___ _ ___
 72
    65
 73
     4
 40
28.575
 49
19.05
 74
     0
 49
-3.175
 74
     0
 49
3.175
 74
     0
 49
-3.175
 74
     0
  0
LTYPE
  5
3645
330
3594
100
AcDbSymbolTableRecord
100
AcDbLinetypeTableRecord
  2
CENTERX2
 70
     0
  3
Center (2x) ________  __  ________  __  _____
 72
    65
 73
     4
 40
101.6
 49
63.5
 74
     0
 49
-12.7
 74
     0
 49
12.7
 74
     0
 49
-12.7
 74
     0
  0
LTYPE
  5
3646
330
3594
100
AcDbSymbolTableRecord
100
AcDbLinetypeTableRecord
  2
DASHDOT
 70
     0
  3
Dash dot __ . __ . __ . __ . __ . __ . __ . __
 72
    65
 73
     4
 40
25.4
 49
12.7
 74
     0
 49
-6.35
 74
     0
 49
0.0
 74
     0
 49
-6.35
 74
     0
  0
LTYPE
  5
3647
330
3594
100
AcDbSymbolTableRecord
100
AcDbLinetypeTableRecord
  2
DASHDOT2
 70
     0
  3
Dash dot (.5x) _._._._._._._._._._._._._._._.
 72
    65
 73
     4
 40
12.7
 49
6.35
 74
     0
 49
-3.175
 74
     0
 49
0.0
 74
     0
 49
-3.175
 74
     0
  0
LTYPE
  5
3648
330
3594
100
AcDbSymbolTableRecord
100
AcDbLinetypeTableRecord
  2
DASHDOTX2
 70
     0
  3
Dash dot (2x) ____  .  ____  .  ____  .  ___
 72
    65
 73
     4
 40
50.8
 49
25.4
 74
     0
 49
-12.7
 74
     0
 49
0.0
 74
     0
 49
-12.7
 74
     0
  0
LTYPE
  5
3649
330
3594
100
AcDbSymbolTableRecord
100
AcDbLinetypeTableRecord
  2
ACAD_ISO02W100
 70
     0
  3
ISO dash __ __ __ __ __ __ __ __ __ __ __ __ __
 72
    65
 73
     2
 40
15.0
 49
12.0
 74
     0
 49
-3.0
 74
     0
  0
LTYPE
  5
364A
330
3594
100
AcDbSymbolTableRecord
100
AcDbLinetypeTableRecord
  2
ACAD_ISO03W100
 70
     0
  3
ISO dash space __    __    __    __    __    __
 72
    65
 73
     2
 40
30.0
 49
12.0
 74
     0
 49
-18.0
 74
     0
  0
LTYPE
  5
364B
330
3594
100
AcDbSymbolTableRecord
100
AcDbLinetypeTableRecord
  2
ACAD_ISO04W100
 70
     0
  3
ISO long-dash dot ____ . ____ . ____ . ____ . _
 72
    65
 73
     4
 40
30.0
 49
24.0
 74
     0
 49
-3.0
 74
     0
 49
0.0
 74
     0
 49
-3.0
 74
     0
  0
LTYPE
  5
364C
330
3594
100
AcDbSymbolTableRecord
100
AcDbLinetypeTableRecord
  2
ACAD_ISO05W100
 70
     0
  3
ISO long-dash double-dot ____ .. ____ .. ____ . 
 72
    65
 73
     6
 40
33.0
 49
24.0
 74
     0
 49
-3.0
 74
     0
 49
0.0
 74
     0
 49
-3.0
 74
     0
 49
0.0
 74
     0
 49
-3.0
 74
     0
  0
LTYPE
  5
364D
330
3594
100
AcDbSymbolTableRecord
100
AcDbLinetypeTableRecord
  2
ACAD_ISO06W100
 70
     0
  3
ISO long-dash triple-dot ____ ... ____ ... ____
 72
    65
 73
     8
 40
36.0
 49
24.0
 74
     0
 49
-3.0
 74
     0
 49
0.0
 74
     0
 49
-3.0
 74
     0
 49
0.0
 74
     0
 49
-3.0
 74
     0
 49
0.0
 74
     0
 49
-3.0
 74
     0
  0
LTYPE
  5
364E
330
3594
100
AcDbSymbolTableRecord
100
AcDbLinetypeTableRecord
  2
ACAD_ISO07W100
 70
     0
  3
ISO dot . . . . . . . . . . . . . . . . . . . . 
 72
    65
 73
     2
 40
3.0
 49
0.0
 74
     0
 49
-3.0
 74
     0
  0
LTYPE
  5
364F
330
3594
100
AcDbSymbolTableRecord
100
AcDbLinetypeTableRecord
  2
ACAD_ISO08W100
 70
     0
  3
ISO long-dash short-dash ____ __ ____ __ ____ _
 72
    65
 73
     4
 40
36.0
 49
24.0
 74
     0
 49
-3.0
 74
     0
 49
6.0
 74
     0
 49
-3.0
 74
     0
  0
LTYPE
  5
3650
330
3594
100
AcDbSymbolTableRecord
100
AcDbLinetypeTableRecord
  2
ACAD_ISO09W100
 70
     0
  3
ISO long-dash double-short-dash ____ __ __ ____
 72
    65
 73
     6
 40
45.0
 49
24.0
 74
     0
 49
-3.0
 74
     0
 49
6.0
 74
     0
 49
-3.0
 74
     0
 49
6.0
 74
     0
 49
-3.0
 74
     0
  0
LTYPE
  5
3651
330
3594
100
AcDbSymbolTableRecord
100
AcDbLinetypeTableRecord
  2
HIDDENX2
 70
     0
  3
Hidden (2x) ____ ____ ____ ____ ____ ____ ____ 
 72
    65
 73
     2
 40
19.05
 49
12.7
 74
     0
 49
-6.35
 74
     0
  0
LTYPE
  5
3653
330
3594
100
AcDbSymbolTableRecord
100
AcDbLinetypeTableRecord
  2
HOT_WATER_SUPPLY
 70
     0
  3
Hot water supply ---- HW ---- HW ---- HW ----
 72
    65
 73
     3
 40
22.86
 49
12.7
 74
     0
 49
-5.08
 74
     2
 75
     0
340
3652
 46
2.54
 50
0.0
 44
-2.54
 45
-1.27
  9
HW
 49
-5.08
 74
     0
  0
LTYPE
  5
3654
330
3594
100
AcDbSymbolTableRecord
100
AcDbLinetypeTableRecord
  2
PHANTOM
 70
     0
  3
Phantom ______  __  __  ______  __  __  ______ 
 72
    65
 73
     6
 40
63.50000000000001
 49
31.75
 74
     0
 49
-6.35
 74
     0
 49
6.35
 74
     0
 49
-6.35
 74
     0
 49
6.35
 74
     0
 49
-6.35
 74
     0
  0
LTYPE
  5
3655
330
3594
100
AcDbSymbolTableRecord
100
AcDbLinetypeTableRecord
  2
PHANTOM2
 70
     0
  3
Phantom (.5x) ___ _ _ ___ _ _ ___ _ _ ___ _ _
 72
    65
 73
     6
 40
31.75
 49
15.875
 74
     0
 49
-3.175
 74
     0
 49
3.175
 74
     0
 49
-3.175
 74
     0
 49
3.175
 74
     0
 49
-3.175
 74
     0
  0
LTYPE
  5
3656
330
3594
100
AcDbSymbolTableRecord
100
AcDbLinetypeTableRecord
  2
PHANTOMX2
 70
     0
  3
Phantom (2x) ____________    ____    ____   _
 72
    65
 73
     6
 40
127.0
 49
63.5
 74
     0
 49
-12.7
 74
     0
 49
12.7
 74
     0
 49
-12.7
 74
     0
 49
12.7
 74
     0
 49
-12.7
 74
     0
  0
LTYPE
  5
3658
330
3594
100
AcDbSymbolTableRecord
100
AcDbLinetypeTableRecord
  2
TRACKS
 70
     0
  3
Tracks -|-|-|-|-|-|-|-|-|-|-|-|-|-|-|-|-|-|-|-|-|-|-|-|-
 72
    65
 73
     2
 40
7.62
 49
3.81
 74
     2
 75
     0
340
3657
 46
6.35
 50
0.0
 44
0.0
 45
0.0
  9
TRACK1
 49
3.81
 74
     0
  0
LTYPE
  5
365B
330
3594
100
AcDbSymbolTableRecord
100
AcDbLinetypeTableRecord
  2
ZIGZAG
 70
     0
  3
Zig zag /\/\/\/\/\/\/\/\/\/\/\/\/\/\/\/\/\/\/\/\/\/\/\/
 72
    65
 73
     4
 40
20.32254
 49
0.00254
 74
     0
 49
-5.08
 74
     2
 75
     0
340
3659
 46
5.08
 50
0.0
 44
-5.08
 45
0.0
  9
ZIG
 49
-10.16
 74
     2
 75
     0
340
365A
 46
5.08
 50
180.0
 44
5.08
 45
0.0
  9
ZIG
 49
-5.08
 74
     0
  0
LTYPE
  5
365C
330
3594
100
AcDbSymbolTableRecord
100
AcDbLinetypeTableRecord
  2
DASHED
 70
     0
  3
Dashed __ __ __ __ __ __ __ __ __ __ __ __ __ _
 72
    65
 73
     2
 40
19.05
 49
12.7
 74
     0
 49
-6.35
 74
     0
  0
LTYPE
  5
365D
330
3594
100
AcDbSymbolTableRecord
100
AcDbLinetypeTableRecord
  2
DASHED2
 70
     0
  3
Dashed (.5x) _ _ _ _ _ _ _ _ _ _ _ _ _ _ _ _ _ 
 72
    65
 73
     2
 40
9.524999999999999
 49
6.35
 74
     0
 49
-3.175
 74
     0
  0
LTYPE
  5
365E
330
3594
100
AcDbSymbolTableRecord
100
AcDbLinetypeTableRecord
  2
DASHEDX2
 70
     0
  3
Dashed (2x) ____  ____  ____  ____  ____  ___
 72
    65
 73
     2
 40
38.09999999999999
 49
25.4
 74
     0
 49
-12.7
 74
     0
  0
LTYPE
  5
365F
330
3594
100
AcDbSymbolTableRecord
100
AcDbLinetypeTableRecord
  2
DIVIDE
 70
     0
  3
Divide ____ . . ____ . . ____ . . ____ . . ____
 72
    65
 73
     6
 40
31.75
 49
12.7
 74
     0
 49
-6.35
 74
     0
 49
0.0
 74
     0
 49
-6.35
 74
     0
 49
0.0
 74
     0
 49
-6.35
 74
     0
  0
LTYPE
  5
3660
330
3594
100
AcDbSymbolTableRecord
100
AcDbLinetypeTableRecord
  2
DIVIDE2
 70
     0
  3
Divide (.5x) __..__..__..__..__..__..__..__.._
 72
    65
 73
     6
 40
15.875
 49
6.35
 74
     0
 49
-3.175
 74
     0
 49
0.0
 74
     0
 49
-3.175
 74
     0
 49
0.0
 74
     0
 49
-3.175
 74
     0
  0
LTYPE
  5
3661
330
3594
100
AcDbSymbolTableRecord
100
AcDbLinetypeTableRecord
  2
DIVIDEX2
 70
     0
  3
Divide (2x) ________  .  .  ________  .  .  _
 72
    65
 73
     6
 40
63.5
 49
25.4
 74
     0
 49
-12.7
 74
     0
 49
0.0
 74
     0
 49
-12.7
 74
     0
 49
0.0
 74
     0
 49
-12.7
 74
     0
  0
LTYPE
  5
3662
330
3594
100
AcDbSymbolTableRecord
100
AcDbLinetypeTableRecord
  2
DOT
 70
     0
  3
Dot . . . . . . . . . . . . . . . . . . . . . . . .
 72
    65
 73
     2
 40
6.35
 49
0.0
 74
     0
 49
-6.35
 74
     0
  0
LTYPE
  5
3663
330
3594
100
AcDbSymbolTableRecord
100
AcDbLinetypeTableRecord
  2
DOT2
 70
     0
  3
Dot (.5x) ........................................
 72
    65
 73
     2
 40
3.175
 49
0.0
 74
     0
 49
-3.175
 74
     0
  0
LTYPE
  5
3664
330
3594
100
AcDbSymbolTableRecord
100
AcDbLinetypeTableRecord
  2
DOTX2
 70
     0
  3
Dot (2x) .  .  .  .  .  .  .  .  .  .  .  .  .  .
 72
    65
 73
     2
 40
12.7
 49
0.0
 74
     0
 49
-12.7
 74
     0
  0
LTYPE
  5
3666
330
3594
100
AcDbSymbolTableRecord
100
AcDbLinetypeTableRecord
  2
DRAINAGE
 70
     0
  3
Drainage ---->---->---->----
 72
    65
 73
     2
 40
10.16
 49
5.08
 74
     2
 75
     0
340
3665
 46
2.54
 50
180.0
 44
0.0
 45
0.0
  9
RIGHT_ARROW
 49
5.08
 74
     0
  0
LTYPE
  5
3668
330
3594
100
AcDbSymbolTableRecord
100
AcDbLinetypeTableRecord
  2
DRAINAGE2
 70
     0
  3
Drainage reversed----<----<----<----
 72
    65
 73
     2
 40
10.16
 49
5.08
 74
     2
 75
     0
340
3667
 46
2.54
 50
0.0
 44
0.0
 45
0.0
  9
RIGHT_ARROW
 49
5.08
 74
     0
  0
LTYPE
  5
366A
330
3594
100
AcDbSymbolTableRecord
100
AcDbLinetypeTableRecord
  2
FENCELINE1
 70
     0
  3
Fenceline circle ----0-----0----0-----0----0-----0--
 72
    65
 73
     4
 40
36.83
 49
6.35
 74
     0
 49
-2.54
 74
     2
 75
     0
340
3669
 46
2.54
 50
0.0
 44
-2.54
 45
0.0
  9
CIRC1
 49
-2.54
 74
     0
 49
25.4
 74
     0
  0
LTYPE
  5
366C
330
3594
100
AcDbSymbolTableRecord
100
AcDbLinetypeTableRecord
  2
FENCELINE2
 70
     0
  3
Fenceline square ----[]-----[]----[]-----[]----[]---
 72
    65
 73
     4
 40
36.83
 49
6.35
 74
     0
 49
-2.54
 74
     2
 75
     0
340
366B
 46
2.54
 50
0.0
 44
-2.54
 45
0.0
  9
BOX
 49
-2.54
 74
     0
 49
25.4
 74
     0
  0
LTYPE
  5
366E
330
3594
100
AcDbSymbolTableRecord
100
AcDbLinetypeTableRecord
  2
GAS_LINE
 70
     0
  3
Gas line ----GAS----GAS----GAS----GAS----GAS----GAS--
 72
    65
 73
     3
 40
24.13
 49
12.7
 74
     0
 49
-5.08
 74
     2
 75
     0
340
366D
 46
2.54
 50
0.0
 44
-2.54
 45
-1.27
  9
GAS
 49
-6.35
 74
     0
  0
LTYPE
  5
366F
330
3594
100
AcDbSymbolTableRecord
100
AcDbLinetypeTableRecord
  2
HIDDEN
 70
     0
  3
Hidden __ __ __ __ __ __ __ __ __ __ __ __ __ __
 72
    65
 73
     2
 40
9.524999999999999
 49
6.35
 74
     0
 49
-3.175
 74
     0
  0
LTYPE
  5
3670
330
3594
100
AcDbSymbolTableRecord
100
AcDbLinetypeTableRecord
  2
HIDDEN2
 70
     0
  3
Hidden (.5x) _ _ _ _ _ _ _ _ _ _ _ _ _ _ _ _ _ 
 72
    65
 73
     2
 40
4.762499999999999
 49
3.175
 74
     0
 49
-1.5875
 74
     0
  0
LTYPE
  5
3671
330
3594
100
AcDbSymbolTableRecord
100
AcDbLinetypeTableRecord
  2
ACAD_ISO10W100
 70
     0
  3
ISO dash dot __ . __ . __ . __ . __ . __ . __ . 
 72
    65
 73
     4
 40
18.0
 49
12.0
 74
     0
 49
-3.0
 74
     0
 49
0.0
 74
     0
 49
-3.0
 74
     0
  0
LTYPE
  5
3672
330
3594
100
AcDbSymbolTableRecord
100
AcDbLinetypeTableRecord
  2
ACAD_ISO11W100
 70
     0
  3
ISO double-dash dot __ __ . __ __ . __ __ . __ _
 72
    65
 73
     6
 40
33.0
 49
12.0
 74
     0
 49
-3.0
 74
     0
 49
12.0
 74
     0
 49
-3.0
 74
     0
 49
0.0
 74
     0
 49
-3.0
 74
     0
  0
LTYPE
  5
3673
330
3594
100
AcDbSymbolTableRecord
100
AcDbLinetypeTableRecord
  2
ACAD_ISO12W100
 70
     0
  3
ISO dash double-dot __ . . __ . . __ . . __ . . 
 72
    65
 73
     6
 40
21.0
 49
12.0
 74
     0
 49
-3.0
 74
     0
 49
0.0
 74
     0
 49
-3.0
 74
     0
 49
0.0
 74
     0
 49
-3.0
 74
     0
  0
LTYPE
  5
3674
330
3594
100
AcDbSymbolTableRecord
100
AcDbLinetypeTableRecord
  2
ACAD_ISO13W100
 70
     0
  3
ISO double-dash double-dot __ __ . . __ __ . . _
 72
    65
 73
     8
 40
36.0
 49
12.0
 74
     0
 49
-3.0
 74
     0
 49
12.0
 74
     0
 49
-3.0
 74
     0
 49
0.0
 74
     0
 49
-3.0
 74
     0
 49
0.0
 74
     0
 49
-3.0
 74
     0
  0
LTYPE
  5
3675
330
3594
100
AcDbSymbolTableRecord
100
AcDbLinetypeTableRecord
  2
ACAD_ISO14W100
 70
     0
  3
ISO dash triple-dot __ . . . __ . . . __ . . . _
 72
    65
 73
     8
 40
24.0
 49
12.0
 74
     0
 49
-3.0
 74
     0
 49
0.0
 74
     0
 49
-3.0
 74
     0
 49
0.0
 74
     0
 49
-3.0
 74
     0
 49
0.0
 74
     0
 49
-3.0
 74
     0
  0
LTYPE
  5
3676
330
3594
100
AcDbSymbolTableRecord
100
AcDbLinetypeTableRecord
  2
ACAD_ISO15W100
 70
     0
  3
ISO double-dash triple-dot __ __ . . . __ __ . .
 72
    65
 73
    10
 40
39.0
 49
12.0
 74
     0
 49
-3.0
 74
     0
 49
12.0
 74
     0
 49
-3.0
 74
     0
 49
0.0
 74
     0
 49
-3.0
 74
     0
 49
0.0
 74
     0
 49
-3.0
 74
     0
 49
0.0
 74
     0
 49
-3.0
 74
     0
  0
ENDTAB
  0
TABLE
  2
LAYER
  5
3592
330
0
100
AcDbSymbolTable
 70
     7
  0
LAYER
  5
359F
330
3592
100
AcDbSymbolTableRecord
100
AcDbLayerTableRecord
  2
0
 70
     0
 62
     7
  6
Continuous
370
     0
390
359E
347
35D4
348
0
  0
LAYER
  5
3677
330
3592
100
AcDbSymbolTableRecord
100
AcDbLayerTableRecord
  2
body
 70
     0
 62
    18
420
        0
  6
Continuous
370
    -3
390
359E
347
35D4
348
0
  0
LAYER
  5
3678
330
3592
100
AcDbSymbolTableRecord
100
AcDbLayerTableRecord
  2
outline
 70
     0
 62
     6
420
 16711935
  6
Continuous
370
     0
390
359E
347
35D4
348
0
  0
LAYER
  5
3679
330
3592
100
AcDbSymbolTableRecord
100
AcDbLayerTableRecord
  2
plug
 70
     0
 62
     2
420
 16776960
  6
Continuous
370
    -3
390
359E
347
35D4
348
0
  0
LAYER
  5
367A
330
3592
100
AcDbSymbolTableRecord
100
AcDbLayerTableRecord
  2
text
 70
     0
 62
     4
420
    65535
  6
Continuous
370
     0
390
359E
347
35D4
348
0
  0
LAYER
  5
367B
330
3592
100
AcDbSymbolTableRecord
100
AcDbLayerTableRecord
  2
zBody
 70
     1
 62
   -18
420
        0
  6
Continuous
370
     0
390
359E
347
35D4
348
0
  0
LAYER
  5
367C
330
3592
100
AcDbSymbolTableRecord
100
AcDbLayerTableRecord
  2
zOutline
 70
     1
 62
    -6
420
 16711935
  6
Continuous
370
     0
390
359E
347
35D4
348
0
  0
ENDTAB
  0
TABLE
  2
STYLE
  5
3593
330
0
100
AcDbSymbolTable
 70
    13
  0
STYLE
  5
35A0
330
3593
100
AcDbSymbolTableRecord
100
AcDbTextStyleTableRecord
  2
Standard
 70
     0
 40
0.0
 41
1.0
 50
0.0
 71
     0
 42
0.2
  3
txt
  4

  0
STYLE
  5
363B
330
3593
100
AcDbSymbolTableRecord
100
AcDbTextStyleTableRecord
  2
QCADDimTextStyle
 70
     0
 40
0.0
 41
1.0
 50
0.0
 71
     0
 42
0.2
  3

  4

  0
STYLE
  5
363D
330
3593
100
AcDbSymbolTableRecord
100
AcDbTextStyleTableRecord
  2
textstyle0
 70
     0
 40
0.0
 41
1.0
 50
0.0
 71
     0
 42
0.2
  3
ltypeshp.shx
  4

  0
STYLE
  5
363E
330
3593
100
AcDbSymbolTableRecord
100
AcDbTextStyleTableRecord
  2
textstyle1
 70
     0
 40
0.0
 41
1.0
 50
0.0
 71
     0
 42
0.2
  3
ltypeshp.shx
  4

  0
STYLE
  5
3652
330
3593
100
AcDbSymbolTableRecord
100
AcDbTextStyleTableRecord
  2
textstyle2
 70
     0
 40
0.0
 41
1.0
 50
0.0
 71
     0
 42
0.2
  3
STANDARD
  4

  0
STYLE
  5
3657
330
3593
100
AcDbSymbolTableRecord
100
AcDbTextStyleTableRecord
  2
textstyle3
 70
     0
 40
0.0
 41
1.0
 50
0.0
 71
     0
 42
0.2
  3
ltypeshp.shx
  4

  0
STYLE
  5
3659
330
3593
100
AcDbSymbolTableRecord
100
AcDbTextStyleTableRecord
  2
textstyle4
 70
     0
 40
0.0
 41
1.0
 50
0.0
 71
     0
 42
0.2
  3
ltypeshp.shx
  4

  0
STYLE
  5
365A
330
3593
100
AcDbSymbolTableRecord
100
AcDbTextStyleTableRecord
  2
textstyle5
 70
     0
 40
0.0
 41
1.0
 50
0.0
 71
     0
 42
0.2
  3
ltypeshp.shx
  4

  0
STYLE
  5
3665
330
3593
100
AcDbSymbolTableRecord
100
AcDbTextStyleTableRecord
  2
textstyle6
 70
     0
 40
0.0
 41
1.0
 50
0.0
 71
     0
 42
0.2
  3
qcadshp.shx
  4

  0
STYLE
  5
3667
330
3593
100
AcDbSymbolTableRecord
100
AcDbTextStyleTableRecord
  2
textstyle7
 70
     0
 40
0.0
 41
1.0
 50
0.0
 71
     0
 42
0.2
  3
qcadshp.shx
  4

  0
STYLE
  5
3669
330
3593
100
AcDbSymbolTableRecord
100
AcDbTextStyleTableRecord
  2
textstyle8
 70
     0
 40
0.0
 41
1.0
 50
0.0
 71
     0
 42
0.2
  3
ltypeshp.shx
  4

  0
STYLE
  5
366B
330
3593
100
AcDbSymbolTableRecord
100
AcDbTextStyleTableRecord
  2
textstyle9
 70
     0
 40
0.0
 41
1.0
 50
0.0
 71
     0
 42
0.2
  3
ltypeshp.shx
  4

  0
STYLE
  5
366D
330
3593
100
AcDbSymbolTableRecord
100
AcDbTextStyleTableRecord
  2
textstyle10
 70
     0
 40
0.0
 41
1.0
 50
0.0
 71
     0
 42
0.2
  3
STANDARD
  4

  0
ENDTAB
  0
TABLE
  2
VIEW
  5
3595
330
0
100
AcDbSymbolTable
 70
     0
  0
ENDTAB
  0
TABLE
  2
UCS
  5
3596
330
0
100
AcDbSymbolTable
 70
     0
  0
ENDTAB
  0
TABLE
  2
APPID
  5
3598
330
0
100
AcDbSymbolTable
 70
     2
  0
APPID
  5
35A1
330
3598
100
AcDbSymbolTableRecord
100
AcDbRegAppTableRecord
  2
ACAD
 70
     0
  0
APPID
  5
35FC
330
3598
100
AcDbSymbolTableRecord
100
AcDbRegAppTableRecord
  2
QCAD
 70
     0
  0
ENDTAB
  0
TABLE
  2
DIMSTYLE
  5
3599
330
0
100
AcDbSymbolTable
 70
     2
100
AcDbDimStyleTable
  0
DIMSTYLE
105
35B5
330
3599
100
AcDbSymbolTableRecord
100
AcDbDimStyleTableRecord
  2
Standard
 70
     0
178
     0
340
35A0
  0
DIMSTYLE
105
363C
330
3599
100
AcDbSymbolTableRecord
100
AcDbDimStyleTableRecord
  2
QCADDimStyle
 70
     0
 41
1.0
 42
0.25
 44
0.5
 73
     0
 77
     1
140
1.0
147
0.25
178
    18
340
363B
  0
ENDTAB
  0
TABLE
  2
BLOCK_RECORD
  5
3591
330
0
100
AcDbSymbolTable
 70
     0
  0
BLOCK_RECORD
  5
35AD
330
3591
100
AcDbSymbolTableRecord
100
AcDbBlockTableRecord
  2
*Model_Space
340
35B0
 70
     0
280
     1
281
     0
  0
BLOCK_RECORD
  5
35A9
330
3591
100
AcDbSymbolTableRecord
100
AcDbBlockTableRecord
  2
*Paper_Space
340
35AC
 70
     0
280
     1
281
     0
  0
ENDTAB
  0
ENDSEC
  0
SECTION
  2
BLOCKS
  0
BLOCK
  5
35AE
330
35AD
100
AcDbEntity
  8
0
100
AcDbBlockBegin
  2
*Model_Space
 70
     0
 10
0.0
 20
0.0
 30
0.0
  3
*Model_Space
  1

  0
ENDBLK
  5
35AF
330
35AD
100
AcDbEntity
  8
0
100
AcDbBlockEnd
  0
BLOCK
  5
35AA
330
35A9
100
AcDbEntity
 67
     1
  8
0
100
AcDbBlockBegin
  2
*Paper_Space
 70
     0
 10
0.0
 20
0.0
 30
0.0
  3
*Paper_Space
  1

  0
ENDBLK
  5
35AB
330
35A9
100
AcDbEntity
 67
     1
  8
0
100
AcDbBlockEnd
  0
ENDSEC
  0
SECTION
  2
ENTITIES
  0
LINE
  5
2422
330
35AD
100
AcDbEntity
  8
body
100
AcDbLine
 10
-3.0
 20
0.0
 30
0.0
 11
-6.0
 21
3.000000000000001
 31
0.0
  0
LINE
  5
32F5
330
35AD
100
AcDbEntity
  8
body
100
AcDbLine
 10
57.0
 20
0.0
 30
0.0
 11
54.0
 21
3.000000000000001
 31
0.0
  0
LINE
  5
332F
330
35AD
100
AcDbEntity
  8
body
100
AcDbLine
 10
87.0
 20
0.0
 30
0.0
 11
84.0
 21
3.000000000000001
 31
0.0
  0
LINE
  5
34E0
330
35AD
100
AcDbEntity
  8
body
100
AcDbLine
 10
27.0
 20
0.0
 30
0.0
 11
24.0
 21
3.000000000000001
 31
0.0
  0
LINE
  5
3164
330
35AD
100
AcDbEntity
  8
zBody
100
AcDbLine
 10
77.0
 20
0.0
 30
0.0
 11
74.0
 21
3.000000000000001
 31
0.0
  0
LINE
  5
2D70
330
35AD
100
AcDbEntity
  8
zBody
100
AcDbLine
 10
37.0
 20
0.0
 30
0.0
 11
34.0
 21
3.000000000000001
 31
0.0
  0
LINE
  5
2424
330
35AD
100
AcDbEntity
  8
body
100
AcDbLine
 10
-3.0
 20
3.0
 30
0.0
 11
-5.000000000000001
 21
5.000000000000002
 31
0.0
  0
LINE
  5
32F6
330
35AD
100
AcDbEntity
  8
body
100
AcDbLine
 10
57.0
 20
3.0
 30
0.0
 11
55.0
 21
5.000000000000002
 31
0.0
  0
LINE
  5
3330
330
35AD
100
AcDbEntity
  8
body
100
AcDbLine
 10
87.0
 20
3.0
 30
0.0
 11
85.0
 21
5.000000000000002
 31
0.0
  0
LINE
  5
34E1
330
35AD
100
AcDbEntity
  8
body
100
AcDbLine
 10
27.0
 20
3.0
 30
0.0
 11
25.0
 21
5.000000000000002
 31
0.0
  0
LINE
  5
3165
330
35AD
100
AcDbEntity
  8
zBody
100
AcDbLine
 10
77.0
 20
3.0
 30
0.0
 11
75.0
 21
5.000000000000002
 31
0.0
  0
LINE
  5
2D71
330
35AD
100
AcDbEntity
  8
zBody
100
AcDbLine
 10
37.0
 20
3.0
 30
0.0
 11
35.0
 21
5.000000000000002
 31
0.0
  0
LINE
  5
1F8B
330
35AD
100
AcDbEntity
  8
body
100
AcDbLine
 10
-3.0
 20
0.0
 30
0.0
 11
-3.0
 21
3.0
 31
0.0
  0
LINE
  5
32F7
330
35AD
100
AcDbEntity
  8
body
100
AcDbLine
 10
57.0
 20
0.0
 30
0.0
 11
57.0
 21
3.0
 31
0.0
  0
LINE
  5
3331
330
35AD
100
AcDbEntity
  8
body
100
AcDbLine
 10
87.0
 20
0.0
 30
0.0
 11
87.0
 21
3.0
 31
0.0
  0
LINE
  5
34E2
330
35AD
100
AcDbEntity
  8
body
100
AcDbLine
 10
27.0
 20
0.0
 30
0.0
 11
27.0
 21
3.0
 31
0.0
  0
LINE
  5
3166
330
35AD
100
AcDbEntity
  8
zBody
100
AcDbLine
 10
77.0
 20
0.0
 30
0.0
 11
77.0
 21
3.0
 31
0.0
  0
LINE
  5
2D72
330
35AD
100
AcDbEntity
  8
zBody
100
AcDbLine
 10
37.0
 20
0.0
 30
0.0
 11
37.0
 21
3.0
 31
0.0
  0
LINE
  5
3526
330
35AD
100
AcDbEntity
  8
outline
100
AcDbLine
 10
5.999999999999994
 20
32.0
 30
0.0
 11
5.999999999999994
 21
9.999999999999998
 31
0.0
  0
LINE
  5
3544
330
35AD
100
AcDbEntity
  8
outline
100
AcDbLine
 10
96.0
 20
49.5
 30
0.0
 11
96.0
 21
9.999999999999998
 31
0.0
  0
LINE
  5
354E
330
35AD
100
AcDbEntity
  8
outline
100
AcDbLine
 10
66.0
 20
43.00000000000003
 30
0.0
 11
66.0
 21
9.999999999999998
 31
0.0
  0
LINE
  5
3550
330
35AD
100
AcDbEntity
  8
outline
100
AcDbLine
 10
35.99999999999999
 20
37.50000000000003
 30
0.0
 11
35.99999999999999
 21
9.999999999999998
 31
0.0
  0
LINE
  5
3167
330
35AD
100
AcDbEntity
  8
zOutline
100
AcDbLine
 10
86.0
 20
20.92121597166109
 30
0.0
 11
86.0
 21
9.999999999999998
 31
0.0
  0
LINE
  5
2D73
330
35AD
100
AcDbEntity
  8
zOutline
100
AcDbLine
 10
45.99999999999999
 20
4.999999999999998
 30
0.0
 11
45.99999999999999
 21
-17.00000000000001
 31
0.0
  0
LINE
  5
2D74
330
35AD
100
AcDbEntity
  8
zOutline
100
AcDbLine
 10
45.99999999999999
 20
20.92121597166108
 30
0.0
 11
45.99999999999999
 21
9.999999999999998
 31
0.0
  0
LINE
  5
2BC5
330
35AD
100
AcDbEntity
  8
body
100
AcDbLine
 10
5.999999999999992
 20
4.999999999999998
 30
0.0
 11
5.99999999999999
 21
-3.5
 31
0.0
  0
LINE
  5
32F9
330
35AD
100
AcDbEntity
  8
body
100
AcDbLine
 10
65.99999999999999
 20
4.999999999999998
 30
0.0
 11
65.99999999999999
 21
-3.5
 31
0.0
  0
LINE
  5
3333
330
35AD
100
AcDbEntity
  8
body
100
AcDbLine
 10
96.0
 20
4.999999999999998
 30
0.0
 11
96.0
 21
-3.5
 31
0.0
  0
LINE
  5
34E4
330
35AD
100
AcDbEntity
  8
body
100
AcDbLine
 10
35.99999999999999
 20
4.999999999999998
 30
0.0
 11
35.99999999999999
 21
-3.5
 31
0.0
  0
LINE
  5
3168
330
35AD
100
AcDbEntity
  8
zBody
100
AcDbLine
 10
85.99999999999999
 20
4.999999999999998
 30
0.0
 11
85.99999999999999
 21
-3.5
 31
0.0
  0
LINE
  5
33CC
330
35AD
100
AcDbEntity
  8
body
100
AcDbLine
 10
5.999999999999992
 20
32.0
 30
0.0
 11
5.999999999999992
 21
9.999999999999998
 31
0.0
  0
LINE
  5
3545
330
35AD
100
AcDbEntity
  8
body
100
AcDbLine
 10
96.0
 20
49.5
 30
0.0
 11
96.0
 21
9.999999999999998
 31
0.0
  0
LINE
  5
354F
330
35AD
100
AcDbEntity
  8
body
100
AcDbLine
 10
65.99999999999999
 20
43.00000000000003
 30
0.0
 11
65.99999999999999
 21
9.999999999999998
 31
0.0
  0
LINE
  5
3551
330
35AD
100
AcDbEntity
  8
body
100
AcDbLine
 10
35.99999999999999
 20
37.50000000000003
 30
0.0
 11
35.99999999999999
 21
9.999999999999998
 31
0.0
  0
LINE
  5
3169
330
35AD
100
AcDbEntity
  8
zBody
100
AcDbLine
 10
85.99999999999999
 20
20.92121597166108
 30
0.0
 11
85.99999999999999
 21
9.999999999999998
 31
0.0
  0
LINE
  5
2D75
330
35AD
100
AcDbEntity
  8
zBody
100
AcDbLine
 10
45.99999999999999
 20
4.999999999999998
 30
0.0
 11
45.99999999999999
 21
-17.00000000000001
 31
0.0
  0
LINE
  5
2D76
330
35AD
100
AcDbEntity
  8
zBody
100
AcDbLine
 10
45.99999999999999
 20
20.92121597166108
 30
0.0
 11
45.99999999999999
 21
9.999999999999998
 31
0.0
  0
LINE
  5
3527
330
35AD
100
AcDbEntity
  8
outline
100
AcDbLine
 10
-6.0
 20
10.0
 30
0.0
 11
-6.0
 21
32.0
 31
0.0
  0
LINE
  5
3547
330
35AD
100
AcDbEntity
  8
outline
100
AcDbLine
 10
84.0
 20
10.0
 30
0.0
 11
84.0
 21
49.5
 31
0.0
  0
LINE
  5
354C
330
35AD
100
AcDbEntity
  8
outline
100
AcDbLine
 10
54.0
 20
10.0
 30
0.0
 11
54.0
 21
43.0
 31
0.0
  0
LINE
  5
3552
330
35AD
100
AcDbEntity
  8
outline
100
AcDbLine
 10
24.0
 20
10.0
 30
0.0
 11
24.0
 21
37.5
 31
0.0
  0
LINE
  5
316A
330
35AD
100
AcDbEntity
  8
zOutline
100
AcDbLine
 10
74.0
 20
10.0
 30
0.0
 11
74.0
 21
20.92121597166109
 31
0.0
  0
LINE
  5
2D77
330
35AD
100
AcDbEntity
  8
zOutline
100
AcDbLine
 10
34.0
 20
-9.499999999999998
 30
0.0
 11
34.0
 21
5.000000000000008
 31
0.0
  0
LINE
  5
2D78
330
35AD
100
AcDbEntity
  8
zOutline
100
AcDbLine
 10
34.0
 20
10.0
 30
0.0
 11
34.0
 21
20.92121597166109
 31
0.0
  0
LINE
  5
2BCA
330
35AD
100
AcDbEntity
  8
body
100
AcDbLine
 10
-6.0
 20
2.999999999999999
 30
0.0
 11
-5.999999999999996
 21
5.000000000000008
 31
0.0
  0
LINE
  5
32FC
330
35AD
100
AcDbEntity
  8
body
100
AcDbLine
 10
54.0
 20
2.999999999999999
 30
0.0
 11
54.0
 21
5.000000000000008
 31
0.0
  0
LINE
  5
3336
330
35AD
100
AcDbEntity
  8
body
100
AcDbLine
 10
84.0
 20
2.999999999999999
 30
0.0
 11
84.0
 21
5.000000000000008
 31
0.0
  0
LINE
  5
34E7
330
35AD
100
AcDbEntity
  8
body
100
AcDbLine
 10
24.0
 20
2.999999999999999
 30
0.0
 11
24.00000000000001
 21
5.000000000000008
 31
0.0
  0
LINE
  5
316B
330
35AD
100
AcDbEntity
  8
zBody
100
AcDbLine
 10
74.0
 20
2.999999999999999
 30
0.0
 11
74.0
 21
5.000000000000008
 31
0.0
  0
LINE
  5
33D0
330
35AD
100
AcDbEntity
  8
body
100
AcDbLine
 10
-6.0
 20
10.0
 30
0.0
 11
-6.0
 21
32.0
 31
0.0
  0
LINE
  5
3546
330
35AD
100
AcDbEntity
  8
body
100
AcDbLine
 10
84.0
 20
10.0
 30
0.0
 11
84.0
 21
49.5
 31
0.0
  0
LINE
  5
354D
330
35AD
100
AcDbEntity
  8
body
100
AcDbLine
 10
54.0
 20
10.0
 30
0.0
 11
54.0
 21
43.0
 31
0.0
  0
LINE
  5
3553
330
35AD
100
AcDbEntity
  8
body
100
AcDbLine
 10
24.0
 20
10.0
 30
0.0
 11
24.0
 21
37.5
 31
0.0
  0
LINE
  5
316C
330
35AD
100
AcDbEntity
  8
zBody
100
AcDbLine
 10
74.0
 20
10.0
 30
0.0
 11
74.0
 21
20.92121597166109
 31
0.0
  0
LINE
  5
2D79
330
35AD
100
AcDbEntity
  8
zBody
100
AcDbLine
 10
34.0
 20
2.999999999999999
 30
0.0
 11
34.0
 21
5.000000000000008
 31
0.0
  0
LINE
  5
2D7A
330
35AD
100
AcDbEntity
  8
zBody
100
AcDbLine
 10
34.0
 20
10.0
 30
0.0
 11
34.0
 21
20.92121597166109
 31
0.0
  0
LINE
  5
2BAA
330
35AD
100
AcDbEntity
  8
body
100
AcDbLine
 10
-6.000000000000003
 20
-3.000000000000008
 30
0.0
 11
-3.25
 21
-3.000000000000004
 31
0.0
  0
LINE
  5
32FE
330
35AD
100
AcDbEntity
  8
body
100
AcDbLine
 10
54.0
 20
-3.000000000000008
 30
0.0
 11
56.75
 21
-3.000000000000004
 31
0.0
  0
LINE
  5
3338
330
35AD
100
AcDbEntity
  8
body
100
AcDbLine
 10
84.0
 20
-3.000000000000008
 30
0.0
 11
86.75
 21
-3.000000000000004
 31
0.0
  0
LINE
  5
34E9
330
35AD
100
AcDbEntity
  8
body
100
AcDbLine
 10
24.0
 20
-3.000000000000008
 30
0.0
 11
26.75
 21
-3.000000000000004
 31
0.0
  0
LINE
  5
316D
330
35AD
100
AcDbEntity
  8
zBody
100
AcDbLine
 10
74.0
 20
-3.000000000000008
 30
0.0
 11
76.75
 21
-3.000000000000004
 31
0.0
  0
LINE
  5
2D7B
330
35AD
100
AcDbEntity
  8
zBody
100
AcDbLine
 10
34.0
 20
-3.000000000000008
 30
0.0
 11
36.75
 21
-3.000000000000004
 31
0.0
  0
LINE
  5
312C
330
35AD
100
AcDbEntity
  8
body
100
AcDbLine
 10
-3.25
 20
-3.000000000000004
 30
0.0
 11
-3.25
 21
-9.500000000000004
 31
0.0
  0
LINE
  5
32FF
330
35AD
100
AcDbEntity
  8
body
100
AcDbLine
 10
56.75
 20
-3.000000000000004
 30
0.0
 11
56.75
 21
-9.500000000000004
 31
0.0
  0
LINE
  5
3339
330
35AD
100
AcDbEntity
  8
body
100
AcDbLine
 10
86.75
 20
-3.000000000000004
 30
0.0
 11
86.75
 21
-9.500000000000004
 31
0.0
  0
LINE
  5
34EA
330
35AD
100
AcDbEntity
  8
body
100
AcDbLine
 10
26.75
 20
-3.000000000000004
 30
0.0
 11
26.75
 21
-9.500000000000004
 31
0.0
  0
LINE
  5
316E
330
35AD
100
AcDbEntity
  8
zBody
100
AcDbLine
 10
76.75
 20
-3.000000000000004
 30
0.0
 11
76.75
 21
-9.500000000000004
 31
0.0
  0
LINE
  5
2D7C
330
35AD
100
AcDbEntity
  8
zBody
100
AcDbLine
 10
36.75
 20
-3.000000000000004
 30
0.0
 11
36.75
 21
-8.5
 31
0.0
  0
LINE
  5
2D7D
330
35AD
100
AcDbEntity
  8
zBody
100
AcDbLine
 10
44.75
 20
-10.5
 30
0.0
 11
44.75
 21
-17.0
 31
0.0
  0
LINE
  5
2BAD
330
35AD
100
AcDbEntity
  8
outline
100
AcDbLine
 10
-6.000000000000002
 20
-3.000000000000008
 30
0.0
 11
-6.000000000000003
 21
-3.000000000000008
 31
0.0
  0
LINE
  5
3300
330
35AD
100
AcDbEntity
  8
outline
100
AcDbLine
 10
54.0
 20
-3.000000000000008
 30
0.0
 11
54.0
 21
-3.000000000000008
 31
0.0
  0
LINE
  5
333A
330
35AD
100
AcDbEntity
  8
outline
100
AcDbLine
 10
84.0
 20
-3.000000000000008
 30
0.0
 11
84.0
 21
-3.000000000000008
 31
0.0
  0
LINE
  5
34EB
330
35AD
100
AcDbEntity
  8
outline
100
AcDbLine
 10
24.0
 20
-3.000000000000008
 30
0.0
 11
24.0
 21
-3.000000000000008
 31
0.0
  0
LINE
  5
312D
330
35AD
100
AcDbEntity
  8
body
100
AcDbLine
 10
-6.000000000000002
 20
-3.000000000000008
 30
0.0
 11
-6.000000000000003
 21
-3.000000000000008
 31
0.0
  0
LINE
  5
3301
330
35AD
100
AcDbEntity
  8
body
100
AcDbLine
 10
54.0
 20
-3.000000000000008
 30
0.0
 11
54.0
 21
-3.000000000000008
 31
0.0
  0
LINE
  5
333B
330
35AD
100
AcDbEntity
  8
body
100
AcDbLine
 10
84.0
 20
-3.000000000000008
 30
0.0
 11
84.0
 21
-3.000000000000008
 31
0.0
  0
LINE
  5
34EC
330
35AD
100
AcDbEntity
  8
body
100
AcDbLine
 10
24.0
 20
-3.000000000000008
 30
0.0
 11
24.0
 21
-3.000000000000008
 31
0.0
  0
LINE
  5
316F
330
35AD
100
AcDbEntity
  8
zOutline
100
AcDbLine
 10
74.0
 20
-3.000000000000008
 30
0.0
 11
74.0
 21
-3.000000000000008
 31
0.0
  0
LINE
  5
3170
330
35AD
100
AcDbEntity
  8
zBody
100
AcDbLine
 10
74.0
 20
-3.000000000000008
 30
0.0
 11
74.0
 21
-3.000000000000008
 31
0.0
  0
LINE
  5
2D7E
330
35AD
100
AcDbEntity
  8
zBody
100
AcDbLine
 10
34.0
 20
-9.499999999999998
 30
0.0
 11
34.0
 21
-3.000000000000008
 31
0.0
  0
LINE
  5
312E
330
35AD
100
AcDbEntity
  8
body
100
AcDbLine
 10
-2.75
 20
-3.000000000000004
 30
0.0
 11
-2.75
 21
-9.500000000000014
 31
0.0
  0
LINE
  5
3302
330
35AD
100
AcDbEntity
  8
body
100
AcDbLine
 10
57.25
 20
-3.000000000000004
 30
0.0
 11
57.25
 21
-9.500000000000014
 31
0.0
  0
LINE
  5
333C
330
35AD
100
AcDbEntity
  8
body
100
AcDbLine
 10
87.25
 20
-3.000000000000004
 30
0.0
 11
87.25
 21
-9.500000000000014
 31
0.0
  0
LINE
  5
34ED
330
35AD
100
AcDbEntity
  8
body
100
AcDbLine
 10
27.25
 20
-3.000000000000004
 30
0.0
 11
27.25
 21
-9.500000000000014
 31
0.0
  0
LINE
  5
3171
330
35AD
100
AcDbEntity
  8
zBody
100
AcDbLine
 10
77.25
 20
-3.000000000000004
 30
0.0
 11
77.25
 21
-9.500000000000014
 31
0.0
  0
LINE
  5
2D7F
330
35AD
100
AcDbEntity
  8
zBody
100
AcDbLine
 10
37.25
 20
-3.000000000000004
 30
0.0
 11
37.25
 21
-8.0
 31
0.0
  0
LINE
  5
2D80
330
35AD
100
AcDbEntity
  8
zBody
100
AcDbLine
 10
45.25
 20
-10.0
 30
0.0
 11
45.25
 21
-17.00000000000001
 31
0.0
  0
LINE
  5
3524
330
35AD
100
AcDbEntity
  8
body
100
AcDbLine
 10
5.0
 20
-2.000000000000004
 30
0.0
 11
5.0
 21
32.0
 31
0.0
  0
LINE
  5
3540
330
35AD
100
AcDbEntity
  8
body
100
AcDbLine
 10
95.0
 20
-2.000000000000004
 30
0.0
 11
95.0
 21
49.5
 31
0.0
  0
LINE
  5
3548
330
35AD
100
AcDbEntity
  8
body
100
AcDbLine
 10
65.0
 20
-2.000000000000004
 30
0.0
 11
65.0
 21
43.0
 31
0.0
  0
LINE
  5
3557
330
35AD
100
AcDbEntity
  8
body
100
AcDbLine
 10
35.0
 20
-2.000000000000004
 30
0.0
 11
35.0
 21
37.5
 31
0.0
  0
LINE
  5
3172
330
35AD
100
AcDbEntity
  8
zBody
100
AcDbLine
 10
85.0
 20
-2.000000000000004
 30
0.0
 11
85.0
 21
21.66969722017664
 31
0.0
  0
LINE
  5
2D81
330
35AD
100
AcDbEntity
  8
zBody
100
AcDbLine
 10
45.0
 20
-2.000000000000004
 30
0.0
 11
45.0
 21
21.66969722017664
 31
0.0
  0
LINE
  5
2BB0
330
35AD
100
AcDbEntity
  8
body
100
AcDbLine
 10
-2.75
 20
-3.000000000000004
 30
0.0
 11
4.0
 21
-3.000000000000004
 31
0.0
  0
LINE
  5
3304
330
35AD
100
AcDbEntity
  8
body
100
AcDbLine
 10
57.25
 20
-3.000000000000004
 30
0.0
 11
64.0
 21
-3.000000000000004
 31
0.0
  0
LINE
  5
333E
330
35AD
100
AcDbEntity
  8
body
100
AcDbLine
 10
87.25
 20
-3.000000000000004
 30
0.0
 11
94.0
 21
-3.000000000000004
 31
0.0
  0
LINE
  5
34EF
330
35AD
100
AcDbEntity
  8
body
100
AcDbLine
 10
27.25
 20
-3.000000000000004
 30
0.0
 11
34.0
 21
-3.000000000000004
 31
0.0
  0
LINE
  5
3173
330
35AD
100
AcDbEntity
  8
zBody
100
AcDbLine
 10
77.25
 20
-3.000000000000004
 30
0.0
 11
84.0
 21
-3.000000000000004
 31
0.0
  0
LINE
  5
2D82
330
35AD
100
AcDbEntity
  8
zBody
100
AcDbLine
 10
37.25
 20
-3.000000000000004
 30
0.0
 11
44.0
 21
-3.000000000000004
 31
0.0
  0
ARC
  5
2BB1
330
35AD
100
AcDbEntity
  8
body
100
AcDbCircle
 10
4.0
 20
-2.000000000000004
 30
0.0
 40
1.0
100
AcDbArc
 50
270.0
 51
0.0
  0
ARC
  5
3305
330
35AD
100
AcDbEntity
  8
body
100
AcDbCircle
 10
64.0
 20
-2.000000000000004
 30
0.0
 40
1.0
100
AcDbArc
 50
270.0
 51
0.0
  0
ARC
  5
333F
330
35AD
100
AcDbEntity
  8
body
100
AcDbCircle
 10
94.0
 20
-2.000000000000004
 30
0.0
 40
1.0
100
AcDbArc
 50
270.0
 51
0.0
  0
ARC
  5
34F0
330
35AD
100
AcDbEntity
  8
body
100
AcDbCircle
 10
34.0
 20
-2.000000000000004
 30
0.0
 40
1.0
100
AcDbArc
 50
270.0
 51
0.0
  0
ARC
  5
3174
330
35AD
100
AcDbEntity
  8
zBody
100
AcDbCircle
 10
84.0
 20
-2.000000000000004
 30
0.0
 40
1.0
100
AcDbArc
 50
270.0
 51
0.0
  0
ARC
  5
2D83
330
35AD
100
AcDbEntity
  8
zBody
100
AcDbCircle
 10
44.0
 20
-2.000000000000004
 30
0.0
 40
1.0
100
AcDbArc
 50
270.0
 51
0.0
  0
LINE
  5
3523
330
35AD
100
AcDbEntity
  8
body
100
AcDbLine
 10
-5.0
 20
32.0
 30
0.0
 11
-5.0
 21
4.999999999999998
 31
0.0
  0
LINE
  5
3543
330
35AD
100
AcDbEntity
  8
body
100
AcDbLine
 10
85.0
 20
49.49999999999999
 30
0.0
 11
85.0
 21
4.999999999999998
 31
0.0
  0
LINE
  5
354B
330
35AD
100
AcDbEntity
  8
body
100
AcDbLine
 10
55.0
 20
43.00000000000001
 30
0.0
 11
55.0
 21
4.999999999999998
 31
0.0
  0
LINE
  5
3555
330
35AD
100
AcDbEntity
  8
body
100
AcDbLine
 10
25.0
 20
37.5
 30
0.0
 11
25.0
 21
4.999999999999998
 31
0.0
  0
LINE
  5
3175
330
35AD
100
AcDbEntity
  8
zBody
100
AcDbLine
 10
75.0
 20
21.66969722017664
 30
0.0
 11
75.0
 21
4.999999999999998
 31
0.0
  0
LINE
  5
2D84
330
35AD
100
AcDbEntity
  8
zBody
100
AcDbLine
 10
35.0
 20
21.66969722017664
 30
0.0
 11
35.0
 21
4.999999999999998
 31
0.0
  0
LINE
  5
312F
330
35AD
100
AcDbEntity
  8
body
100
AcDbLine
 10
-1.500000000000001
 20
-9.500000000000014
 30
0.0
 11
-2.75
 21
-9.500000000000014
 31
0.0
  0
LINE
  5
3307
330
35AD
100
AcDbEntity
  8
body
100
AcDbLine
 10
58.5
 20
-9.500000000000014
 30
0.0
 11
57.25
 21
-9.500000000000014
 31
0.0
  0
LINE
  5
3341
330
35AD
100
AcDbEntity
  8
body
100
AcDbLine
 10
88.5
 20
-9.500000000000014
 30
0.0
 11
87.25
 21
-9.500000000000014
 31
0.0
  0
LINE
  5
34F2
330
35AD
100
AcDbEntity
  8
body
100
AcDbLine
 10
28.5
 20
-9.500000000000014
 30
0.0
 11
27.25
 21
-9.500000000000014
 31
0.0
  0
LINE
  5
3176
330
35AD
100
AcDbEntity
  8
zBody
100
AcDbLine
 10
78.5
 20
-9.500000000000014
 30
0.0
 11
77.25
 21
-9.500000000000014
 31
0.0
  0
LINE
  5
3130
330
35AD
100
AcDbEntity
  8
body
100
AcDbLine
 10
-3.25
 20
-9.500000000000004
 30
0.0
 11
-4.500000000000003
 21
-9.500000000000004
 31
0.0
  0
LINE
  5
3308
330
35AD
100
AcDbEntity
  8
body
100
AcDbLine
 10
56.75
 20
-9.500000000000004
 30
0.0
 11
55.5
 21
-9.500000000000004
 31
0.0
  0
LINE
  5
3342
330
35AD
100
AcDbEntity
  8
body
100
AcDbLine
 10
86.75
 20
-9.500000000000004
 30
0.0
 11
85.5
 21
-9.500000000000004
 31
0.0
  0
LINE
  5
34F3
330
35AD
100
AcDbEntity
  8
body
100
AcDbLine
 10
26.75
 20
-9.500000000000004
 30
0.0
 11
25.5
 21
-9.500000000000004
 31
0.0
  0
LINE
  5
3177
330
35AD
100
AcDbEntity
  8
zBody
100
AcDbLine
 10
76.75
 20
-9.500000000000004
 30
0.0
 11
75.5
 21
-9.500000000000004
 31
0.0
  0
LINE
  5
2D85
330
35AD
100
AcDbEntity
  8
zOutline
100
AcDbLine
 10
45.99999999999999
 20
-17.00000000000001
 30
0.0
 11
44.5
 21
-17.0
 31
0.0
  0
LINE
  5
2D86
330
35AD
100
AcDbEntity
  8
zBody
100
AcDbLine
 10
45.99999999999999
 20
-17.00000000000001
 30
0.0
 11
45.25
 21
-17.00000000000001
 31
0.0
  0
LINE
  5
2D87
330
35AD
100
AcDbEntity
  8
zBody
100
AcDbLine
 10
44.75
 20
-17.0
 30
0.0
 11
44.5
 21
-17.0
 31
0.0
  0
LINE
  5
3131
330
35AD
100
AcDbEntity
  8
body
100
AcDbLine
 10
-5.5
 20
-8.500000000000004
 30
0.0
 11
-5.5
 21
-4.5
 31
0.0
  0
LINE
  5
3309
330
35AD
100
AcDbEntity
  8
body
100
AcDbLine
 10
54.5
 20
-8.500000000000004
 30
0.0
 11
54.5
 21
-4.5
 31
0.0
  0
LINE
  5
3343
330
35AD
100
AcDbEntity
  8
body
100
AcDbLine
 10
84.5
 20
-8.500000000000004
 30
0.0
 11
84.5
 21
-4.5
 31
0.0
  0
LINE
  5
34F4
330
35AD
100
AcDbEntity
  8
body
100
AcDbLine
 10
24.5
 20
-8.500000000000004
 30
0.0
 11
24.5
 21
-4.5
 31
0.0
  0
LINE
  5
3132
330
35AD
100
AcDbEntity
  8
body
100
AcDbLine
 10
-0.4999999999999996
 20
-8.500000000000004
 30
0.0
 11
-0.4999999999999982
 21
-4.500000000000001
 31
0.0
  0
LINE
  5
330A
330
35AD
100
AcDbEntity
  8
body
100
AcDbLine
 10
59.5
 20
-8.500000000000004
 30
0.0
 11
59.5
 21
-4.500000000000001
 31
0.0
  0
LINE
  5
3344
330
35AD
100
AcDbEntity
  8
body
100
AcDbLine
 10
89.5
 20
-8.500000000000004
 30
0.0
 11
89.5
 21
-4.500000000000001
 31
0.0
  0
LINE
  5
34F5
330
35AD
100
AcDbEntity
  8
body
100
AcDbLine
 10
29.5
 20
-8.500000000000004
 30
0.0
 11
29.5
 21
-4.500000000000001
 31
0.0
  0
LINE
  5
3178
330
35AD
100
AcDbEntity
  8
zBody
100
AcDbLine
 10
74.5
 20
-8.500000000000004
 30
0.0
 11
74.5
 21
-4.5
 31
0.0
  0
LINE
  5
3179
330
35AD
100
AcDbEntity
  8
zBody
100
AcDbLine
 10
79.5
 20
-8.500000000000004
 30
0.0
 11
79.5
 21
-4.500000000000001
 31
0.0
  0
LINE
  5
2D88
330
35AD
100
AcDbEntity
  8
zOutline
100
AcDbLine
 10
43.5
 20
-16.0
 30
0.0
 11
43.5
 21
-11.5
 31
0.0
  0
LINE
  5
2D89
330
35AD
100
AcDbEntity
  8
zBody
100
AcDbLine
 10
43.5
 20
-16.0
 30
0.0
 11
43.5
 21
-11.5
 31
0.0
  0
LINE
  5
2D8A
330
35AD
100
AcDbEntity
  8
zBody
100
AcDbLine
 10
44.25
 20
-9.0
 30
0.0
 11
38.25
 21
-9.0
 31
0.0
  0
ARC
  5
2D8B
330
35AD
100
AcDbEntity
  8
zBody
100
AcDbCircle
 10
38.25
 20
-8.0
 30
0.0
 40
1.0
100
AcDbArc
 50
180.0
 51
270.0
  0
ARC
  5
2D8C
330
35AD
100
AcDbEntity
  8
zBody
100
AcDbCircle
 10
44.25
 20
-10.0
 30
0.0
 40
1.0
100
AcDbArc
 50
0.0
 51
90.0
1001
QCAD
1000
reversed:1
  0
LINE
  5
2D8D
330
35AD
100
AcDbEntity
  8
zBody
100
AcDbLine
 10
37.75
 20
-9.5
 30
0.0
 11
43.75
 21
-9.5
 31
0.0
  0
ARC
  5
2D8E
330
35AD
100
AcDbEntity
  8
zBody
100
AcDbCircle
 10
37.75
 20
-8.5
 30
0.0
 40
1.0
100
AcDbArc
 50
180.0
 51
270.0
  0
ARC
  5
2D8F
330
35AD
100
AcDbEntity
  8
zBody
100
AcDbCircle
 10
43.75
 20
-10.5
 30
0.0
 40
1.0
100
AcDbArc
 50
0.0
 51
89.99999999999994
1001
QCAD
1000
reversed:1
  0
LINE
  5
2D90
330
35AD
100
AcDbEntity
  8
zOutline
100
AcDbLine
 10
42.5
 20
-10.5
 30
0.0
 11
35.0
 21
-10.5
 31
0.0
  0
LINE
  5
2D91
330
35AD
100
AcDbEntity
  8
zBody
100
AcDbLine
 10
42.5
 20
-10.5
 30
0.0
 11
35.0
 21
-10.5
 31
0.0
  0
ARC
  5
2D92
330
35AD
100
AcDbEntity
  8
zOutline
100
AcDbCircle
 10
35.0
 20
-9.499999999999998
 30
0.0
 40
1.0
100
AcDbArc
 50
180.0
 51
270.0
1001
QCAD
1000
reversed:1
  0
ARC
  5
2D93
330
35AD
100
AcDbEntity
  8
zBody
100
AcDbCircle
 10
35.0
 20
-9.499999999999998
 30
0.0
 40
1.0
100
AcDbArc
 50
180.0
 51
270.0
1001
QCAD
1000
reversed:1
  0
ARC
  5
2D94
330
35AD
100
AcDbEntity
  8
zOutline
100
AcDbCircle
 10
42.5
 20
-11.5
 30
0.0
 40
1.0
100
AcDbArc
 50
0.0
 51
90.0
1001
QCAD
1000
reversed:1
  0
ARC
  5
2D95
330
35AD
100
AcDbEntity
  8
zBody
100
AcDbCircle
 10
42.5
 20
-11.5
 30
0.0
 40
1.0
100
AcDbArc
 50
0.0
 51
90.0
1001
QCAD
1000
reversed:1
  0
ARC
  5
3121
330
35AD
100
AcDbEntity
  8
outline
100
AcDbCircle
 10
-4.499999999999999
 20
-8.500000000000004
 30
0.0
 40
1.0
100
AcDbArc
 50
180.0
 51
269.9999999999998
  0
ARC
  5
330B
330
35AD
100
AcDbEntity
  8
outline
100
AcDbCircle
 10
55.5
 20
-8.500000000000004
 30
0.0
 40
1.0
100
AcDbArc
 50
180.0
 51
269.9999999999998
  0
ARC
  5
3345
330
35AD
100
AcDbEntity
  8
outline
100
AcDbCircle
 10
85.5
 20
-8.500000000000004
 30
0.0
 40
1.0
100
AcDbArc
 50
180.0
 51
269.9999999999998
  0
ARC
  5
34F6
330
35AD
100
AcDbEntity
  8
outline
100
AcDbCircle
 10
25.5
 20
-8.500000000000004
 30
0.0
 40
1.0
100
AcDbArc
 50
180.0
 51
269.9999999999998
  0
ARC
  5
3124
330
35AD
100
AcDbEntity
  8
outline
100
AcDbCircle
 10
-1.500000000000001
 20
-8.500000000000004
 30
0.0
 40
1.0
100
AcDbArc
 50
270.0000000000002
 51
0.0
1001
QCAD
1000
reversed:1
  0
ARC
  5
330C
330
35AD
100
AcDbEntity
  8
outline
100
AcDbCircle
 10
58.5
 20
-8.500000000000004
 30
0.0
 40
1.0
100
AcDbArc
 50
270.0000000000002
 51
0.0
1001
QCAD
1000
reversed:1
  0
ARC
  5
3346
330
35AD
100
AcDbEntity
  8
outline
100
AcDbCircle
 10
88.5
 20
-8.500000000000004
 30
0.0
 40
1.0
100
AcDbArc
 50
270.0000000000002
 51
0.0
1001
QCAD
1000
reversed:1
  0
ARC
  5
34F7
330
35AD
100
AcDbEntity
  8
outline
100
AcDbCircle
 10
28.5
 20
-8.500000000000004
 30
0.0
 40
1.0
100
AcDbArc
 50
270.0000000000002
 51
0.0
1001
QCAD
1000
reversed:1
  0
ARC
  5
3133
330
35AD
100
AcDbEntity
  8
body
100
AcDbCircle
 10
-4.499999999999999
 20
-8.500000000000004
 30
0.0
 40
1.0
100
AcDbArc
 50
180.0
 51
269.9999999999998
  0
ARC
  5
330D
330
35AD
100
AcDbEntity
  8
body
100
AcDbCircle
 10
55.5
 20
-8.500000000000004
 30
0.0
 40
1.0
100
AcDbArc
 50
180.0
 51
269.9999999999998
  0
ARC
  5
3347
330
35AD
100
AcDbEntity
  8
body
100
AcDbCircle
 10
85.5
 20
-8.500000000000004
 30
0.0
 40
1.0
100
AcDbArc
 50
180.0
 51
269.9999999999998
  0
ARC
  5
34F8
330
35AD
100
AcDbEntity
  8
body
100
AcDbCircle
 10
25.5
 20
-8.500000000000004
 30
0.0
 40
1.0
100
AcDbArc
 50
180.0
 51
269.9999999999998
  0
ARC
  5
3134
330
35AD
100
AcDbEntity
  8
body
100
AcDbCircle
 10
-1.500000000000001
 20
-8.500000000000004
 30
0.0
 40
1.0
100
AcDbArc
 50
270.0000000000002
 51
0.0
1001
QCAD
1000
reversed:1
  0
ARC
  5
330E
330
35AD
100
AcDbEntity
  8
body
100
AcDbCircle
 10
58.5
 20
-8.500000000000004
 30
0.0
 40
1.0
100
AcDbArc
 50
270.0000000000002
 51
0.0
1001
QCAD
1000
reversed:1
  0
ARC
  5
3348
330
35AD
100
AcDbEntity
  8
body
100
AcDbCircle
 10
88.5
 20
-8.500000000000004
 30
0.0
 40
1.0
100
AcDbArc
 50
270.0000000000002
 51
0.0
1001
QCAD
1000
reversed:1
  0
ARC
  5
34F9
330
35AD
100
AcDbEntity
  8
body
100
AcDbCircle
 10
28.5
 20
-8.500000000000004
 30
0.0
 40
1.0
100
AcDbArc
 50
270.0000000000002
 51
0.0
1001
QCAD
1000
reversed:1
  0
ARC
  5
317A
330
35AD
100
AcDbEntity
  8
zOutline
100
AcDbCircle
 10
75.5
 20
-8.500000000000004
 30
0.0
 40
1.0
100
AcDbArc
 50
180.0
 51
269.9999999999998
  0
ARC
  5
317B
330
35AD
100
AcDbEntity
  8
zOutline
100
AcDbCircle
 10
78.5
 20
-8.500000000000004
 30
0.0
 40
1.0
100
AcDbArc
 50
270.0000000000002
 51
0.0
1001
QCAD
1000
reversed:1
  0
ARC
  5
317C
330
35AD
100
AcDbEntity
  8
zBody
100
AcDbCircle
 10
75.5
 20
-8.500000000000004
 30
0.0
 40
1.0
100
AcDbArc
 50
180.0
 51
269.9999999999998
  0
ARC
  5
317D
330
35AD
100
AcDbEntity
  8
zBody
100
AcDbCircle
 10
78.5
 20
-8.500000000000004
 30
0.0
 40
1.0
100
AcDbArc
 50
270.0000000000002
 51
0.0
1001
QCAD
1000
reversed:1
  0
ARC
  5
2D96
330
35AD
100
AcDbEntity
  8
zOutline
100
AcDbCircle
 10
44.5
 20
-16.0
 30
0.0
 40
1.0
100
AcDbArc
 50
180.0
 51
269.9999999999998
  0
ARC
  5
2D97
330
35AD
100
AcDbEntity
  8
zBody
100
AcDbCircle
 10
44.5
 20
-16.0
 30
0.0
 40
1.0
100
AcDbArc
 50
180.0
 51
269.9999999999998
  0
CIRCLE
  5
3349
330
35AD
100
AcDbEntity
  8
outline
100
AcDbCircle
 10
98.5
 20
7.499999999999998
 30
0.0
 40
1.75
  0
CIRCLE
  5
355F
330
35AD
100
AcDbEntity
  8
outline
100
AcDbCircle
 10
81.5
 20
7.499999999999996
 30
0.0
 40
1.75
  0
CIRCLE
  5
3560
330
35AD
100
AcDbEntity
  8
outline
100
AcDbCircle
 10
68.5
 20
7.499999999999998
 30
0.0
 40
1.75
  0
CIRCLE
  5
3561
330
35AD
100
AcDbEntity
  8
outline
100
AcDbCircle
 10
51.5
 20
7.499999999999996
 30
0.0
 40
1.75
  0
CIRCLE
  5
3570
330
35AD
100
AcDbEntity
  8
outline
100
AcDbCircle
 10
38.5
 20
7.499999999999998
 30
0.0
 40
1.75
  0
CIRCLE
  5
3571
330
35AD
100
AcDbEntity
  8
outline
100
AcDbCircle
 10
21.5
 20
7.499999999999996
 30
0.0
 40
1.75
  0
CIRCLE
  5
3580
330
35AD
100
AcDbEntity
  8
outline
100
AcDbCircle
 10
8.5
 20
7.499999999999998
 30
0.0
 40
1.75
  0
CIRCLE
  5
3581
330
35AD
100
AcDbEntity
  8
outline
100
AcDbCircle
 10
-8.5
 20
7.499999999999996
 30
0.0
 40
1.75
  0
CIRCLE
  5
317E
330
35AD
100
AcDbEntity
  8
zOutline
100
AcDbCircle
 10
88.5
 20
7.499999999999998
 30
0.0
 40
1.5
  0
CIRCLE
  5
317F
330
35AD
100
AcDbEntity
  8
zOutline
100
AcDbCircle
 10
71.5
 20
7.500000000000002
 30
0.0
 40
1.5
  0
CIRCLE
  5
334B
330
35AD
100
AcDbEntity
  8
body
100
AcDbCircle
 10
98.5
 20
7.499999999999998
 30
0.0
 40
1.75
  0
CIRCLE
  5
3558
330
35AD
100
AcDbEntity
  8
body
100
AcDbCircle
 10
81.5
 20
7.499999999999996
 30
0.0
 40
1.75
  0
CIRCLE
  5
3562
330
35AD
100
AcDbEntity
  8
body
100
AcDbCircle
 10
68.5
 20
7.499999999999998
 30
0.0
 40
1.75
  0
CIRCLE
  5
3563
330
35AD
100
AcDbEntity
  8
body
100
AcDbCircle
 10
51.5
 20
7.499999999999996
 30
0.0
 40
1.75
  0
CIRCLE
  5
3572
330
35AD
100
AcDbEntity
  8
body
100
AcDbCircle
 10
38.5
 20
7.499999999999998
 30
0.0
 40
1.75
  0
CIRCLE
  5
3573
330
35AD
100
AcDbEntity
  8
body
100
AcDbCircle
 10
21.5
 20
7.499999999999996
 30
0.0
 40
1.75
  0
CIRCLE
  5
3582
330
35AD
100
AcDbEntity
  8
body
100
AcDbCircle
 10
8.5
 20
7.499999999999998
 30
0.0
 40
1.75
  0
CIRCLE
  5
3583
330
35AD
100
AcDbEntity
  8
body
100
AcDbCircle
 10
-8.5
 20
7.499999999999996
 30
0.0
 40
1.75
  0
CIRCLE
  5
3180
330
35AD
100
AcDbEntity
  8
zBody
100
AcDbCircle
 10
88.5
 20
7.499999999999998
 30
0.0
 40
1.5
  0
CIRCLE
  5
3181
330
35AD
100
AcDbEntity
  8
zBody
100
AcDbCircle
 10
71.5
 20
7.500000000000002
 30
0.0
 40
1.5
  0
CIRCLE
  5
2D98
330
35AD
100
AcDbEntity
  8
zOutline
100
AcDbCircle
 10
48.5
 20
7.499999999999998
 30
0.0
 40
1.5
  0
CIRCLE
  5
2D99
330
35AD
100
AcDbEntity
  8
zOutline
100
AcDbCircle
 10
31.5
 20
7.500000000000002
 30
0.0
 40
1.5
  0
CIRCLE
  5
2D9A
330
35AD
100
AcDbEntity
  8
zBody
100
AcDbCircle
 10
48.5
 20
7.499999999999998
 30
0.0
 40
1.5
  0
CIRCLE
  5
2D9B
330
35AD
100
AcDbEntity
  8
zBody
100
AcDbCircle
 10
31.5
 20
7.500000000000002
 30
0.0
 40
1.5
  0
LINE
  5
334D
330
35AD
100
AcDbEntity
  8
outline
100
AcDbLine
 10
96.0
 20
9.999999999999998
 30
0.0
 11
98.5
 21
10.5
 31
0.0
  0
LINE
  5
3559
330
35AD
100
AcDbEntity
  8
outline
100
AcDbLine
 10
84.0
 20
10.0
 30
0.0
 11
81.5
 21
10.49999999999998
 31
0.0
  0
LINE
  5
3564
330
35AD
100
AcDbEntity
  8
outline
100
AcDbLine
 10
66.0
 20
9.999999999999998
 30
0.0
 11
68.5
 21
10.5
 31
0.0
  0
LINE
  5
3565
330
35AD
100
AcDbEntity
  8
outline
100
AcDbLine
 10
54.0
 20
10.0
 30
0.0
 11
51.5
 21
10.49999999999998
 31
0.0
  0
LINE
  5
3574
330
35AD
100
AcDbEntity
  8
outline
100
AcDbLine
 10
36.0
 20
9.999999999999998
 30
0.0
 11
38.5
 21
10.5
 31
0.0
  0
LINE
  5
3575
330
35AD
100
AcDbEntity
  8
outline
100
AcDbLine
 10
24.0
 20
10.0
 30
0.0
 11
21.5
 21
10.49999999999998
 31
0.0
  0
LINE
  5
3584
330
35AD
100
AcDbEntity
  8
outline
100
AcDbLine
 10
6.0
 20
9.999999999999998
 30
0.0
 11
8.5
 21
10.5
 31
0.0
  0
LINE
  5
3585
330
35AD
100
AcDbEntity
  8
outline
100
AcDbLine
 10
-6.0
 20
10.0
 30
0.0
 11
-8.5
 21
10.49999999999998
 31
0.0
  0
LINE
  5
3182
330
35AD
100
AcDbEntity
  8
zOutline
100
AcDbLine
 10
86.0
 20
9.999999999999998
 30
0.0
 11
88.5
 21
9.999999999999998
 31
0.0
  0
LINE
  5
3183
330
35AD
100
AcDbEntity
  8
zOutline
100
AcDbLine
 10
74.0
 20
10.0
 30
0.0
 11
71.5
 21
10.0
 31
0.0
  0
LINE
  5
334F
330
35AD
100
AcDbEntity
  8
body
100
AcDbLine
 10
96.0
 20
9.999999999999998
 30
0.0
 11
98.5
 21
10.5
 31
0.0
  0
LINE
  5
355A
330
35AD
100
AcDbEntity
  8
body
100
AcDbLine
 10
84.0
 20
10.0
 30
0.0
 11
81.5
 21
10.49999999999998
 31
0.0
  0
LINE
  5
3566
330
35AD
100
AcDbEntity
  8
body
100
AcDbLine
 10
66.0
 20
9.999999999999998
 30
0.0
 11
68.5
 21
10.5
 31
0.0
  0
LINE
  5
3567
330
35AD
100
AcDbEntity
  8
body
100
AcDbLine
 10
54.0
 20
10.0
 30
0.0
 11
51.5
 21
10.49999999999998
 31
0.0
  0
LINE
  5
3576
330
35AD
100
AcDbEntity
  8
body
100
AcDbLine
 10
36.0
 20
9.999999999999998
 30
0.0
 11
38.5
 21
10.5
 31
0.0
  0
LINE
  5
3577
330
35AD
100
AcDbEntity
  8
body
100
AcDbLine
 10
24.0
 20
10.0
 30
0.0
 11
21.5
 21
10.49999999999998
 31
0.0
  0
LINE
  5
3586
330
35AD
100
AcDbEntity
  8
body
100
AcDbLine
 10
6.0
 20
9.999999999999998
 30
0.0
 11
8.5
 21
10.5
 31
0.0
  0
LINE
  5
3587
330
35AD
100
AcDbEntity
  8
body
100
AcDbLine
 10
-6.0
 20
10.0
 30
0.0
 11
-8.5
 21
10.49999999999998
 31
0.0
  0
LINE
  5
3184
330
35AD
100
AcDbEntity
  8
zBody
100
AcDbLine
 10
86.0
 20
9.999999999999998
 30
0.0
 11
88.5
 21
9.999999999999998
 31
0.0
  0
LINE
  5
3185
330
35AD
100
AcDbEntity
  8
zBody
100
AcDbLine
 10
74.0
 20
10.0
 30
0.0
 11
71.5
 21
10.0
 31
0.0
  0
LINE
  5
2D9C
330
35AD
100
AcDbEntity
  8
zOutline
100
AcDbLine
 10
46.0
 20
9.999999999999998
 30
0.0
 11
48.5
 21
9.999999999999998
 31
0.0
  0
LINE
  5
2D9D
330
35AD
100
AcDbEntity
  8
zOutline
100
AcDbLine
 10
34.0
 20
10.0
 30
0.0
 11
31.5
 21
10.0
 31
0.0
  0
LINE
  5
2D9E
330
35AD
100
AcDbEntity
  8
zBody
100
AcDbLine
 10
46.0
 20
9.999999999999998
 30
0.0
 11
48.5
 21
9.999999999999998
 31
0.0
  0
LINE
  5
2D9F
330
35AD
100
AcDbEntity
  8
zBody
100
AcDbLine
 10
34.0
 20
10.0
 30
0.0
 11
31.5
 21
10.0
 31
0.0
  0
LINE
  5
3351
330
35AD
100
AcDbEntity
  8
outline
100
AcDbLine
 10
98.5
 20
4.499999999999998
 30
0.0
 11
96.0
 21
4.999999999999998
 31
0.0
  0
LINE
  5
355B
330
35AD
100
AcDbEntity
  8
outline
100
AcDbLine
 10
81.5
 20
4.499999999999998
 30
0.0
 11
84.0
 21
5.0
 31
0.0
  0
LINE
  5
3568
330
35AD
100
AcDbEntity
  8
outline
100
AcDbLine
 10
68.5
 20
4.499999999999998
 30
0.0
 11
66.0
 21
4.999999999999998
 31
0.0
  0
LINE
  5
3569
330
35AD
100
AcDbEntity
  8
outline
100
AcDbLine
 10
51.5
 20
4.499999999999998
 30
0.0
 11
54.0
 21
5.0
 31
0.0
  0
LINE
  5
3578
330
35AD
100
AcDbEntity
  8
outline
100
AcDbLine
 10
38.5
 20
4.499999999999998
 30
0.0
 11
36.0
 21
4.999999999999998
 31
0.0
  0
LINE
  5
3579
330
35AD
100
AcDbEntity
  8
outline
100
AcDbLine
 10
21.5
 20
4.499999999999998
 30
0.0
 11
24.0
 21
5.0
 31
0.0
  0
LINE
  5
3588
330
35AD
100
AcDbEntity
  8
outline
100
AcDbLine
 10
8.5
 20
4.499999999999998
 30
0.0
 11
6.0
 21
4.999999999999998
 31
0.0
  0
LINE
  5
3589
330
35AD
100
AcDbEntity
  8
outline
100
AcDbLine
 10
-8.5
 20
4.499999999999998
 30
0.0
 11
-6.0
 21
5.0
 31
0.0
  0
LINE
  5
3186
330
35AD
100
AcDbEntity
  8
zOutline
100
AcDbLine
 10
88.5
 20
4.999999999999998
 30
0.0
 11
85.99999999999999
 21
4.999999999999998
 31
0.0
  0
LINE
  5
3187
330
35AD
100
AcDbEntity
  8
zOutline
100
AcDbLine
 10
71.5
 20
5.000000000000002
 30
0.0
 11
74.00000000000001
 21
5.000000000000008
 31
0.0
  0
LINE
  5
3353
330
35AD
100
AcDbEntity
  8
body
100
AcDbLine
 10
98.5
 20
4.499999999999998
 30
0.0
 11
96.0
 21
4.999999999999998
 31
0.0
  0
LINE
  5
355C
330
35AD
100
AcDbEntity
  8
body
100
AcDbLine
 10
81.5
 20
4.499999999999998
 30
0.0
 11
84.0
 21
5.0
 31
0.0
  0
LINE
  5
356A
330
35AD
100
AcDbEntity
  8
body
100
AcDbLine
 10
68.5
 20
4.499999999999998
 30
0.0
 11
66.0
 21
4.999999999999998
 31
0.0
  0
LINE
  5
356B
330
35AD
100
AcDbEntity
  8
body
100
AcDbLine
 10
51.5
 20
4.499999999999998
 30
0.0
 11
54.0
 21
5.0
 31
0.0
  0
LINE
  5
357A
330
35AD
100
AcDbEntity
  8
body
100
AcDbLine
 10
38.5
 20
4.499999999999998
 30
0.0
 11
36.0
 21
4.999999999999998
 31
0.0
  0
LINE
  5
357B
330
35AD
100
AcDbEntity
  8
body
100
AcDbLine
 10
21.5
 20
4.499999999999998
 30
0.0
 11
24.0
 21
5.0
 31
0.0
  0
LINE
  5
358A
330
35AD
100
AcDbEntity
  8
body
100
AcDbLine
 10
8.5
 20
4.499999999999998
 30
0.0
 11
6.0
 21
4.999999999999998
 31
0.0
  0
LINE
  5
358B
330
35AD
100
AcDbEntity
  8
body
100
AcDbLine
 10
-8.5
 20
4.499999999999998
 30
0.0
 11
-6.0
 21
5.0
 31
0.0
  0
LINE
  5
3188
330
35AD
100
AcDbEntity
  8
zBody
100
AcDbLine
 10
88.5
 20
4.999999999999998
 30
0.0
 11
85.99999999999999
 21
4.999999999999998
 31
0.0
  0
LINE
  5
3189
330
35AD
100
AcDbEntity
  8
zBody
100
AcDbLine
 10
71.5
 20
5.000000000000002
 30
0.0
 11
74.00000000000001
 21
5.000000000000008
 31
0.0
  0
LINE
  5
2DA0
330
35AD
100
AcDbEntity
  8
zOutline
100
AcDbLine
 10
48.5
 20
4.999999999999998
 30
0.0
 11
45.99999999999999
 21
4.999999999999998
 31
0.0
  0
LINE
  5
2DA1
330
35AD
100
AcDbEntity
  8
zOutline
100
AcDbLine
 10
31.5
 20
5.000000000000002
 30
0.0
 11
34.00000000000001
 21
5.000000000000008
 31
0.0
  0
LINE
  5
2DA2
330
35AD
100
AcDbEntity
  8
zBody
100
AcDbLine
 10
48.5
 20
4.999999999999998
 30
0.0
 11
45.99999999999999
 21
4.999999999999998
 31
0.0
  0
LINE
  5
2DA3
330
35AD
100
AcDbEntity
  8
zBody
100
AcDbLine
 10
31.5
 20
5.000000000000002
 30
0.0
 11
34.00000000000001
 21
5.000000000000008
 31
0.0
  0
ARC
  5
3355
330
35AD
100
AcDbEntity
  8
outline
100
AcDbCircle
 10
98.5
 20
7.499999999999998
 30
0.0
 40
3.0
100
AcDbArc
 50
270.0
 51
90.0
  0
ARC
  5
355D
330
35AD
100
AcDbEntity
  8
outline
100
AcDbCircle
 10
81.5
 20
7.499999999999996
 30
0.0
 40
3.0
100
AcDbArc
 50
89.99999999999999
 51
270.0
1001
QCAD
1000
reversed:1
  0
ARC
  5
356C
330
35AD
100
AcDbEntity
  8
outline
100
AcDbCircle
 10
68.5
 20
7.499999999999998
 30
0.0
 40
3.0
100
AcDbArc
 50
270.0
 51
90.0
  0
ARC
  5
356D
330
35AD
100
AcDbEntity
  8
outline
100
AcDbCircle
 10
51.5
 20
7.499999999999996
 30
0.0
 40
3.0
100
AcDbArc
 50
89.99999999999999
 51
270.0
1001
QCAD
1000
reversed:1
  0
ARC
  5
357C
330
35AD
100
AcDbEntity
  8
outline
100
AcDbCircle
 10
38.5
 20
7.499999999999998
 30
0.0
 40
3.0
100
AcDbArc
 50
270.0
 51
90.0
  0
ARC
  5
357D
330
35AD
100
AcDbEntity
  8
outline
100
AcDbCircle
 10
21.5
 20
7.499999999999996
 30
0.0
 40
3.0
100
AcDbArc
 50
89.99999999999999
 51
270.0
1001
QCAD
1000
reversed:1
  0
ARC
  5
358C
330
35AD
100
AcDbEntity
  8
outline
100
AcDbCircle
 10
8.5
 20
7.499999999999998
 30
0.0
 40
3.0
100
AcDbArc
 50
270.0
 51
90.0
  0
ARC
  5
358D
330
35AD
100
AcDbEntity
  8
outline
100
AcDbCircle
 10
-8.5
 20
7.499999999999996
 30
0.0
 40
3.0
100
AcDbArc
 50
89.99999999999999
 51
270.0
1001
QCAD
1000
reversed:1
  0
ARC
  5
318A
330
35AD
100
AcDbEntity
  8
zOutline
100
AcDbCircle
 10
88.5
 20
7.499999999999998
 30
0.0
 40
2.5
100
AcDbArc
 50
270.0
 51
90.0
  0
ARC
  5
318B
330
35AD
100
AcDbEntity
  8
zOutline
100
AcDbCircle
 10
71.5
 20
7.500000000000002
 30
0.0
 40
2.5
100
AcDbArc
 50
90.0
 51
270.0
1001
QCAD
1000
reversed:1
  0
ARC
  5
3357
330
35AD
100
AcDbEntity
  8
body
100
AcDbCircle
 10
98.5
 20
7.499999999999998
 30
0.0
 40
3.0
100
AcDbArc
 50
270.0
 51
90.0
  0
ARC
  5
355E
330
35AD
100
AcDbEntity
  8
body
100
AcDbCircle
 10
81.5
 20
7.499999999999996
 30
0.0
 40
3.0
100
AcDbArc
 50
89.99999999999999
 51
270.0
1001
QCAD
1000
reversed:1
  0
ARC
  5
356E
330
35AD
100
AcDbEntity
  8
body
100
AcDbCircle
 10
68.5
 20
7.499999999999998
 30
0.0
 40
3.0
100
AcDbArc
 50
270.0
 51
90.0
  0
ARC
  5
356F
330
35AD
100
AcDbEntity
  8
body
100
AcDbCircle
 10
51.5
 20
7.499999999999996
 30
0.0
 40
3.0
100
AcDbArc
 50
89.99999999999999
 51
270.0
1001
QCAD
1000
reversed:1
  0
ARC
  5
357E
330
35AD
100
AcDbEntity
  8
body
100
AcDbCircle
 10
38.5
 20
7.499999999999998
 30
0.0
 40
3.0
100
AcDbArc
 50
270.0
 51
90.0
  0
ARC
  5
357F
330
35AD
100
AcDbEntity
  8
body
100
AcDbCircle
 10
21.5
 20
7.499999999999996
 30
0.0
 40
3.0
100
AcDbArc
 50
89.99999999999999
 51
270.0
1001
QCAD
1000
reversed:1
  0
ARC
  5
358E
330
35AD
100
AcDbEntity
  8
body
100
AcDbCircle
 10
8.5
 20
7.499999999999998
 30
0.0
 40
3.0
100
AcDbArc
 50
270.0
 51
90.0
  0
ARC
  5
358F
330
35AD
100
AcDbEntity
  8
body
100
AcDbCircle
 10
-8.5
 20
7.499999999999996
 30
0.0
 40
3.0
100
AcDbArc
 50
89.99999999999999
 51
270.0
1001
QCAD
1000
reversed:1
  0
ARC
  5
318C
330
35AD
100
AcDbEntity
  8
zBody
100
AcDbCircle
 10
88.5
 20
7.499999999999998
 30
0.0
 40
2.5
100
AcDbArc
 50
270.0
 51
90.0
  0
ARC
  5
318D
330
35AD
100
AcDbEntity
  8
zBody
100
AcDbCircle
 10
71.5
 20
7.500000000000002
 30
0.0
 40
2.5
100
AcDbArc
 50
90.0
 51
270.0
1001
QCAD
1000
reversed:1
  0
ARC
  5
2DA4
330
35AD
100
AcDbEntity
  8
zOutline
100
AcDbCircle
 10
48.5
 20
7.499999999999998
 30
0.0
 40
2.5
100
AcDbArc
 50
270.0
 51
90.0
  0
ARC
  5
2DA5
330
35AD
100
AcDbEntity
  8
zOutline
100
AcDbCircle
 10
31.5
 20
7.500000000000002
 30
0.0
 40
2.5
100
AcDbArc
 50
90.0
 51
270.0
1001
QCAD
1000
reversed:1
  0
ARC
  5
2DA6
330
35AD
100
AcDbEntity
  8
zBody
100
AcDbCircle
 10
48.5
 20
7.499999999999998
 30
0.0
 40
2.5
100
AcDbArc
 50
270.0
 51
90.0
  0
ARC
  5
2DA7
330
35AD
100
AcDbEntity
  8
zBody
100
AcDbCircle
 10
31.5
 20
7.500000000000002
 30
0.0
 40
2.5
100
AcDbArc
 50
90.0
 51
270.0
1001
QCAD
1000
reversed:1
  0
ARC
  5
319E
330
35AD
100
AcDbEntity
  8
zBody
100
AcDbCircle
 10
80.0
 20
39.99999999999999
 30
0.0
 40
15.0
100
AcDbArc
 50
204.6912402655405
 51
245.3087597344593
  0
ARC
  5
319F
330
35AD
100
AcDbEntity
  8
zBody
100
AcDbCircle
 10
80.0
 20
39.99999999999999
 30
0.0
 40
15.0
100
AcDbArc
 50
24.6912402655406
 51
65.30875973445944
  0
ARC
  5
31A0
330
35AD
100
AcDbEntity
  8
zBody
100
AcDbCircle
 10
80.0
 20
39.99999999999999
 30
0.0
 40
15.0
100
AcDbArc
 50
118.8382170410065
 51
151.1617829589935
  0
ARC
  5
31A1
330
35AD
100
AcDbEntity
  8
zBody
100
AcDbCircle
 10
80.0
 20
39.99999999999999
 30
0.0
 40
15.0
100
AcDbArc
 50
298.8382170410065
 51
331.1617829589935
  0
ARC
  5
3369
330
35AD
100
AcDbEntity
  8
zBody
100
AcDbCircle
 10
0.0000000000000071
 20
-50.00000000000001
 30
0.0
 40
15.0
100
AcDbArc
 50
204.6912402655405
 51
245.3087597344593
  0
ARC
  5
3465
330
35AD
100
AcDbEntity
  8
zBody
100
AcDbCircle
 10
52.00000000000001
 20
-48.00000000000001
 30
0.0
 40
15.0
100
AcDbArc
 50
204.6912402655405
 51
245.3087597344593
  0
ARC
  5
336A
330
35AD
100
AcDbEntity
  8
zBody
100
AcDbCircle
 10
0.0000000000000071
 20
-50.00000000000001
 30
0.0
 40
15.0
100
AcDbArc
 50
24.6912402655406
 51
65.30875973445944
  0
ARC
  5
3466
330
35AD
100
AcDbEntity
  8
zBody
100
AcDbCircle
 10
48.00000000000001
 20
-52.00000000000001
 30
0.0
 40
15.0
100
AcDbArc
 50
24.6912402655406
 51
65.30875973445944
  0
ARC
  5
336B
330
35AD
100
AcDbEntity
  8
zBody
100
AcDbCircle
 10
0.0000000000000071
 20
-50.00000000000001
 30
0.0
 40
15.0
100
AcDbArc
 50
118.8382170410065
 51
151.1617829589935
  0
ARC
  5
3467
330
35AD
100
AcDbEntity
  8
zBody
100
AcDbCircle
 10
52.00000000000001
 20
-52.00000000000001
 30
0.0
 40
15.0
100
AcDbArc
 50
118.8382170410065
 51
151.1617829589935
  0
ARC
  5
336C
330
35AD
100
AcDbEntity
  8
zBody
100
AcDbCircle
 10
0.0000000000000071
 20
-50.00000000000001
 30
0.0
 40
15.0
100
AcDbArc
 50
298.8382170410065
 51
331.1617829589935
  0
ARC
  5
3468
330
35AD
100
AcDbEntity
  8
zBody
100
AcDbCircle
 10
48.00000000000001
 20
-49.00000000000001
 30
0.0
 40
15.0
100
AcDbArc
 50
298.8382170410065
 51
331.1617829589935
  0
ARC
  5
31A2
330
35AD
100
AcDbEntity
  8
zBody
100
AcDbCircle
 10
80.0
 20
39.99999999999999
 30
0.0
 40
14.0
100
AcDbArc
 50
204.5444278554702
 51
245.4555721445297
  0
ARC
  5
31A3
330
35AD
100
AcDbEntity
  8
zBody
100
AcDbCircle
 10
80.0
 20
39.99999999999999
 30
0.0
 40
14.0
100
AcDbArc
 50
24.5444278554703
 51
65.45557214452971
  0
ARC
  5
31A4
330
35AD
100
AcDbEntity
  8
zBody
100
AcDbCircle
 10
80.0
 20
39.99999999999999
 30
0.0
 40
14.0
100
AcDbArc
 50
118.7232733222929
 51
151.2767266777071
  0
ARC
  5
31A5
330
35AD
100
AcDbEntity
  8
zBody
100
AcDbCircle
 10
80.0
 20
39.99999999999999
 30
0.0
 40
14.0
100
AcDbArc
 50
298.7232733222929
 51
331.276726677707
  0
ARC
  5
336D
330
35AD
100
AcDbEntity
  8
zBody
100
AcDbCircle
 10
0.0000000000000071
 20
-50.00000000000001
 30
0.0
 40
14.0
100
AcDbArc
 50
204.5444278554702
 51
245.4555721445297
  0
ARC
  5
3469
330
35AD
100
AcDbEntity
  8
zBody
100
AcDbCircle
 10
52.00000000000001
 20
-48.00000000000001
 30
0.0
 40
14.0
100
AcDbArc
 50
204.5444278554702
 51
245.4555721445297
  0
ARC
  5
336E
330
35AD
100
AcDbEntity
  8
zBody
100
AcDbCircle
 10
0.0000000000000071
 20
-50.00000000000001
 30
0.0
 40
14.0
100
AcDbArc
 50
24.5444278554703
 51
65.45557214452971
  0
ARC
  5
346A
330
35AD
100
AcDbEntity
  8
zBody
100
AcDbCircle
 10
48.00000000000001
 20
-52.00000000000001
 30
0.0
 40
14.0
100
AcDbArc
 50
24.5444278554703
 51
65.45557214452971
  0
ARC
  5
336F
330
35AD
100
AcDbEntity
  8
zBody
100
AcDbCircle
 10
0.0000000000000071
 20
-50.00000000000001
 30
0.0
 40
14.0
100
AcDbArc
 50
118.7232733222929
 51
151.2767266777071
  0
ARC
  5
346B
330
35AD
100
AcDbEntity
  8
zBody
100
AcDbCircle
 10
52.00000000000001
 20
-52.00000000000001
 30
0.0
 40
14.0
100
AcDbArc
 50
118.7232733222929
 51
151.2767266777071
  0
ARC
  5
3370
330
35AD
100
AcDbEntity
  8
zBody
100
AcDbCircle
 10
0.0000000000000071
 20
-50.00000000000001
 30
0.0
 40
14.0
100
AcDbArc
 50
298.7232733222929
 51
331.276726677707
  0
ARC
  5
346C
330
35AD
100
AcDbEntity
  8
zBody
100
AcDbCircle
 10
48.00000000000001
 20
-49.00000000000001
 30
0.0
 40
14.0
100
AcDbArc
 50
298.7232733222929
 51
331.276726677707
  0
ARC
  5
31A6
330
35AD
100
AcDbEntity
  8
zBody
100
AcDbCircle
 10
80.0
 20
40.0
 30
0.0
 40
5.0
100
AcDbArc
 50
115.3769335251522
 51
244.6230664748478
  0
ARC
  5
31A7
330
35AD
100
AcDbEntity
  8
zBody
100
AcDbCircle
 10
80.0
 20
40.0
 30
0.0
 40
5.0
100
AcDbArc
 50
295.3769335251524
 51
64.62306647484749
  0
ARC
  5
3371
330
35AD
100
AcDbEntity
  8
zBody
100
AcDbCircle
 10
0.0000000000000071
 20
-50.0
 30
0.0
 40
5.0
100
AcDbArc
 50
115.3769335251522
 51
244.6230664748478
  0
ARC
  5
346D
330
35AD
100
AcDbEntity
  8
zBody
100
AcDbCircle
 10
50.00000000000001
 20
-50.0
 30
0.0
 40
5.0
100
AcDbArc
 50
115.3769335251522
 51
244.6230664748478
  0
ARC
  5
3372
330
35AD
100
AcDbEntity
  8
zBody
100
AcDbCircle
 10
0.0000000000000071
 20
-50.0
 30
0.0
 40
5.0
100
AcDbArc
 50
295.3769335251524
 51
64.62306647484749
  0
ARC
  5
346E
330
35AD
100
AcDbEntity
  8
zBody
100
AcDbCircle
 10
50.00000000000001
 20
-50.0
 30
0.0
 40
5.0
100
AcDbArc
 50
295.3769335251524
 51
64.62306647484749
  0
ARC
  5
31A8
330
35AD
100
AcDbEntity
  8
zBody
100
AcDbCircle
 10
80.0
 20
40.0
 30
0.0
 40
4.0
100
AcDbArc
 50
115.9892335838329
 51
244.010766416167
  0
ARC
  5
31A9
330
35AD
100
AcDbEntity
  8
zBody
100
AcDbCircle
 10
80.0
 20
40.0
 30
0.0
 40
4.0
100
AcDbArc
 50
295.9892335838331
 51
64.01076641616687
  0
ARC
  5
3373
330
35AD
100
AcDbEntity
  8
zBody
100
AcDbCircle
 10
0.0000000000000071
 20
-50.0
 30
0.0
 40
4.0
100
AcDbArc
 50
115.9892335838329
 51
244.010766416167
  0
ARC
  5
346F
330
35AD
100
AcDbEntity
  8
zBody
100
AcDbCircle
 10
50.00000000000001
 20
-50.0
 30
0.0
 40
4.0
100
AcDbArc
 50
115.9892335838329
 51
244.010766416167
  0
ARC
  5
3374
330
35AD
100
AcDbEntity
  8
zBody
100
AcDbCircle
 10
0.0000000000000071
 20
-50.0
 30
0.0
 40
4.0
100
AcDbArc
 50
295.9892335838331
 51
64.01076641616687
  0
ARC
  5
3470
330
35AD
100
AcDbEntity
  8
zBody
100
AcDbCircle
 10
50.00000000000001
 20
-50.0
 30
0.0
 40
4.0
100
AcDbArc
 50
295.9892335838331
 51
64.01076641616687
  0
LINE
  5
31AA
330
35AD
100
AcDbEntity
  8
zBody
100
AcDbLine
 10
78.5
 20
44.1109609582189
 30
0.0
 11
78.5
 21
44.00000000000001
 31
0.0
  0
LINE
  5
31AB
330
35AD
100
AcDbEntity
  8
zBody
100
AcDbLine
 10
81.5
 20
44.11096095821888
 30
0.0
 11
81.5
 21
43.99999999999999
 31
0.0
  0
LINE
  5
31AC
330
35AD
100
AcDbEntity
  8
zBody
100
AcDbLine
 10
81.5
 20
35.88903904178112
 30
0.0
 11
81.5
 21
36.00000000000001
 31
0.0
  0
LINE
  5
31AD
330
35AD
100
AcDbEntity
  8
zBody
100
AcDbLine
 10
78.5
 20
35.8890390417811
 30
0.0
 11
78.5
 21
35.99999999999999
 31
0.0
  0
LINE
  5
3375
330
35AD
100
AcDbEntity
  8
zBody
100
AcDbLine
 10
-1.499999999999986
 20
-45.8890390417811
 30
0.0
 11
-1.499999999999986
 21
-45.99999999999999
 31
0.0
  0
LINE
  5
3471
330
35AD
100
AcDbEntity
  8
zBody
100
AcDbLine
 10
48.50000000000001
 20
-45.8890390417811
 30
0.0
 11
48.50000000000001
 21
-45.99999999999999
 31
0.0
  0
LINE
  5
3376
330
35AD
100
AcDbEntity
  8
zBody
100
AcDbLine
 10
1.500000000000014
 20
-45.88903904178112
 30
0.0
 11
1.500000000000014
 21
-46.00000000000001
 31
0.0
  0
LINE
  5
3472
330
35AD
100
AcDbEntity
  8
zBody
100
AcDbLine
 10
51.50000000000001
 20
-45.88903904178112
 30
0.0
 11
51.50000000000001
 21
-46.00000000000001
 31
0.0
  0
LINE
  5
3377
330
35AD
100
AcDbEntity
  8
zBody
100
AcDbLine
 10
1.500000000000014
 20
-54.11096095821888
 30
0.0
 11
1.500000000000014
 21
-54.0
 31
0.0
  0
LINE
  5
3473
330
35AD
100
AcDbEntity
  8
zBody
100
AcDbLine
 10
51.50000000000001
 20
-54.11096095821888
 30
0.0
 11
51.50000000000001
 21
-54.0
 31
0.0
  0
LINE
  5
3378
330
35AD
100
AcDbEntity
  8
zBody
100
AcDbLine
 10
-1.499999999999986
 20
-54.1109609582189
 30
0.0
 11
-1.499999999999986
 21
-54.00000000000001
 31
0.0
  0
LINE
  5
3474
330
35AD
100
AcDbEntity
  8
zBody
100
AcDbLine
 10
48.50000000000001
 20
-54.1109609582189
 30
0.0
 11
48.50000000000001
 21
-54.00000000000001
 31
0.0
  0
ARC
  5
31AE
330
35AD
100
AcDbEntity
  8
zBody
100
AcDbCircle
 10
81.95000000000002
 20
44.11096095821888
 30
0.0
 40
0.45
100
AcDbArc
 50
64.62306647484718
 51
180.0
  0
ARC
  5
31AF
330
35AD
100
AcDbEntity
  8
zBody
100
AcDbCircle
 10
81.95000000000002
 20
35.88903904178112
 30
0.0
 40
0.45
100
AcDbArc
 50
180.0
 51
295.3769335251528
1001
QCAD
1000
reversed:1
  0
ARC
  5
3379
330
35AD
100
AcDbEntity
  8
zBody
100
AcDbCircle
 10
1.950000000000017
 20
-45.88903904178112
 30
0.0
 40
0.45
100
AcDbArc
 50
64.62306647484718
 51
180.0
  0
ARC
  5
3475
330
35AD
100
AcDbEntity
  8
zBody
100
AcDbCircle
 10
51.95000000000002
 20
-45.88903904178112
 30
0.0
 40
0.45
100
AcDbArc
 50
64.62306647484718
 51
180.0
  0
ARC
  5
337A
330
35AD
100
AcDbEntity
  8
zBody
100
AcDbCircle
 10
1.950000000000017
 20
-54.11096095821888
 30
0.0
 40
0.45
100
AcDbArc
 50
180.0
 51
295.3769335251528
1001
QCAD
1000
reversed:1
  0
ARC
  5
3476
330
35AD
100
AcDbEntity
  8
zBody
100
AcDbCircle
 10
51.95000000000002
 20
-54.11096095821888
 30
0.0
 40
0.45
100
AcDbArc
 50
180.0
 51
295.3769335251528
1001
QCAD
1000
reversed:1
  0
ARC
  5
31B0
330
35AD
100
AcDbEntity
  8
zBody
100
AcDbCircle
 10
81.95000000000002
 20
43.99999999999999
 30
0.0
 40
0.45
100
AcDbArc
 50
180.0
 51
244.0107664161667
1001
QCAD
1000
reversed:1
  0
ARC
  5
31B1
330
35AD
100
AcDbEntity
  8
zBody
100
AcDbCircle
 10
81.95000000000002
 20
36.00000000000001
 30
0.0
 40
0.45
100
AcDbArc
 50
115.9892335838334
 51
180.0
  0
ARC
  5
337B
330
35AD
100
AcDbEntity
  8
zBody
100
AcDbCircle
 10
1.950000000000017
 20
-46.00000000000001
 30
0.0
 40
0.45
100
AcDbArc
 50
180.0
 51
244.0107664161667
1001
QCAD
1000
reversed:1
  0
ARC
  5
3477
330
35AD
100
AcDbEntity
  8
zBody
100
AcDbCircle
 10
51.95000000000002
 20
-46.00000000000001
 30
0.0
 40
0.45
100
AcDbArc
 50
180.0
 51
244.0107664161667
1001
QCAD
1000
reversed:1
  0
ARC
  5
337C
330
35AD
100
AcDbEntity
  8
zBody
100
AcDbCircle
 10
1.950000000000017
 20
-54.0
 30
0.0
 40
0.45
100
AcDbArc
 50
115.9892335838334
 51
180.0
  0
ARC
  5
3478
330
35AD
100
AcDbEntity
  8
zBody
100
AcDbCircle
 10
51.95000000000002
 20
-54.0
 30
0.0
 40
0.45
100
AcDbArc
 50
115.9892335838334
 51
180.0
  0
ARC
  5
31B2
330
35AD
100
AcDbEntity
  8
zBody
100
AcDbCircle
 10
78.05000000000001
 20
44.00000000000001
 30
0.0
 40
0.45
100
AcDbArc
 50
295.9892335838331
 51
0.0
  0
ARC
  5
31B3
330
35AD
100
AcDbEntity
  8
zBody
100
AcDbCircle
 10
78.05000000000001
 20
35.99999999999999
 30
0.0
 40
0.45
100
AcDbArc
 50
0.0
 51
64.0107664161669
1001
QCAD
1000
reversed:1
  0
ARC
  5
337D
330
35AD
100
AcDbEntity
  8
zBody
100
AcDbCircle
 10
-1.949999999999989
 20
-45.99999999999999
 30
0.0
 40
0.45
100
AcDbArc
 50
295.9892335838331
 51
0.0
  0
ARC
  5
3479
330
35AD
100
AcDbEntity
  8
zBody
100
AcDbCircle
 10
48.05000000000001
 20
-45.99999999999999
 30
0.0
 40
0.45
100
AcDbArc
 50
295.9892335838331
 51
0.0
  0
ARC
  5
337E
330
35AD
100
AcDbEntity
  8
zBody
100
AcDbCircle
 10
-1.949999999999989
 20
-54.00000000000001
 30
0.0
 40
0.45
100
AcDbArc
 50
0.0
 51
64.0107664161669
1001
QCAD
1000
reversed:1
  0
ARC
  5
347A
330
35AD
100
AcDbEntity
  8
zBody
100
AcDbCircle
 10
48.05000000000001
 20
-54.00000000000001
 30
0.0
 40
0.45
100
AcDbArc
 50
0.0
 51
64.0107664161669
1001
QCAD
1000
reversed:1
  0
ARC
  5
31B4
330
35AD
100
AcDbEntity
  8
zBody
100
AcDbCircle
 10
78.05000000000001
 20
44.1109609582189
 30
0.0
 40
0.45
100
AcDbArc
 50
0.0
 51
115.376933525152
1001
QCAD
1000
reversed:1
  0
ARC
  5
31B5
330
35AD
100
AcDbEntity
  8
zBody
100
AcDbCircle
 10
78.05000000000001
 20
35.8890390417811
 30
0.0
 40
0.45
100
AcDbArc
 50
244.623066474848
 51
0.0
  0
ARC
  5
337F
330
35AD
100
AcDbEntity
  8
zBody
100
AcDbCircle
 10
-1.949999999999989
 20
-45.8890390417811
 30
0.0
 40
0.45
100
AcDbArc
 50
0.0
 51
115.376933525152
1001
QCAD
1000
reversed:1
  0
ARC
  5
347B
330
35AD
100
AcDbEntity
  8
zBody
100
AcDbCircle
 10
48.05000000000001
 20
-45.8890390417811
 30
0.0
 40
0.45
100
AcDbArc
 50
0.0
 51
115.376933525152
1001
QCAD
1000
reversed:1
  0
ARC
  5
3380
330
35AD
100
AcDbEntity
  8
zBody
100
AcDbCircle
 10
-1.949999999999989
 20
-54.11096095821891
 30
0.0
 40
0.45
100
AcDbArc
 50
244.623066474848
 51
0.0
  0
ARC
  5
347C
330
35AD
100
AcDbEntity
  8
zBody
100
AcDbCircle
 10
48.05000000000001
 20
-54.11096095821891
 30
0.0
 40
0.45
100
AcDbArc
 50
244.623066474848
 51
0.0
  0
LINE
  5
31B6
330
35AD
100
AcDbEntity
  8
zBody
100
AcDbLine
 10
74.3156866468091
 20
26.53751205375709
 30
0.0
 11
74.24025317006286
 21
26.46207857701083
 31
0.0
  0
LINE
  5
31B7
330
35AD
100
AcDbEntity
  8
zBody
100
AcDbLine
 10
66.5375120537571
 20
34.31568664680911
 30
0.0
 11
66.46207857701083
 21
34.24025317006286
 31
0.0
  0
LINE
  5
31B8
330
35AD
100
AcDbEntity
  8
zBody
100
AcDbLine
 10
85.68431335319087
 20
53.46248794624291
 30
0.0
 11
85.75974682993714
 21
53.53792142298916
 31
0.0
  0
LINE
  5
31B9
330
35AD
100
AcDbEntity
  8
zBody
100
AcDbLine
 10
93.46248794624293
 20
45.68431335319089
 30
0.0
 11
93.53792142298917
 21
45.75974682993714
 31
0.0
  0
LINE
  5
31BA
330
35AD
100
AcDbEntity
  8
zBody
100
AcDbLine
 10
73.37382064714808
 20
52.99014038353084
 30
0.0
 11
73.3001790601391
 21
53.06378197053982
 31
0.0
  0
LINE
  5
31BB
330
35AD
100
AcDbEntity
  8
zBody
100
AcDbLine
 10
86.6998209398609
 20
26.93621802946016
 30
0.0
 11
86.62617935285192
 21
27.00985961646914
 31
0.0
  0
LINE
  5
31BC
330
35AD
100
AcDbEntity
  8
zBody
100
AcDbLine
 10
93.06378197053982
 20
33.30017906013908
 30
0.0
 11
92.99014038353084
 21
33.37382064714807
 31
0.0
  0
LINE
  5
31BD
330
35AD
100
AcDbEntity
  8
zBody
100
AcDbLine
 10
67.00985961646916
 20
46.62617935285191
 30
0.0
 11
66.93621802946018
 21
46.6998209398609
 31
0.0
  0
LINE
  5
3381
330
35AD
100
AcDbEntity
  8
zBody
100
AcDbLine
 10
-5.684313353190895
 20
-63.46248794624291
 30
0.0
 11
-5.75974682993715
 21
-63.53792142298917
 31
0.0
  0
LINE
  5
347D
330
35AD
100
AcDbEntity
  8
zBody
100
AcDbLine
 10
46.31568664680911
 20
-61.46248794624291
 30
0.0
 11
46.24025317006285
 21
-61.53792142298917
 31
0.0
  0
LINE
  5
3382
330
35AD
100
AcDbEntity
  8
zBody
100
AcDbLine
 10
-13.46248794624291
 20
-55.68431335319089
 30
0.0
 11
-13.53792142298916
 21
-55.75974682993714
 31
0.0
  0
LINE
  5
347E
330
35AD
100
AcDbEntity
  8
zBody
100
AcDbLine
 10
38.53751205375709
 20
-53.68431335319089
 30
0.0
 11
38.46207857701084
 21
-53.75974682993714
 31
0.0
  0
LINE
  5
3383
330
35AD
100
AcDbEntity
  8
zBody
100
AcDbLine
 10
5.68431335319088
 20
-36.53751205375709
 30
0.0
 11
5.759746829937136
 21
-36.46207857701084
 31
0.0
  0
LINE
  5
347F
330
35AD
100
AcDbEntity
  8
zBody
100
AcDbLine
 10
53.68431335319088
 20
-38.53751205375709
 30
0.0
 11
53.75974682993714
 21
-38.46207857701084
 31
0.0
  0
LINE
  5
3384
330
35AD
100
AcDbEntity
  8
zBody
100
AcDbLine
 10
13.46248794624292
 20
-44.31568664680911
 30
0.0
 11
13.53792142298916
 21
-44.24025317006286
 31
0.0
  0
LINE
  5
3480
330
35AD
100
AcDbEntity
  8
zBody
100
AcDbLine
 10
61.46248794624292
 20
-46.31568664680911
 30
0.0
 11
61.53792142298916
 21
-46.24025317006286
 31
0.0
  0
LINE
  5
3385
330
35AD
100
AcDbEntity
  8
zBody
100
AcDbLine
 10
-6.626179352851914
 20
-37.00985961646916
 30
0.0
 11
-6.699820939860892
 21
-36.93621802946018
 31
0.0
  0
LINE
  5
3481
330
35AD
100
AcDbEntity
  8
zBody
100
AcDbLine
 10
45.37382064714809
 20
-39.00985961646916
 30
0.0
 11
45.30017906013911
 21
-38.93621802946018
 31
0.0
  0
LINE
  5
3386
330
35AD
100
AcDbEntity
  8
zBody
100
AcDbLine
 10
6.699820939860906
 20
-63.06378197053984
 30
0.0
 11
6.626179352851928
 21
-62.99014038353086
 31
0.0
  0
LINE
  5
3482
330
35AD
100
AcDbEntity
  8
zBody
100
AcDbLine
 10
54.69982093986091
 20
-62.06378197053984
 30
0.0
 11
54.62617935285193
 21
-61.99014038353086
 31
0.0
  0
LINE
  5
3387
330
35AD
100
AcDbEntity
  8
zBody
100
AcDbLine
 10
13.06378197053983
 20
-56.69982093986092
 30
0.0
 11
12.99014038353085
 21
-56.62617935285193
 31
0.0
  0
LINE
  5
3483
330
35AD
100
AcDbEntity
  8
zBody
100
AcDbLine
 10
61.06378197053983
 20
-55.69982093986092
 30
0.0
 11
60.99014038353085
 21
-55.62617935285193
 31
0.0
  0
LINE
  5
3388
330
35AD
100
AcDbEntity
  8
zBody
100
AcDbLine
 10
-12.99014038353084
 20
-43.37382064714809
 30
0.0
 11
-13.06378197053981
 21
-43.3001790601391
 31
0.0
  0
LINE
  5
3484
330
35AD
100
AcDbEntity
  8
zBody
100
AcDbLine
 10
39.00985961646916
 20
-45.37382064714809
 30
0.0
 11
38.93621802946019
 21
-45.3001790601391
 31
0.0
  0
ARC
  5
31BE
330
35AD
100
AcDbEntity
  8
zBody
100
AcDbCircle
 10
66.85571010529102
 20
33.99748859527517
 30
0.0
 40
0.45
100
AcDbArc
 50
24.5444278554702
 51
135.0
1001
QCAD
1000
reversed:1
  0
ARC
  5
31BF
330
35AD
100
AcDbEntity
  8
zBody
100
AcDbCircle
 10
86.00251140472483
 20
53.14428989470896
 30
0.0
 40
0.45
100
AcDbArc
 50
135.0
 51
245.4555721445298
  0
ARC
  5
3389
330
35AD
100
AcDbEntity
  8
zBody
100
AcDbCircle
 10
-13.14428989470897
 20
-56.00251140472483
 30
0.0
 40
0.45
100
AcDbArc
 50
24.5444278554702
 51
135.0
1001
QCAD
1000
reversed:1
  0
ARC
  5
3485
330
35AD
100
AcDbEntity
  8
zBody
100
AcDbCircle
 10
38.85571010529103
 20
-54.00251140472483
 30
0.0
 40
0.45
100
AcDbArc
 50
24.5444278554702
 51
135.0
1001
QCAD
1000
reversed:1
  0
ARC
  5
338A
330
35AD
100
AcDbEntity
  8
zBody
100
AcDbCircle
 10
6.002511404724835
 20
-36.85571010529104
 30
0.0
 40
0.45
100
AcDbArc
 50
135.0
 51
245.4555721445298
  0
ARC
  5
3486
330
35AD
100
AcDbEntity
  8
zBody
100
AcDbCircle
 10
54.00251140472484
 20
-38.85571010529104
 30
0.0
 40
0.45
100
AcDbArc
 50
135.0
 51
245.4555721445298
  0
ARC
  5
31C0
330
35AD
100
AcDbEntity
  8
zBody
100
AcDbCircle
 10
66.78027662854478
 20
33.92205511852892
 30
0.0
 40
0.45
100
AcDbArc
 50
135.0
 51
204.6912402655404
1001
QCAD
1000
reversed:1
  0
ARC
  5
31C1
330
35AD
100
AcDbEntity
  8
zBody
100
AcDbCircle
 10
86.0779448814711
 20
53.21972337145522
 30
0.0
 40
0.45
100
AcDbArc
 50
65.30875973445956
 51
135.0
  0
ARC
  5
338B
330
35AD
100
AcDbEntity
  8
zBody
100
AcDbCircle
 10
-13.21972337145522
 20
-56.07794488147108
 30
0.0
 40
0.45
100
AcDbArc
 50
135.0
 51
204.6912402655404
1001
QCAD
1000
reversed:1
  0
ARC
  5
3487
330
35AD
100
AcDbEntity
  8
zBody
100
AcDbCircle
 10
38.78027662854478
 20
-54.07794488147108
 30
0.0
 40
0.45
100
AcDbArc
 50
135.0
 51
204.6912402655404
1001
QCAD
1000
reversed:1
  0
ARC
  5
338C
330
35AD
100
AcDbEntity
  8
zBody
100
AcDbCircle
 10
6.07794488147109
 20
-36.78027662854478
 30
0.0
 40
0.45
100
AcDbArc
 50
65.30875973445956
 51
135.0
  0
ARC
  5
3488
330
35AD
100
AcDbEntity
  8
zBody
100
AcDbCircle
 10
54.07794488147109
 20
-38.78027662854478
 30
0.0
 40
0.45
100
AcDbArc
 50
65.30875973445956
 51
135.0
  0
ARC
  5
31C2
330
35AD
100
AcDbEntity
  8
zBody
100
AcDbCircle
 10
73.9220551185289
 20
26.78027662854478
 30
0.0
 40
0.45
100
AcDbArc
 50
245.3087597344593
 51
315.0
1001
QCAD
1000
reversed:1
  0
ARC
  5
31C3
330
35AD
100
AcDbEntity
  8
zBody
100
AcDbCircle
 10
93.21972337145522
 20
46.07794488147108
 30
0.0
 40
0.45
100
AcDbArc
 50
315.0
 51
24.6912402655407
  0
ARC
  5
338D
330
35AD
100
AcDbEntity
  8
zBody
100
AcDbCircle
 10
-6.077944881471105
 20
-63.21972337145522
 30
0.0
 40
0.45
100
AcDbArc
 50
245.3087597344593
 51
315.0
1001
QCAD
1000
reversed:1
  0
ARC
  5
3489
330
35AD
100
AcDbEntity
  8
zBody
100
AcDbCircle
 10
45.9220551185289
 20
-61.21972337145522
 30
0.0
 40
0.45
100
AcDbArc
 50
245.3087597344593
 51
315.0
1001
QCAD
1000
reversed:1
  0
ARC
  5
338E
330
35AD
100
AcDbEntity
  8
zBody
100
AcDbCircle
 10
13.21972337145522
 20
-43.92205511852892
 30
0.0
 40
0.45
100
AcDbArc
 50
315.0
 51
24.6912402655407
  0
ARC
  5
348A
330
35AD
100
AcDbEntity
  8
zBody
100
AcDbCircle
 10
61.21972337145522
 20
-45.92205511852892
 30
0.0
 40
0.45
100
AcDbArc
 50
315.0
 51
24.6912402655407
  0
ARC
  5
31C4
330
35AD
100
AcDbEntity
  8
zBody
100
AcDbCircle
 10
73.99748859527517
 20
26.85571010529103
 30
0.0
 40
0.45
100
AcDbArc
 50
315.0
 51
65.45557214452968
1001
QCAD
1000
reversed:1
  0
ARC
  5
31C5
330
35AD
100
AcDbEntity
  8
zBody
100
AcDbCircle
 10
93.144289894709
 20
46.00251140472483
 30
0.0
 40
0.45
100
AcDbArc
 50
204.5444278554703
 51
315.0
  0
ARC
  5
338F
330
35AD
100
AcDbEntity
  8
zBody
100
AcDbCircle
 10
-6.002511404724835
 20
-63.14428989470897
 30
0.0
 40
0.45
100
AcDbArc
 50
315.0
 51
65.45557214452968
1001
QCAD
1000
reversed:1
  0
ARC
  5
348B
330
35AD
100
AcDbEntity
  8
zBody
100
AcDbCircle
 10
45.99748859527516
 20
-61.14428989470897
 30
0.0
 40
0.45
100
AcDbArc
 50
315.0
 51
65.45557214452968
1001
QCAD
1000
reversed:1
  0
ARC
  5
3390
330
35AD
100
AcDbEntity
  8
zBody
100
AcDbCircle
 10
13.14428989470898
 20
-43.99748859527516
 30
0.0
 40
0.45
100
AcDbArc
 50
204.5444278554703
 51
315.0
  0
ARC
  5
348C
330
35AD
100
AcDbEntity
  8
zBody
100
AcDbCircle
 10
61.14428989470898
 20
-45.99748859527516
 30
0.0
 40
0.45
100
AcDbArc
 50
204.5444278554703
 51
315.0
  0
ARC
  5
31C6
330
35AD
100
AcDbEntity
  8
zBody
100
AcDbCircle
 10
67.32805766800311
 20
46.94437740438586
 30
0.0
 40
0.45
100
AcDbArc
 50
225.0
 51
331.2767266777067
1001
QCAD
1000
reversed:1
  0
ARC
  5
3391
330
35AD
100
AcDbEntity
  8
zBody
100
AcDbCircle
 10
-12.67194233199688
 20
-43.05562259561414
 30
0.0
 40
0.45
100
AcDbArc
 50
225.0
 51
331.2767266777067
1001
QCAD
1000
reversed:1
  0
ARC
  5
348D
330
35AD
100
AcDbEntity
  8
zBody
100
AcDbCircle
 10
39.32805766800312
 20
-45.05562259561414
 30
0.0
 40
0.45
100
AcDbArc
 50
225.0
 51
331.2767266777067
1001
QCAD
1000
reversed:1
  0
ARC
  5
31C7
330
35AD
100
AcDbEntity
  8
zBody
100
AcDbCircle
 10
67.25441608099413
 20
47.01801899139485
 30
0.0
 40
0.45
100
AcDbArc
 50
151.1617829589934
 51
225.0
1001
QCAD
1000
reversed:1
  0
ARC
  5
3392
330
35AD
100
AcDbEntity
  8
zBody
100
AcDbCircle
 10
-12.74558391900587
 20
-42.98198100860515
 30
0.0
 40
0.45
100
AcDbArc
 50
151.1617829589934
 51
225.0
1001
QCAD
1000
reversed:1
  0
ARC
  5
348E
330
35AD
100
AcDbEntity
  8
zBody
100
AcDbCircle
 10
39.25441608099413
 20
-44.98198100860515
 30
0.0
 40
0.45
100
AcDbArc
 50
151.1617829589934
 51
225.0
1001
QCAD
1000
reversed:1
  0
ARC
  5
31C8
330
35AD
100
AcDbEntity
  8
zBody
100
AcDbCircle
 10
73.05562259561412
 20
52.67194233199689
 30
0.0
 40
0.45
100
AcDbArc
 50
298.7232733222927
 51
45.0
  0
ARC
  5
3393
330
35AD
100
AcDbEntity
  8
zBody
100
AcDbCircle
 10
-6.944377404385868
 20
-37.32805766800311
 30
0.0
 40
0.45
100
AcDbArc
 50
298.7232733222927
 51
45.0
  0
ARC
  5
348F
330
35AD
100
AcDbEntity
  8
zBody
100
AcDbCircle
 10
45.05562259561413
 20
-39.32805766800311
 30
0.0
 40
0.45
100
AcDbArc
 50
298.7232733222927
 51
45.0
  0
ARC
  5
31C9
330
35AD
100
AcDbEntity
  8
zBody
100
AcDbCircle
 10
72.98198100860515
 20
52.74558391900587
 30
0.0
 40
0.45
100
AcDbArc
 50
45.0
 51
118.8382170410066
1001
QCAD
1000
reversed:1
  0
ARC
  5
3394
330
35AD
100
AcDbEntity
  8
zBody
100
AcDbCircle
 10
-7.018018991394847
 20
-37.25441608099413
 30
0.0
 40
0.45
100
AcDbArc
 50
45.0
 51
118.8382170410066
1001
QCAD
1000
reversed:1
  0
ARC
  5
3490
330
35AD
100
AcDbEntity
  8
zBody
100
AcDbCircle
 10
44.98198100860515
 20
-39.25441608099413
 30
0.0
 40
0.45
100
AcDbArc
 50
45.0
 51
118.8382170410066
1001
QCAD
1000
reversed:1
  0
ARC
  5
31CA
330
35AD
100
AcDbEntity
  8
zBody
100
AcDbCircle
 10
86.94437740438588
 20
27.32805766800309
 30
0.0
 40
0.45
100
AcDbArc
 50
118.7232733222927
 51
225.0
  0
ARC
  5
3395
330
35AD
100
AcDbEntity
  8
zBody
100
AcDbCircle
 10
6.944377404385868
 20
-62.67194233199691
 30
0.0
 40
0.45
100
AcDbArc
 50
118.7232733222927
 51
225.0
  0
ARC
  5
3491
330
35AD
100
AcDbEntity
  8
zBody
100
AcDbCircle
 10
54.94437740438587
 20
-61.67194233199691
 30
0.0
 40
0.45
100
AcDbArc
 50
118.7232733222927
 51
225.0
  0
ARC
  5
31CB
330
35AD
100
AcDbEntity
  8
zBody
100
AcDbCircle
 10
87.01801899139485
 20
27.25441608099411
 30
0.0
 40
0.45
100
AcDbArc
 50
225.0
 51
298.8382170410066
1001
QCAD
1000
reversed:1
  0
ARC
  5
3396
330
35AD
100
AcDbEntity
  8
zBody
100
AcDbCircle
 10
7.018018991394861
 20
-62.7455839190059
 30
0.0
 40
0.45
100
AcDbArc
 50
225.0
 51
298.8382170410066
1001
QCAD
1000
reversed:1
  0
ARC
  5
3492
330
35AD
100
AcDbEntity
  8
zBody
100
AcDbCircle
 10
55.01801899139486
 20
-61.7455839190059
 30
0.0
 40
0.45
100
AcDbArc
 50
225.0
 51
298.8382170410066
1001
QCAD
1000
reversed:1
  0
ARC
  5
31CC
330
35AD
100
AcDbEntity
  8
zBody
100
AcDbCircle
 10
92.67194233199689
 20
33.05562259561412
 30
0.0
 40
0.45
100
AcDbArc
 50
45.0
 51
151.2767266777074
1001
QCAD
1000
reversed:1
  0
ARC
  5
3397
330
35AD
100
AcDbEntity
  8
zBody
100
AcDbCircle
 10
12.6719423319969
 20
-56.94437740438588
 30
0.0
 40
0.45
100
AcDbArc
 50
45.0
 51
151.2767266777074
1001
QCAD
1000
reversed:1
  0
ARC
  5
3493
330
35AD
100
AcDbEntity
  8
zBody
100
AcDbCircle
 10
60.6719423319969
 20
-55.94437740438588
 30
0.0
 40
0.45
100
AcDbArc
 50
45.0
 51
151.2767266777074
1001
QCAD
1000
reversed:1
  0
ARC
  5
31CD
330
35AD
100
AcDbEntity
  8
zBody
100
AcDbCircle
 10
92.74558391900587
 20
32.98198100860514
 30
0.0
 40
0.45
100
AcDbArc
 50
331.1617829589933
 51
45.0
  0
ARC
  5
3398
330
35AD
100
AcDbEntity
  8
zBody
100
AcDbCircle
 10
12.74558391900587
 20
-57.01801899139486
 30
0.0
 40
0.45
100
AcDbArc
 50
331.1617829589933
 51
45.0
  0
ARC
  5
3494
330
35AD
100
AcDbEntity
  8
zBody
100
AcDbCircle
 10
60.74558391900587
 20
-56.01801899139486
 30
0.0
 40
0.45
100
AcDbArc
 50
331.1617829589933
 51
45.0
  0
LINE
  5
3135
330
35AD
100
AcDbEntity
  8
body
100
AcDbLine
 10
-6.000000000000002
 20
-3.000000000000008
 30
0.0
 11
-6.0
 21
-4.0
 31
0.0
  0
LINE
  5
331F
330
35AD
100
AcDbEntity
  8
body
100
AcDbLine
 10
54.0
 20
-3.000000000000008
 30
0.0
 11
54.0
 21
-4.0
 31
0.0
  0
LINE
  5
3359
330
35AD
100
AcDbEntity
  8
body
100
AcDbLine
 10
84.0
 20
-3.000000000000008
 30
0.0
 11
84.0
 21
-4.0
 31
0.0
  0
LINE
  5
350A
330
35AD
100
AcDbEntity
  8
body
100
AcDbLine
 10
24.0
 20
-3.000000000000008
 30
0.0
 11
24.0
 21
-4.0
 31
0.0
  0
LINE
  5
318E
330
35AD
100
AcDbEntity
  8
zBody
100
AcDbLine
 10
74.0
 20
-3.000000000000008
 30
0.0
 11
74.0
 21
-4.0
 31
0.0
  0
LINE
  5
3123
330
35AD
100
AcDbEntity
  8
outline
100
AcDbLine
 10
-6.0
 20
-4.0
 30
0.0
 11
-6.0
 21
-4.0
 31
0.0
  0
LINE
  5
3320
330
35AD
100
AcDbEntity
  8
outline
100
AcDbLine
 10
54.0
 20
-4.0
 30
0.0
 11
54.0
 21
-4.0
 31
0.0
  0
LINE
  5
335A
330
35AD
100
AcDbEntity
  8
outline
100
AcDbLine
 10
84.0
 20
-4.0
 30
0.0
 11
84.0
 21
-4.0
 31
0.0
  0
LINE
  5
350B
330
35AD
100
AcDbEntity
  8
outline
100
AcDbLine
 10
24.0
 20
-4.0
 30
0.0
 11
24.0
 21
-4.0
 31
0.0
  0
LINE
  5
3136
330
35AD
100
AcDbEntity
  8
body
100
AcDbLine
 10
-6.0
 20
-4.0
 30
0.0
 11
-6.0
 21
-4.0
 31
0.0
  0
LINE
  5
3321
330
35AD
100
AcDbEntity
  8
body
100
AcDbLine
 10
54.0
 20
-4.0
 30
0.0
 11
54.0
 21
-4.0
 31
0.0
  0
LINE
  5
335B
330
35AD
100
AcDbEntity
  8
body
100
AcDbLine
 10
84.0
 20
-4.0
 30
0.0
 11
84.0
 21
-4.0
 31
0.0
  0
LINE
  5
350C
330
35AD
100
AcDbEntity
  8
body
100
AcDbLine
 10
24.0
 20
-4.0
 30
0.0
 11
24.0
 21
-4.0
 31
0.0
  0
LINE
  5
318F
330
35AD
100
AcDbEntity
  8
zOutline
100
AcDbLine
 10
74.0
 20
-4.0
 30
0.0
 11
74.0
 21
-4.0
 31
0.0
  0
LINE
  5
3190
330
35AD
100
AcDbEntity
  8
zBody
100
AcDbLine
 10
74.0
 20
-4.0
 30
0.0
 11
74.0
 21
-4.0
 31
0.0
  0
ARC
  5
3126
330
35AD
100
AcDbEntity
  8
outline
100
AcDbCircle
 10
-6.0
 20
-4.5
 30
0.0
 40
0.5
100
AcDbArc
 50
0.0
 51
90.0
1001
QCAD
1000
reversed:1
  0
ARC
  5
3322
330
35AD
100
AcDbEntity
  8
outline
100
AcDbCircle
 10
54.0
 20
-4.5
 30
0.0
 40
0.5
100
AcDbArc
 50
0.0
 51
90.0
1001
QCAD
1000
reversed:1
  0
ARC
  5
335C
330
35AD
100
AcDbEntity
  8
outline
100
AcDbCircle
 10
84.0
 20
-4.5
 30
0.0
 40
0.5
100
AcDbArc
 50
0.0
 51
90.0
1001
QCAD
1000
reversed:1
  0
ARC
  5
350D
330
35AD
100
AcDbEntity
  8
outline
100
AcDbCircle
 10
24.0
 20
-4.5
 30
0.0
 40
0.5
100
AcDbArc
 50
0.0
 51
90.0
1001
QCAD
1000
reversed:1
  0
ARC
  5
3128
330
35AD
100
AcDbEntity
  8
outline
100
AcDbCircle
 10
0.0000000000000009
 20
-4.500000000000001
 30
0.0
 40
0.5
100
AcDbArc
 50
89.99999999999999
 51
180.0
  0
ARC
  5
3323
330
35AD
100
AcDbEntity
  8
outline
100
AcDbCircle
 10
60.0
 20
-4.500000000000001
 30
0.0
 40
0.5
100
AcDbArc
 50
89.99999999999999
 51
180.0
  0
ARC
  5
335D
330
35AD
100
AcDbEntity
  8
outline
100
AcDbCircle
 10
90.0
 20
-4.500000000000001
 30
0.0
 40
0.5
100
AcDbArc
 50
89.99999999999999
 51
180.0
  0
ARC
  5
350E
330
35AD
100
AcDbEntity
  8
outline
100
AcDbCircle
 10
30.0
 20
-4.500000000000001
 30
0.0
 40
0.5
100
AcDbArc
 50
89.99999999999999
 51
180.0
  0
ARC
  5
3137
330
35AD
100
AcDbEntity
  8
body
100
AcDbCircle
 10
-6.0
 20
-4.5
 30
0.0
 40
0.5
100
AcDbArc
 50
0.0
 51
90.0
1001
QCAD
1000
reversed:1
  0
ARC
  5
3324
330
35AD
100
AcDbEntity
  8
body
100
AcDbCircle
 10
54.0
 20
-4.5
 30
0.0
 40
0.5
100
AcDbArc
 50
0.0
 51
90.0
1001
QCAD
1000
reversed:1
  0
ARC
  5
335E
330
35AD
100
AcDbEntity
  8
body
100
AcDbCircle
 10
84.0
 20
-4.5
 30
0.0
 40
0.5
100
AcDbArc
 50
0.0
 51
90.0
1001
QCAD
1000
reversed:1
  0
ARC
  5
350F
330
35AD
100
AcDbEntity
  8
body
100
AcDbCircle
 10
24.0
 20
-4.5
 30
0.0
 40
0.5
100
AcDbArc
 50
0.0
 51
90.0
1001
QCAD
1000
reversed:1
  0
ARC
  5
3138
330
35AD
100
AcDbEntity
  8
body
100
AcDbCircle
 10
0.0000000000000009
 20
-4.500000000000001
 30
0.0
 40
0.5
100
AcDbArc
 50
89.99999999999999
 51
180.0
  0
ARC
  5
3325
330
35AD
100
AcDbEntity
  8
body
100
AcDbCircle
 10
60.0
 20
-4.500000000000001
 30
0.0
 40
0.5
100
AcDbArc
 50
89.99999999999999
 51
180.0
  0
ARC
  5
335F
330
35AD
100
AcDbEntity
  8
body
100
AcDbCircle
 10
90.0
 20
-4.500000000000001
 30
0.0
 40
0.5
100
AcDbArc
 50
89.99999999999999
 51
180.0
  0
ARC
  5
3510
330
35AD
100
AcDbEntity
  8
body
100
AcDbCircle
 10
30.0
 20
-4.500000000000001
 30
0.0
 40
0.5
100
AcDbArc
 50
89.99999999999999
 51
180.0
  0
ARC
  5
3191
330
35AD
100
AcDbEntity
  8
zOutline
100
AcDbCircle
 10
74.0
 20
-4.5
 30
0.0
 40
0.5
100
AcDbArc
 50
0.0
 51
90.0
1001
QCAD
1000
reversed:1
  0
ARC
  5
3192
330
35AD
100
AcDbEntity
  8
zOutline
100
AcDbCircle
 10
80.0
 20
-4.500000000000001
 30
0.0
 40
0.5
100
AcDbArc
 50
89.99999999999999
 51
180.0
  0
ARC
  5
3193
330
35AD
100
AcDbEntity
  8
zBody
100
AcDbCircle
 10
74.0
 20
-4.5
 30
0.0
 40
0.5
100
AcDbArc
 50
0.0
 51
90.0
1001
QCAD
1000
reversed:1
  0
ARC
  5
3194
330
35AD
100
AcDbEntity
  8
zBody
100
AcDbCircle
 10
80.0
 20
-4.500000000000001
 30
0.0
 40
0.5
100
AcDbArc
 50
89.99999999999999
 51
180.0
  0
LINE
  5
3139
330
35AD
100
AcDbEntity
  8
body
100
AcDbLine
 10
0.000000000000001
 20
-4.000000000000001
 30
0.0
 11
5.499999999999988
 21
-4.000000000000001
 31
0.0
  0
LINE
  5
3326
330
35AD
100
AcDbEntity
  8
body
100
AcDbLine
 10
60.0
 20
-4.000000000000001
 30
0.0
 11
65.49999999999999
 21
-4.000000000000001
 31
0.0
  0
LINE
  5
3360
330
35AD
100
AcDbEntity
  8
body
100
AcDbLine
 10
90.0
 20
-4.000000000000001
 30
0.0
 11
95.5
 21
-4.000000000000001
 31
0.0
  0
LINE
  5
3511
330
35AD
100
AcDbEntity
  8
body
100
AcDbLine
 10
30.0
 20
-4.000000000000001
 30
0.0
 11
35.49999999999999
 21
-4.000000000000001
 31
0.0
  0
LINE
  5
3195
330
35AD
100
AcDbEntity
  8
zBody
100
AcDbLine
 10
80.0
 20
-4.000000000000001
 30
0.0
 11
85.49999999999999
 21
-4.000000000000001
 31
0.0
  0
ARC
  5
312A
330
35AD
100
AcDbEntity
  8
outline
100
AcDbCircle
 10
5.499999999999988
 20
-3.500000000000001
 30
0.0
 40
0.5
100
AcDbArc
 50
270.0
 51
0.0
  0
ARC
  5
3327
330
35AD
100
AcDbEntity
  8
outline
100
AcDbCircle
 10
65.49999999999999
 20
-3.500000000000001
 30
0.0
 40
0.5
100
AcDbArc
 50
270.0
 51
0.0
  0
ARC
  5
3361
330
35AD
100
AcDbEntity
  8
outline
100
AcDbCircle
 10
95.5
 20
-3.500000000000001
 30
0.0
 40
0.5
100
AcDbArc
 50
270.0
 51
0.0
  0
ARC
  5
3512
330
35AD
100
AcDbEntity
  8
outline
100
AcDbCircle
 10
35.49999999999999
 20
-3.500000000000001
 30
0.0
 40
0.5
100
AcDbArc
 50
270.0
 51
0.0
  0
ARC
  5
313A
330
35AD
100
AcDbEntity
  8
body
100
AcDbCircle
 10
5.499999999999988
 20
-3.500000000000001
 30
0.0
 40
0.5
100
AcDbArc
 50
270.0
 51
0.0
  0
ARC
  5
3328
330
35AD
100
AcDbEntity
  8
body
100
AcDbCircle
 10
65.49999999999999
 20
-3.500000000000001
 30
0.0
 40
0.5
100
AcDbArc
 50
270.0
 51
0.0
  0
ARC
  5
3362
330
35AD
100
AcDbEntity
  8
body
100
AcDbCircle
 10
95.5
 20
-3.500000000000001
 30
0.0
 40
0.5
100
AcDbArc
 50
270.0
 51
0.0
  0
ARC
  5
3513
330
35AD
100
AcDbEntity
  8
body
100
AcDbCircle
 10
35.49999999999999
 20
-3.500000000000001
 30
0.0
 40
0.5
100
AcDbArc
 50
270.0
 51
0.0
  0
ARC
  5
3196
330
35AD
100
AcDbEntity
  8
zOutline
100
AcDbCircle
 10
85.49999999999999
 20
-3.500000000000001
 30
0.0
 40
0.5
100
AcDbArc
 50
270.0
 51
0.0
  0
ARC
  5
3197
330
35AD
100
AcDbEntity
  8
zBody
100
AcDbCircle
 10
85.49999999999999
 20
-3.500000000000001
 30
0.0
 40
0.5
100
AcDbArc
 50
270.0
 51
0.0
  0
LINE
  5
313C
330
35AD
100
AcDbEntity
  8
outline
100
AcDbLine
 10
5.999999999999992
 20
4.999999999999998
 30
0.0
 11
5.999999999999988
 21
-3.500000000000001
 31
0.0
  0
LINE
  5
3329
330
35AD
100
AcDbEntity
  8
outline
100
AcDbLine
 10
65.99999999999999
 20
4.999999999999998
 30
0.0
 11
65.99999999999999
 21
-3.500000000000001
 31
0.0
  0
LINE
  5
3363
330
35AD
100
AcDbEntity
  8
outline
100
AcDbLine
 10
96.0
 20
4.999999999999998
 30
0.0
 11
96.0
 21
-3.500000000000001
 31
0.0
  0
LINE
  5
3514
330
35AD
100
AcDbEntity
  8
outline
100
AcDbLine
 10
35.99999999999999
 20
4.999999999999998
 30
0.0
 11
35.99999999999999
 21
-3.500000000000001
 31
0.0
  0
LINE
  5
3198
330
35AD
100
AcDbEntity
  8
zOutline
100
AcDbLine
 10
85.99999999999999
 20
4.999999999999998
 30
0.0
 11
85.99999999999999
 21
-3.500000000000001
 31
0.0
  0
LINE
  5
313D
330
35AD
100
AcDbEntity
  8
outline
100
AcDbLine
 10
5.499999999999988
 20
-4.000000000000001
 30
0.0
 11
0.000000000000001
 21
-4.000000000000001
 31
0.0
  0
LINE
  5
332A
330
35AD
100
AcDbEntity
  8
outline
100
AcDbLine
 10
65.49999999999999
 20
-4.000000000000001
 30
0.0
 11
60.0
 21
-4.000000000000001
 31
0.0
  0
LINE
  5
3364
330
35AD
100
AcDbEntity
  8
outline
100
AcDbLine
 10
95.5
 20
-4.000000000000001
 30
0.0
 11
90.0
 21
-4.000000000000001
 31
0.0
  0
LINE
  5
3515
330
35AD
100
AcDbEntity
  8
outline
100
AcDbLine
 10
35.49999999999999
 20
-4.000000000000001
 30
0.0
 11
30.0
 21
-4.000000000000001
 31
0.0
  0
LINE
  5
3199
330
35AD
100
AcDbEntity
  8
zOutline
100
AcDbLine
 10
85.49999999999999
 20
-4.000000000000001
 30
0.0
 11
80.0
 21
-4.000000000000001
 31
0.0
  0
LINE
  5
313E
330
35AD
100
AcDbEntity
  8
outline
100
AcDbLine
 10
-0.4999999999999991
 20
-4.500000000000001
 30
0.0
 11
-0.5000000000000009
 21
-8.500000000000004
 31
0.0
  0
LINE
  5
332B
330
35AD
100
AcDbEntity
  8
outline
100
AcDbLine
 10
59.5
 20
-4.500000000000001
 30
0.0
 11
59.5
 21
-8.500000000000004
 31
0.0
  0
LINE
  5
3365
330
35AD
100
AcDbEntity
  8
outline
100
AcDbLine
 10
89.5
 20
-4.500000000000001
 30
0.0
 11
89.5
 21
-8.500000000000004
 31
0.0
  0
LINE
  5
3516
330
35AD
100
AcDbEntity
  8
outline
100
AcDbLine
 10
29.5
 20
-4.500000000000001
 30
0.0
 11
29.5
 21
-8.500000000000004
 31
0.0
  0
LINE
  5
319A
330
35AD
100
AcDbEntity
  8
zOutline
100
AcDbLine
 10
79.5
 20
-4.500000000000001
 30
0.0
 11
79.5
 21
-8.500000000000004
 31
0.0
  0
LINE
  5
313F
330
35AD
100
AcDbEntity
  8
outline
100
AcDbLine
 10
-1.499999999999998
 20
-9.500000000000004
 30
0.0
 11
-4.500000000000003
 21
-9.500000000000004
 31
0.0
  0
LINE
  5
332C
330
35AD
100
AcDbEntity
  8
outline
100
AcDbLine
 10
58.5
 20
-9.500000000000004
 30
0.0
 11
55.5
 21
-9.500000000000004
 31
0.0
  0
LINE
  5
3366
330
35AD
100
AcDbEntity
  8
outline
100
AcDbLine
 10
88.5
 20
-9.500000000000004
 30
0.0
 11
85.5
 21
-9.500000000000004
 31
0.0
  0
LINE
  5
3517
330
35AD
100
AcDbEntity
  8
outline
100
AcDbLine
 10
28.5
 20
-9.500000000000004
 30
0.0
 11
25.5
 21
-9.500000000000004
 31
0.0
  0
LINE
  5
319B
330
35AD
100
AcDbEntity
  8
zOutline
100
AcDbLine
 10
78.5
 20
-9.500000000000004
 30
0.0
 11
75.5
 21
-9.500000000000004
 31
0.0
  0
LINE
  5
3140
330
35AD
100
AcDbEntity
  8
outline
100
AcDbLine
 10
-5.499999999999999
 20
-8.500000000000004
 30
0.0
 11
-5.5
 21
-4.5
 31
0.0
  0
LINE
  5
332D
330
35AD
100
AcDbEntity
  8
outline
100
AcDbLine
 10
54.5
 20
-8.500000000000004
 30
0.0
 11
54.5
 21
-4.5
 31
0.0
  0
LINE
  5
3367
330
35AD
100
AcDbEntity
  8
outline
100
AcDbLine
 10
84.5
 20
-8.500000000000004
 30
0.0
 11
84.5
 21
-4.5
 31
0.0
  0
LINE
  5
3518
330
35AD
100
AcDbEntity
  8
outline
100
AcDbLine
 10
24.5
 20
-8.500000000000004
 30
0.0
 11
24.5
 21
-4.5
 31
0.0
  0
LINE
  5
319C
330
35AD
100
AcDbEntity
  8
zOutline
100
AcDbLine
 10
74.5
 20
-8.500000000000004
 30
0.0
 11
74.5
 21
-4.5
 31
0.0
  0
LINE
  5
3141
330
35AD
100
AcDbEntity
  8
outline
100
AcDbLine
 10
-6.0
 20
-4.0
 30
0.0
 11
-5.999999999999985
 21
5.000000000000008
 31
0.0
  0
LINE
  5
332E
330
35AD
100
AcDbEntity
  8
outline
100
AcDbLine
 10
54.0
 20
-4.0
 30
0.0
 11
54.00000000000001
 21
5.000000000000008
 31
0.0
  0
LINE
  5
3368
330
35AD
100
AcDbEntity
  8
outline
100
AcDbLine
 10
84.0
 20
-4.0
 30
0.0
 11
84.00000000000003
 21
5.000000000000008
 31
0.0
  0
LINE
  5
3519
330
35AD
100
AcDbEntity
  8
outline
100
AcDbLine
 10
24.0
 20
-4.0
 30
0.0
 11
24.00000000000001
 21
5.000000000000008
 31
0.0
  0
LINE
  5
319D
330
35AD
100
AcDbEntity
  8
zOutline
100
AcDbLine
 10
74.0
 20
-4.0
 30
0.0
 11
74.00000000000001
 21
5.000000000000008
 31
0.0
  0
LINE
  5
351E
330
35AD
100
AcDbEntity
  8
body
100
AcDbLine
 10
-5.0
 20
32.0
 30
0.0
 11
5.0
 21
32.0
 31
0.0
  0
LINE
  5
352B
330
35AD
100
AcDbEntity
  8
body
100
AcDbLine
 10
25.0
 20
37.5
 30
0.0
 11
35.0
 21
37.5
 31
0.0
  0
LINE
  5
3532
330
35AD
100
AcDbEntity
  8
body
100
AcDbLine
 10
55.0
 20
43.0
 30
0.0
 11
65.0
 21
43.0
 31
0.0
  0
LINE
  5
3539
330
35AD
100
AcDbEntity
  8
body
100
AcDbLine
 10
85.0
 20
49.5
 30
0.0
 11
95.0
 21
49.5
 31
0.0
  0
LINE
  5
351F
330
35AD
100
AcDbEntity
  8
outline
100
AcDbLine
 10
-5.0
 20
33.0
 30
0.0
 11
4.999999999999991
 21
33.0
 31
0.0
  0
LINE
  5
3528
330
35AD
100
AcDbEntity
  8
body
100
AcDbLine
 10
-5.0
 20
33.0
 30
0.0
 11
4.999999999999991
 21
33.0
 31
0.0
  0
LINE
  5
352C
330
35AD
100
AcDbEntity
  8
outline
100
AcDbLine
 10
25.0
 20
38.5
 30
0.0
 11
34.99999999999999
 21
38.5
 31
0.0
  0
LINE
  5
352D
330
35AD
100
AcDbEntity
  8
body
100
AcDbLine
 10
25.0
 20
38.5
 30
0.0
 11
34.99999999999999
 21
38.5
 31
0.0
  0
LINE
  5
3533
330
35AD
100
AcDbEntity
  8
outline
100
AcDbLine
 10
55.0
 20
44.0
 30
0.0
 11
64.99999999999999
 21
44.0
 31
0.0
  0
LINE
  5
3534
330
35AD
100
AcDbEntity
  8
body
100
AcDbLine
 10
55.0
 20
44.0
 30
0.0
 11
64.99999999999999
 21
44.0
 31
0.0
  0
LINE
  5
353A
330
35AD
100
AcDbEntity
  8
outline
100
AcDbLine
 10
85.0
 20
50.5
 30
0.0
 11
95.0
 21
50.5
 31
0.0
  0
LINE
  5
353B
330
35AD
100
AcDbEntity
  8
body
100
AcDbLine
 10
85.0
 20
50.5
 30
0.0
 11
95.0
 21
50.5
 31
0.0
  0
ARC
  5
3520
330
35AD
100
AcDbEntity
  8
outline
100
AcDbCircle
 10
-5.0
 20
32.0
 30
0.0
 40
1.0
100
AcDbArc
 50
90.0
 51
180.0
  0
ARC
  5
3529
330
35AD
100
AcDbEntity
  8
body
100
AcDbCircle
 10
-5.0
 20
32.0
 30
0.0
 40
1.0
100
AcDbArc
 50
90.0
 51
180.0
  0
ARC
  5
352E
330
35AD
100
AcDbEntity
  8
outline
100
AcDbCircle
 10
25.0
 20
37.5
 30
0.0
 40
1.0
100
AcDbArc
 50
90.0
 51
180.0
  0
ARC
  5
352F
330
35AD
100
AcDbEntity
  8
body
100
AcDbCircle
 10
25.0
 20
37.5
 30
0.0
 40
1.0
100
AcDbArc
 50
90.0
 51
180.0
  0
ARC
  5
3535
330
35AD
100
AcDbEntity
  8
outline
100
AcDbCircle
 10
55.0
 20
43.0
 30
0.0
 40
1.0
100
AcDbArc
 50
90.0
 51
180.0
  0
ARC
  5
3536
330
35AD
100
AcDbEntity
  8
body
100
AcDbCircle
 10
55.0
 20
43.0
 30
0.0
 40
1.0
100
AcDbArc
 50
90.0
 51
180.0
  0
ARC
  5
353C
330
35AD
100
AcDbEntity
  8
outline
100
AcDbCircle
 10
85.0
 20
49.5
 30
0.0
 40
1.0
100
AcDbArc
 50
90.0
 51
180.0
  0
ARC
  5
353D
330
35AD
100
AcDbEntity
  8
body
100
AcDbCircle
 10
85.0
 20
49.5
 30
0.0
 40
1.0
100
AcDbArc
 50
90.0
 51
180.0
  0
ARC
  5
3521
330
35AD
100
AcDbEntity
  8
outline
100
AcDbCircle
 10
4.999999999999991
 20
32.0
 30
0.0
 40
1.0
100
AcDbArc
 50
0.0
 51
90.0
1001
QCAD
1000
reversed:1
  0
ARC
  5
352A
330
35AD
100
AcDbEntity
  8
body
100
AcDbCircle
 10
4.999999999999991
 20
32.0
 30
0.0
 40
1.0
100
AcDbArc
 50
0.0
 51
90.0
1001
QCAD
1000
reversed:1
  0
ARC
  5
3530
330
35AD
100
AcDbEntity
  8
outline
100
AcDbCircle
 10
34.99999999999999
 20
37.5
 30
0.0
 40
1.0
100
AcDbArc
 50
0.0
 51
90.0
1001
QCAD
1000
reversed:1
  0
ARC
  5
3531
330
35AD
100
AcDbEntity
  8
body
100
AcDbCircle
 10
34.99999999999999
 20
37.5
 30
0.0
 40
1.0
100
AcDbArc
 50
0.0
 51
90.0
1001
QCAD
1000
reversed:1
  0
ARC
  5
3537
330
35AD
100
AcDbEntity
  8
outline
100
AcDbCircle
 10
64.99999999999999
 20
43.0
 30
0.0
 40
1.0
100
AcDbArc
 50
0.0
 51
90.0
1001
QCAD
1000
reversed:1
  0
ARC
  5
3538
330
35AD
100
AcDbEntity
  8
body
100
AcDbCircle
 10
64.99999999999999
 20
43.0
 30
0.0
 40
1.0
100
AcDbArc
 50
0.0
 51
90.0
1001
QCAD
1000
reversed:1
  0
ARC
  5
353E
330
35AD
100
AcDbEntity
  8
outline
100
AcDbCircle
 10
95.0
 20
49.5
 30
0.0
 40
1.0
100
AcDbArc
 50
0.0
 51
90.0
1001
QCAD
1000
reversed:1
  0
ARC
  5
353F
330
35AD
100
AcDbEntity
  8
body
100
AcDbCircle
 10
95.0
 20
49.5
 30
0.0
 40
1.0
100
AcDbArc
 50
0.0
 51
90.0
1001
QCAD
1000
reversed:1
  0
VIEWPORT
  5
367D
330
35A9
100
AcDbEntity
 67
     1
  8
0
100
AcDbViewport
 10
128.5
 20
97.5
 30
0.0
 40
314.226
 41
222.18
 68
     1
 69
     1
 12
128.5
 22
97.5
 13
0.0
 23
0.0
 14
10.0
 24
10.0
 15
10.0
 25
10.0
 16
0.0
 26
0.0
 36
1.0
 17
0.0
 27
0.0
 37
0.0
 42
50.0
 43
0.0
 44
0.0
 45
222.18
 50
0.0
 51
0.0
 72
   100
 90
   557152
  1

281
     0
 71
     1
 74
     0
110
0.0
120
0.0
130
0.0
111
1.0
121
0.0
131
0.0
112
0.0
122
1.0
132
0.0
 79
     0
146
0.0
170
     0
 61
     5
348
35BD
292
     1
282
     1
141
0.0
142
0.0
 63
   256
361
367E
  0
ENDSEC
  0
SECTION
  2
OBJECTS
  0
DICTIONARY
  5
359B
330
0
100
AcDbDictionary
281
     1
  3
ACAD_DETAILVIEWSTYLE
350
3686
  3
ACAD_GROUP
350
359C
  3
ACAD_LAYOUT
350
35A8
  3
ACAD_MATERIAL
350
35D1
  3
ACAD_MLEADERSTYLE
350
35F9
  3
ACAD_MLINESTYLE
350
35A5
  3
ACAD_PLOTSETTINGS
350
35A7
  3
ACAD_PLOTSTYLENAME
350
359D
  3
ACAD_SCALELIST
350
35D5
  3
ACAD_SECTIONVIEWSTYLE
350
3687
  3
ACAD_TABLESTYLE
350
35F7
  3
ACAD_VISUALSTYLE
350
35B8
  3
ACDB_RECOMPOSE_DATA
350
3683
  3
AcDbVariableDictionary
350
367F
  3
QCAD_OBJECTS
350
35FD
  0
SUN
  5
35FB
330
35B7
100
AcDbSun
 90
        1
290
     0
 63
     7
421
 16777215
 40
1.0
291
     1
 91
  2455826
 92
 54000000
292
     0
 70
     2
 71
   256
280
     1
  0
SUN
  5
367E
330
367D
100
AcDbSun
 90
        1
290
     0
 63
     7
421
 16777215
 40
1.0
291
     1
 91
  2455826
 92
 54000000
292
     0
 70
     2
 71
   256
280
     1
  0
DICTIONARY
  5
3686
102
{ACAD_REACTORS
330
359B
102
}
330
359B
100
AcDbDictionary
281
     1
  0
DICTIONARY
  5
359C
102
{ACAD_REACTORS
330
359B
102
}
330
359B
100
AcDbDictionary
281
     1
  0
DICTIONARY
  5
35A8
102
{ACAD_REACTORS
330
359B
102
}
330
359B
100
AcDbDictionary
281
     1
  3
Layout1
350
35AC
  3
Model
350
35B0
  0
DICTIONARY
  5
35D1
102
{ACAD_REACTORS
330
359B
102
}
330
359B
100
AcDbDictionary
281
     1
  3
ByBlock
350
35D3
  3
ByLayer
350
35D2
  3
Global
350
35D4
  0
DICTIONARY
  5
35F9
102
{ACAD_REACTORS
330
359B
102
}
330
359B
100
AcDbDictionary
281
     1
  3
Standard
350
35FA
  0
DICTIONARY
  5
35A5
102
{ACAD_REACTORS
330
359B
102
}
330
359B
100
AcDbDictionary
281
     1
  3
Standard
350
35A6
  0
DICTIONARY
  5
35A7
102
{ACAD_REACTORS
330
359B
102
}
330
359B
100
AcDbDictionary
281
     1
  0
ACDBDICTIONARYWDFLT
  5
359D
102
{ACAD_REACTORS
330
359B
102
}
330
359B
100
AcDbDictionary
281
     1
  3
Normal
350
359E
100
AcDbDictionaryWithDefault
340
359E
  0
DICTIONARY
  5
35D5
102
{ACAD_REACTORS
330
359B
102
}
330
359B
100
AcDbDictionary
281
     1
  3
A0
350
35D6
  3
A1
350
35D7
  3
A2
350
35D8
  3
A3
350
35D9
  3
A4
350
35DA
  3
A5
350
35DB
  3
A6
350
35DC
  3
A7
350
35DD
  3
A8
350
35DE
  3
A9
350
35DF
  3
B0
350
35E0
  3
B1
350
35E1
  3
B2
350
35E2
  3
B3
350
35E3
  3
B4
350
35E4
  3
B5
350
35E5
  3
B6
350
35E6
  3
B7
350
35E7
  3
B8
350
35E8
  3
B9
350
35E9
  3
C0
350
35EA
  3
C1
350
35EB
  3
C2
350
35EC
  3
C3
350
35ED
  3
C4
350
35EE
  3
C5
350
35EF
  3
C6
350
35F0
  3
C7
350
35F1
  3
C8
350
35F2
  3
C9
350
35F3
  3
D0
350
35F4
  3
D1
350
35F5
  3
D2
350
35F6
  0
DICTIONARY
  5
3687
102
{ACAD_REACTORS
330
359B
102
}
330
359B
100
AcDbDictionary
281
     1
  0
DICTIONARY
  5
35F7
102
{ACAD_REACTORS
330
359B
102
}
330
359B
100
AcDbDictionary
281
     1
  3
Standard
350
35F8
  0
DICTIONARY
  5
35B8
102
{ACAD_REACTORS
330
359B
102
}
330
359B
100
AcDbDictionary
281
     1
  3
2dWireframe
350
35BD
  3
Basic
350
35C0
  3
Brighten
350
35C4
  3
ColorChange
350
35C8
  3
Conceptual
350
35C2
  3
Dim
350
35C3
  3
EdgeColorOff
350
35CB
  3
Facepattern
350
35C7
  3
Flat
350
35B9
  3
FlatWithEdges
350
35BA
  3
Gouraud
350
35BB
  3
GouraudWithEdges
350
35BC
  3
Hidden
350
35BF
  3
JitterOff
350
35C9
  3
Linepattern
350
35C6
  3
OverhangOff
350
35CA
  3
Realistic
350
35C1
  3
Shaded
350
35D0
  3
Shaded with edges
350
35CF
  3
Shades of Gray
350
35CC
  3
Sketchy
350
35CD
  3
Thicken
350
35C5
  3
Wireframe
350
35BE
  3
X-Ray
350
35CE
  0
XRECORD
  5
3683
102
{ACAD_REACTORS
330
359B
102
}
330
359B
100
AcDbXrecord
280
     1
 90
        1
330
35F8
  0
DICTIONARY
  5
367F
102
{ACAD_REACTORS
330
359B
102
}
330
359B
100
AcDbDictionary
281
     1
  3
CANNOSCALE
350
3680
  3
CMLEADERSTYLE
350
3685
  3
CTABLESTYLE
350
3684
  0
DICTIONARY
  5
35FD
102
{ACAD_REACTORS
330
359B
102
}
330
359B
100
AcDbDictionary
281
     1
  3
ColorSettings/BackgroundColor
350
35FF
  3
ColorSettings/ColorMode
350
3600
  3
DimensionSettings/AngularFormat
350
3601
  3
DimensionSettings/AngularPrecision
350
3602
  3
DimensionSettings/DecimalPoint
350
3603
  3
DimensionSettings/DimensionFont
350
3604
  3
DimensionSettings/KeepProportions
350
3605
  3
DimensionSettings/LinearFormat
350
3606
  3
DimensionSettings/LinearPrecision
350
3607
  3
Grid/DisplayGrid00
350
3608
  3
Grid/DisplayGrid01
350
3609
  3
Grid/DisplayGrid02
350
360A
  3
Grid/DisplayGrid03
350
360B
  3
Grid/GridSpacingX00
350
360C
  3
Grid/GridSpacingX01
350
360D
  3
Grid/GridSpacingX02
350
360E
  3
Grid/GridSpacingX03
350
360F
  3
Grid/GridSpacingY00
350
3610
  3
Grid/GridSpacingY01
350
3611
  3
Grid/GridSpacingY02
350
3612
  3
Grid/GridSpacingY03
350
3613
  3
Grid/IsometricGrid00
350
3614
  3
Grid/IsometricGrid01
350
3615
  3
Grid/IsometricGrid02
350
3616
  3
Grid/IsometricGrid03
350
3617
  3
Grid/IsometricProjection00
350
3618
  3
Grid/IsometricProjection01
350
3619
  3
Grid/IsometricProjection02
350
361A
  3
Grid/IsometricProjection03
350
361B
  3
Grid/MetaGridSpacingX00
350
361C
  3
Grid/MetaGridSpacingX01
350
361D
  3
Grid/MetaGridSpacingX02
350
361E
  3
Grid/MetaGridSpacingX03
350
361F
  3
Grid/MetaGridSpacingY00
350
3620
  3
Grid/MetaGridSpacingY01
350
3621
  3
Grid/MetaGridSpacingY02
350
3622
  3
Grid/MetaGridSpacingY03
350
3623
  3
MultiPageSettings/Columns
350
3624
  3
MultiPageSettings/GlueMarginsBottom
350
3625
  3
MultiPageSettings/GlueMarginsLeft
350
3626
  3
MultiPageSettings/GlueMarginsRight
350
3627
  3
MultiPageSettings/GlueMarginsTop
350
3628
  3
MultiPageSettings/PrintCropMarks
350
3629
  3
MultiPageSettings/Rows
350
362A
  3
PageSettings/OffsetX
350
362B
  3
PageSettings/OffsetY
350
362C
  3
PageSettings/PageOrientation
350
362D
  3
PageSettings/PaperHeight
350
362E
  3
PageSettings/PaperWidth
350
362F
  3
PageSettings/Scale
350
3630
  3
PageSettings/ShowPaperBorders
350
3631
  3
PageTagSettings/EnablePageTags
350
3632
  3
PageTagSettings/TagAlignment
350
3633
  3
PageTagSettings/TagFont
350
3634
  3
PageTagSettings/TagPosition
350
3635
  3
QCADVersion
350
3636
  3
UnitSettings/PaperUnit
350
3637
  3
ViewportCenter
350
3638
  3
ViewportHeight
350
3639
  3
ViewportWidth
350
363A
  0
LAYOUT
  5
35AC
102
{ACAD_REACTORS
330
35A8
102
}
330
35A8
100
AcDbPlotSettings
  1

  2
none_device
  4
ISO_A4_(210.00_x_297.00_MM)
  6

 40
7.5
 41
20.0
 42
7.5
 43
20.0
 44
210.0
 45
297.0
 46
0.0
 47
0.0
 48
0.0
 49
0.0
140
0.0
141
0.0
142
1.0
143
1.0
 70
   688
 72
     1
 73
     1
 74
     5
  7

 75
    16
 76
     0
 77
     2
 78
   300
147
1.0
148
0.0
149
0.0
100
AcDbLayout
  1
Layout1
 70
     1
 71
     0
 10
-20.0
 20
-7.5
 11
277.0
 21
202.5
 12
0.0
 22
0.0
 32
0.0
 14
0.0
 24
0.0
 34
0.0
 15
0.0
 25
0.0
 35
0.0
146
0.0
 13
0.0
 23
0.0
 33
0.0
 16
1.0
 26
0.0
 36
0.0
 17
0.0
 27
1.0
 37
0.0
 76
     0
330
35A9
331
367D
  0
LAYOUT
  5
35B0
102
{ACAD_REACTORS
330
35A8
102
}
330
35A8
100
AcDbPlotSettings
  1

  2
none_device
  4
Letter_(8.50_x_11.00_Inches)
  6

 40
6.35
 41
6.35
 42
6.35000508
 43
6.35000508
 44
215.9
 45
279.4
 46
0.0
 47
0.0
 48
0.0
 49
0.0
140
0.0
141
0.0
142
1.0
143
1.0
 70
  1712
 72
     0
 73
     0
 74
     0
  7

 75
     0
 76
     0
 77
     2
 78
   300
147
1.0
148
0.0
149
0.0
100
AcDbLayout
  1
Model
 70
     1
 71
     0
 10
0.0
 20
0.0
 11
12.0
 21
9.0
 12
0.0
 22
0.0
 32
0.0
 14
-13.66972337145522
 24
-63.66972337145522
 34
0.0
 15
101.5
 25
53.66972337145522
 35
0.0
146
0.0
 13
0.0
 23
0.0
 33
0.0
 16
1.0
 26
0.0
 36
0.0
 17
0.0
 27
1.0
 37
0.0
 76
     0
330
35AD
331
35B7
  0
MATERIAL
  5
35D3
102
{ACAD_REACTORS
330
35D1
102
}
330
35D1
100
AcDbMaterial
  1
ByBlock
 72
     1
 94
      127
  0
MATERIAL
  5
35D2
102
{ACAD_REACTORS
330
35D1
102
}
330
35D1
100
AcDbMaterial
  1
ByLayer
 72
     1
 94
      127
  0
MATERIAL
  5
35D4
102
{ACAD_REACTORS
330
35D1
102
}
330
35D1
100
AcDbMaterial
  1
Global
 72
     1
 94
      127
  0
MLEADERSTYLE
  5
35FA
102
{ACAD_REACTORS
330
35F9
102
}
330
35F9
100
AcDbMLeaderStyle
179
     2
170
     2
171
     1
172
     0
 90
        2
 40
0.0
 41
0.0
173
     1
 91
-1056964608
340
35A2
 92
       -2
290
     1
 42
0.09
291
     1
 43
0.36
  3
Standard
341
0
 44
0.18
300

342
35A0
174
     1
178
     6
175
     1
176
     0
 93
-1056964608
 45
0.18
292
     0
297
     0
 46
0.18
343
0
 94
-1056964608
 47
1.0
 49
1.0
140
1.0
293
     1
141
0.0
294
     1
177
     0
142
1.0
295
     0
296
     0
143
0.125
271
     0
272
     9
273
     9
298
     0
  0
MLINESTYLE
  5
35A6
102
{ACAD_REACTORS
330
35A5
102
}
330
35A5
100
AcDbMlineStyle
  2
Standard
 70
     0
  3

 62
   256
 51
90.0
 52
90.0
 71
     2
 49
0.5
 62
   256
  6
BYLAYER
 49
-0.5
 62
   256
  6
BYLAYER
  0
ACDBPLACEHOLDER
  5
359E
102
{ACAD_REACTORS
330
359D
102
}
330
359D
  0
SCALE
  5
35D6
102
{ACAD_REACTORS
330
35D5
102
}
330
35D5
100
AcDbScale
 70
     0
300
1:1
140
1.0
141
1.0
290
     1
  0
SCALE
  5
35D7
102
{ACAD_REACTORS
330
35D5
102
}
330
35D5
100
AcDbScale
 70
     0
300
1:2
140
1.0
141
2.0
290
     0
  0
SCALE
  5
35D8
102
{ACAD_REACTORS
330
35D5
102
}
330
35D5
100
AcDbScale
 70
     0
300
1:4
140
1.0
141
4.0
290
     0
  0
SCALE
  5
35D9
102
{ACAD_REACTORS
330
35D5
102
}
330
35D5
100
AcDbScale
 70
     0
300
1:5
140
1.0
141
5.0
290
     0
  0
SCALE
  5
35DA
102
{ACAD_REACTORS
330
35D5
102
}
330
35D5
100
AcDbScale
 70
     0
300
1:8
140
1.0
141
8.0
290
     0
  0
SCALE
  5
35DB
102
{ACAD_REACTORS
330
35D5
102
}
330
35D5
100
AcDbScale
 70
     0
300
1:10
140
1.0
141
10.0
290
     0
  0
SCALE
  5
35DC
102
{ACAD_REACTORS
330
35D5
102
}
330
35D5
100
AcDbScale
 70
     0
300
1:16
140
1.0
141
16.0
290
     0
  0
SCALE
  5
35DD
102
{ACAD_REACTORS
330
35D5
102
}
330
35D5
100
AcDbScale
 70
     0
300
1:20
140
1.0
141
20.0
290
     0
  0
SCALE
  5
35DE
102
{ACAD_REACTORS
330
35D5
102
}
330
35D5
100
AcDbScale
 70
     0
300
1:30
140
1.0
141
30.0
290
     0
  0
SCALE
  5
35DF
102
{ACAD_REACTORS
330
35D5
102
}
330
35D5
100
AcDbScale
 70
     0
300
1:40
140
1.0
141
40.0
290
     0
  0
SCALE
  5
35E0
102
{ACAD_REACTORS
330
35D5
102
}
330
35D5
100
AcDbScale
 70
     0
300
1:50
140
1.0
141
50.0
290
     0
  0
SCALE
  5
35E1
102
{ACAD_REACTORS
330
35D5
102
}
330
35D5
100
AcDbScale
 70
     0
300
1:100
140
1.0
141
100.0
290
     0
  0
SCALE
  5
35E2
102
{ACAD_REACTORS
330
35D5
102
}
330
35D5
100
AcDbScale
 70
     0
300
2:1
140
2.0
141
1.0
290
     0
  0
SCALE
  5
35E3
102
{ACAD_REACTORS
330
35D5
102
}
330
35D5
100
AcDbScale
 70
     0
300
4:1
140
4.0
141
1.0
290
     0
  0
SCALE
  5
35E4
102
{ACAD_REACTORS
330
35D5
102
}
330
35D5
100
AcDbScale
 70
     0
300
8:1
140
8.0
141
1.0
290
     0
  0
SCALE
  5
35E5
102
{ACAD_REACTORS
330
35D5
102
}
330
35D5
100
AcDbScale
 70
     0
300
10:1
140
10.0
141
1.0
290
     0
  0
SCALE
  5
35E6
102
{ACAD_REACTORS
330
35D5
102
}
330
35D5
100
AcDbScale
 70
     0
300
100:1
140
100.0
141
1.0
290
     0
  0
SCALE
  5
35E7
102
{ACAD_REACTORS
330
35D5
102
}
330
35D5
100
AcDbScale
 70
     0
300
1/128" = 1'-0"
140
0.0078125
141
12.0
290
     0
  0
SCALE
  5
35E8
102
{ACAD_REACTORS
330
35D5
102
}
330
35D5
100
AcDbScale
 70
     0
300
1/64" = 1'-0"
140
0.015625
141
12.0
290
     0
  0
SCALE
  5
35E9
102
{ACAD_REACTORS
330
35D5
102
}
330
35D5
100
AcDbScale
 70
     0
300
1/32" = 1'-0"
140
0.03125
141
12.0
290
     0
  0
SCALE
  5
35EA
102
{ACAD_REACTORS
330
35D5
102
}
330
35D5
100
AcDbScale
 70
     0
300
1/16" = 1'-0"
140
0.0625
141
12.0
290
     0
  0
SCALE
  5
35EB
102
{ACAD_REACTORS
330
35D5
102
}
330
35D5
100
AcDbScale
 70
     0
300
3/32" = 1'-0"
140
0.09375
141
12.0
290
     0
  0
SCALE
  5
35EC
102
{ACAD_REACTORS
330
35D5
102
}
330
35D5
100
AcDbScale
 70
     0
300
1/8" = 1'-0"
140
0.125
141
12.0
290
     0
  0
SCALE
  5
35ED
102
{ACAD_REACTORS
330
35D5
102
}
330
35D5
100
AcDbScale
 70
     0
300
3/16" = 1'-0"
140
0.1875
141
12.0
290
     0
  0
SCALE
  5
35EE
102
{ACAD_REACTORS
330
35D5
102
}
330
35D5
100
AcDbScale
 70
     0
300
1/4" = 1'-0"
140
0.25
141
12.0
290
     0
  0
SCALE
  5
35EF
102
{ACAD_REACTORS
330
35D5
102
}
330
35D5
100
AcDbScale
 70
     0
300
3/8" = 1'-0"
140
0.375
141
12.0
290
     0
  0
SCALE
  5
35F0
102
{ACAD_REACTORS
330
35D5
102
}
330
35D5
100
AcDbScale
 70
     0
300
1/2" = 1'-0"
140
0.5
141
12.0
290
     0
  0
SCALE
  5
35F1
102
{ACAD_REACTORS
330
35D5
102
}
330
35D5
100
AcDbScale
 70
     0
300
3/4" = 1'-0"
140
0.75
141
12.0
290
     0
  0
SCALE
  5
35F2
102
{ACAD_REACTORS
330
35D5
102
}
330
35D5
100
AcDbScale
 70
     0
300
1" = 1'-0"
140
1.0
141
12.0
290
     0
  0
SCALE
  5
35F3
102
{ACAD_REACTORS
330
35D5
102
}
330
35D5
100
AcDbScale
 70
     0
300
1-1/2" = 1'-0"
140
1.5
141
12.0
290
     0
  0
SCALE
  5
35F4
102
{ACAD_REACTORS
330
35D5
102
}
330
35D5
100
AcDbScale
 70
     0
300
3" = 1'-0"
140
3.0
141
12.0
290
     0
  0
SCALE
  5
35F5
102
{ACAD_REACTORS
330
35D5
102
}
330
35D5
100
AcDbScale
 70
     0
300
6" = 1'-0"
140
6.0
141
12.0
290
     0
  0
SCALE
  5
35F6
102
{ACAD_REACTORS
330
35D5
102
}
330
35D5
100
AcDbScale
 70
     0
300
1'-0" = 1'-0"
140
12.0
141
12.0
290
     0
  0
TABLESTYLE
  5
35F8
102
{ACAD_REACTORS
330
35F7
102
}
102
{ACAD_XDICTIONARY
360
3681
102
}
330
35F7
100
AcDbTableStyle
  3
Standard
 70
     0
 71
     0
 40
0.06
 41
0.06
280
     0
281
     0
  7
Standard
140
0.18
170
     2
 62
     0
 63
   257
283
     0
 90
        4
 91
        0
  1

274
    -2
284
     1
 64
     0
275
    -2
285
     1
 65
     0
276
    -2
286
     1
 66
     0
277
    -2
287
     1
 67
     0
278
    -2
288
     1
 68
     0
279
    -2
289
     1
 69
     0
  7
Standard
140
0.25
170
     5
 62
     0
 63
   257
283
     0
 90
        4
 91
        0
  1

274
    -2
284
     1
 64
     0
275
    -2
285
     1
 65
     0
276
    -2
286
     1
 66
     0
277
    -2
287
     1
 67
     0
278
    -2
288
     1
 68
     0
279
    -2
289
     1
 69
     0
  7
Standard
140
0.18
170
     5
 62
     0
 63
   257
283
     0
 90
        4
 91
        0
  1

274
    -2
284
     1
 64
     0
275
    -2
285
     1
 65
     0
276
    -2
286
     1
 66
     0
277
    -2
287
     1
 67
     0
278
    -2
288
     1
 68
     0
279
    -2
289
     1
 69
     0
  0
VISUALSTYLE
  5
35BD
102
{ACAD_REACTORS
330
35B8
102
}
330
35B8
100
AcDbVisualStyle
  2
2dWireframe
 70
     4
177
     3
291
     0
 70
    58
 90
        0
176
     1
 90
        2
176
     1
 90
        0
176
     1
 90
        0
176
     1
 40
0.6
176
     1
 40
30.0
176
     1
 62
     7
420
 16777215
176
     1
 90
        1
176
     1
 90
        4
176
     1
 62
     7
176
     1
 62
   257
176
     1
 90
        1
176
     1
 90
        1
176
     1
 40
1.0
176
     1
 90
        0
176
     1
 62
   257
176
     1
 40
1.0
176
     1
 90
        1
176
     1
 90
        6
176
     1
 90
        2
176
     1
 62
     7
176
     1
 90
        5
176
     1
 90
        0
176
     1
 90
        0
176
     1
290
     0
176
     1
 90
        1
176
     1
 40
0.0
176
     1
 90
        0
176
     1
290
     1
176
     1
290
     1
176
     1
290
     0
176
     1
290
     0
176
     1
290
     0
176
     1
290
     0
176
     1
290
     0
176
     1
290
     0
176
     1
290
     0
176
     1
 90
       50
176
     1
 40
0.0
176
     1
 40
1.0
176
     1
 90
        0
176
     1
 62
    18
420
        0
176
     1
 90
       50
176
     1
 90
        3
176
     1
 62
     5
420
      255
176
     1
290
     0
176
     1
 90
       50
176
     1
 90
       50
176
     1
 90
       50
176
     1
290
     0
176
     1
 90
       50
176
     1
 62
   256
176
     0
 40
1.0
176
     0
 90
        2
176
     1
  1
strokes_ogs.tif
176
     1
290
     0
176
     1
 40
1.0
176
     1
 40
1.0
176
     1
  0
VISUALSTYLE
  5
35C0
102
{ACAD_REACTORS
330
35B8
102
}
330
35B8
100
AcDbVisualStyle
  2
Basic
 70
     7
177
     3
291
     1
 70
    58
 90
        1
176
     1
 90
        0
176
     1
 90
        1
176
     1
 90
        0
176
     1
 40
0.6
176
     1
 40
30.0
176
     1
 62
     7
420
 16777215
176
     1
 90
        0
176
     1
 90
        4
176
     1
 62
     7
176
     1
 62
   257
176
     1
 90
        1
176
     1
 90
        1
176
     1
 40
1.0
176
     1
 90
        8
176
     1
 62
     7
176
     1
 40
1.0
176
     1
 90
        1
176
     1
 90
        6
176
     1
 90
        2
176
     1
 62
     7
176
     1
 90
        5
176
     1
 90
        0
176
     1
 90
        0
176
     1
290
     0
176
     1
 90
        1
176
     1
 40
0.0
176
     1
 90
        0
176
     1
290
     0
176
     1
290
     1
176
     1
290
     1
176
     1
290
     0
176
     1
290
     0
176
     1
290
     0
176
     1
290
     0
176
     1
290
     0
176
     1
290
     0
176
     1
 90
       50
176
     1
 40
0.0
176
     1
 40
1.0
176
     1
 90
        0
176
     1
 62
    18
420
        0
176
     1
 90
       50
176
     1
 90
        3
176
     1
 62
     5
420
      255
176
     1
290
     0
176
     1
 90
       50
176
     1
 90
       50
176
     1
 90
       50
176
     1
290
     0
176
     1
 90
       50
176
     1
 62
   256
176
     0
 40
1.0
176
     0
 90
        2
176
     1
  1
strokes_ogs.tif
176
     1
290
     0
176
     1
 40
1.0
176
     1
 40
1.0
176
     1
  0
VISUALSTYLE
  5
35C4
102
{ACAD_REACTORS
330
35B8
102
}
330
35B8
100
AcDbVisualStyle
  2
Brighten
 70
    12
177
     3
291
     1
 70
    58
 90
        2
176
     1
 90
        2
176
     1
 90
        0
176
     1
 90
        0
176
     1
 40
0.6
176
     1
 40
30.0
176
     1
 62
     7
420
 16777215
176
     1
 90
        1
176
     1
 90
        4
176
     1
 62
     7
176
     1
 62
   257
176
     1
 90
        1
176
     1
 90
        1
176
     1
 40
1.0
176
     1
 90
        8
176
     1
 62
     7
176
     1
 40
1.0
176
     1
 90
        1
176
     1
 90
        6
176
     1
 90
        2
176
     1
 62
     7
176
     1
 90
        5
176
     1
 90
        0
176
     1
 90
        0
176
     1
290
     0
176
     1
 90
        1
176
     1
 40
50.0
176
     1
 90
        0
176
     1
290
     0
176
     1
290
     1
176
     1
290
     1
176
     1
290
     0
176
     1
290
     0
176
     1
290
     0
176
     1
290
     0
176
     1
290
     0
176
     1
290
     0
176
     1
 90
       50
176
     1
 40
0.0
176
     1
 40
1.0
176
     1
 90
        0
176
     1
 62
    18
420
        0
176
     1
 90
       50
176
     1
 90
        3
176
     1
 62
     5
420
      255
176
     1
290
     0
176
     1
 90
       50
176
     1
 90
       50
176
     1
 90
       50
176
     1
290
     0
176
     1
 90
       50
176
     1
 62
   256
176
     0
 40
1.0
176
     0
 90
        2
176
     1
  1
strokes_ogs.tif
176
     1
290
     0
176
     1
 40
1.0
176
     1
 40
1.0
176
     1
  0
VISUALSTYLE
  5
35C8
102
{ACAD_REACTORS
330
35B8
102
}
330
35B8
100
AcDbVisualStyle
  2
ColorChange
 70
    16
177
     3
291
     1
 70
    58
 90
        2
176
     1
 90
        2
176
     1
 90
        3
176
     1
 90
        0
176
     1
 40
0.6
176
     1
 40
30.0
176
     1
 62
     8
420
  8421504
176
     1
 90
        1
176
     1
 90
        4
176
     1
 62
     7
176
     1
 62
   257
176
     1
 90
        1
176
     1
 90
        1
176
     1
 40
1.0
176
     1
 90
        8
176
     1
 62
     8
420
  8421504
176
     1
 40
1.0
176
     1
 90
        1
176
     1
 90
        6
176
     1
 90
        2
176
     1
 62
     7
176
     1
 90
        5
176
     1
 90
        0
176
     1
 90
        0
176
     1
290
     0
176
     1
 90
        1
176
     1
 40
0.0
176
     1
 90
        0
176
     1
290
     0
176
     1
290
     1
176
     1
290
     1
176
     1
290
     0
176
     1
290
     0
176
     1
290
     0
176
     1
290
     0
176
     1
290
     0
176
     1
290
     0
176
     1
 90
       50
176
     1
 40
0.0
176
     1
 40
1.0
176
     1
 90
        0
176
     1
 62
    18
420
        0
176
     1
 90
       50
176
     1
 90
        3
176
     1
 62
     5
420
      255
176
     1
290
     0
176
     1
 90
       50
176
     1
 90
       50
176
     1
 90
       50
176
     1
290
     0
176
     1
 90
       50
176
     1
 62
   256
176
     0
 40
1.0
176
     0
 90
        2
176
     1
  1
strokes_ogs.tif
176
     1
290
     0
176
     1
 40
1.0
176
     1
 40
1.0
176
     1
  0
VISUALSTYLE
  5
35C2
102
{ACAD_REACTORS
330
35B8
102
}
330
35B8
100
AcDbVisualStyle
  2
Conceptual
 70
     9
177
     3
291
     0
 70
    58
 90
        3
176
     1
 90
        2
176
     1
 90
        0
176
     1
 90
        0
176
     1
 40
0.6
176
     1
 40
30.0
176
     1
 62
     7
420
 16777215
176
     1
 90
        2
176
     1
 90
        2
176
     1
 62
     7
176
     1
 62
   257
176
     1
 90
        1
176
     1
 90
        1
176
     1
 40
179.0
176
     1
 90
        8
176
     1
 62
     7
176
     1
 40
1.0
176
     1
 90
        1
176
     1
 90
        6
176
     1
 90
        2
176
     1
 62
     7
176
     1
 90
        3
176
     1
 90
        0
176
     1
 90
        0
176
     1
290
     0
176
     1
 90
        1
176
     1
 40
0.0
176
     1
 90
        0
176
     1
290
     0
176
     1
290
     1
176
     1
290
     1
176
     1
290
     0
176
     1
290
     0
176
     1
290
     0
176
     1
290
     0
176
     1
290
     0
176
     1
290
     0
176
     1
 90
       50
176
     1
 40
0.0
176
     1
 40
1.0
176
     1
 90
        0
176
     1
 62
    18
420
        0
176
     1
 90
       50
176
     1
 90
        3
176
     1
 62
     5
420
      255
176
     1
290
     0
176
     1
 90
       50
176
     1
 90
       50
176
     1
 90
       50
176
     1
290
     0
176
     1
 90
       50
176
     1
 62
   256
176
     0
 40
1.0
176
     0
 90
        2
176
     1
  1
strokes_ogs.tif
176
     1
290
     0
176
     1
 40
1.0
176
     1
 40
1.0
176
     1
  0
VISUALSTYLE
  5
35C3
102
{ACAD_REACTORS
330
35B8
102
}
330
35B8
100
AcDbVisualStyle
  2
Dim
 70
    11
177
     3
291
     1
 70
    58
 90
        2
176
     1
 90
        2
176
     1
 90
        0
176
     1
 90
        0
176
     1
 40
0.6
176
     1
 40
30.0
176
     1
 62
     7
420
 16777215
176
     1
 90
        1
176
     1
 90
        4
176
     1
 62
     7
176
     1
 62
   257
176
     1
 90
        1
176
     1
 90
        1
176
     1
 40
1.0
176
     1
 90
        8
176
     1
 62
     7
176
     1
 40
1.0
176
     1
 90
        1
176
     1
 90
        6
176
     1
 90
        2
176
     1
 62
     7
176
     1
 90
        5
176
     1
 90
        0
176
     1
 90
        0
176
     1
290
     0
176
     1
 90
        1
176
     1
 40
-50.0
176
     1
 90
        0
176
     1
290
     0
176
     1
290
     1
176
     1
290
     1
176
     1
290
     0
176
     1
290
     0
176
     1
290
     0
176
     1
290
     0
176
     1
290
     0
176
     1
290
     0
176
     1
 90
       50
176
     1
 40
0.0
176
     1
 40
1.0
176
     1
 90
        0
176
     1
 62
    18
420
        0
176
     1
 90
       50
176
     1
 90
        3
176
     1
 62
     5
420
      255
176
     1
290
     0
176
     1
 90
       50
176
     1
 90
       50
176
     1
 90
       50
176
     1
290
     0
176
     1
 90
       50
176
     1
 62
   256
176
     0
 40
1.0
176
     0
 90
        2
176
     1
  1
strokes_ogs.tif
176
     1
290
     0
176
     1
 40
1.0
176
     1
 40
1.0
176
     1
  0
VISUALSTYLE
  5
35CB
102
{ACAD_REACTORS
330
35B8
102
}
330
35B8
100
AcDbVisualStyle
  2
EdgeColorOff
 70
    22
177
     3
291
     1
 70
    58
 90
        2
176
     0
 90
        2
176
     0
 90
        0
176
     0
 90
        0
176
     0
 40
0.6
176
     0
 40
30.0
176
     0
 62
     7
420
 16777215
176
     0
 90
        1
176
     0
 90
        4
176
     0
 62
     7
176
     0
 62
   257
176
     0
 90
        1
176
     0
 90
        1
176
     0
 40
1.0
176
     0
 90
        8
176
     2
 62
     7
176
     0
 40
1.0
176
     0
 90
        1
176
     0
 90
        6
176
     0
 90
        2
176
     0
 62
     7
176
     0
 90
        5
176
     0
 90
        0
176
     0
 90
        0
176
     0
290
     0
176
     0
 90
        1
176
     0
 40
0.0
176
     0
 90
        0
176
     0
290
     0
176
     0
290
     1
176
     0
290
     1
176
     0
290
     0
176
     0
290
     0
176
     0
290
     0
176
     0
290
     0
176
     0
290
     0
176
     0
290
     0
176
     0
 90
       50
176
     0
 40
0.0
176
     0
 40
1.0
176
     0
 90
        0
176
     0
 62
    18
420
        0
176
     0
 90
       50
176
     0
 90
        3
176
     0
 62
     5
420
      255
176
     0
290
     0
176
     0
 90
       50
176
     0
 90
       50
176
     0
 90
       50
176
     0
290
     0
176
     0
 90
       50
176
     0
 62
   256
176
     0
 40
1.0
176
     0
 90
        2
176
     0
  1
strokes_ogs.tif
176
     0
290
     0
176
     0
 40
1.0
176
     0
 40
1.0
176
     0
  0
VISUALSTYLE
  5
35C7
102
{ACAD_REACTORS
330
35B8
102
}
330
35B8
100
AcDbVisualStyle
  2
Facepattern
 70
    15
177
     3
291
     1
 70
    58
 90
        2
176
     1
 90
        2
176
     1
 90
        0
176
     1
 90
        0
176
     1
 40
0.6
176
     1
 40
30.0
176
     1
 62
     7
420
 16777215
176
     1
 90
        1
176
     1
 90
        4
176
     1
 62
     7
176
     1
 62
   257
176
     1
 90
        1
176
     1
 90
        1
176
     1
 40
1.0
176
     1
 90
        8
176
     1
 62
     7
176
     1
 40
1.0
176
     1
 90
        1
176
     1
 90
        6
176
     1
 90
        2
176
     1
 62
     7
176
     1
 90
        5
176
     1
 90
        0
176
     1
 90
        0
176
     1
290
     0
176
     1
 90
        1
176
     1
 40
0.0
176
     1
 90
        0
176
     1
290
     0
176
     1
290
     1
176
     1
290
     1
176
     1
290
     0
176
     1
290
     0
176
     1
290
     0
176
     1
290
     0
176
     1
290
     0
176
     1
290
     0
176
     1
 90
       50
176
     1
 40
0.0
176
     1
 40
1.0
176
     1
 90
        0
176
     1
 62
    18
420
        0
176
     1
 90
       50
176
     1
 90
        3
176
     1
 62
     5
420
      255
176
     1
290
     0
176
     1
 90
       50
176
     1
 90
       50
176
     1
 90
       50
176
     1
290
     0
176
     1
 90
       50
176
     1
 62
   256
176
     0
 40
1.0
176
     0
 90
        2
176
     1
  1
strokes_ogs.tif
176
     1
290
     0
176
     1
 40
1.0
176
     1
 40
1.0
176
     1
  0
VISUALSTYLE
  5
35B9
102
{ACAD_REACTORS
330
35B8
102
}
330
35B8
100
AcDbVisualStyle
  2
Flat
 70
     0
177
     3
291
     1
 70
    58
 90
        2
176
     1
 90
        1
176
     1
 90
        1
176
     1
 90
        2
176
     1
 40
0.6
176
     1
 40
30.0
176
     1
 62
     7
420
 16777215
176
     1
 90
        0
176
     1
 90
        0
176
     1
 62
     7
176
     1
 62
   257
176
     1
 90
        1
176
     1
 90
        1
176
     1
 40
1.0
176
     1
 90
        8
176
     1
 62
     7
176
     1
 40
1.0
176
     1
 90
        1
176
     1
 90
        6
176
     1
 90
        2
176
     1
 62
     7
176
     1
 90
        5
176
     1
 90
        0
176
     1
 90
        0
176
     1
290
     0
176
     1
 90
       13
176
     1
 40
0.0
176
     1
 90
        0
176
     1
290
     0
176
     1
290
     1
176
     1
290
     1
176
     1
290
     0
176
     1
290
     0
176
     1
290
     0
176
     1
290
     0
176
     1
290
     0
176
     1
290
     0
176
     1
 90
       50
176
     1
 40
0.0
176
     1
 40
1.0
176
     1
 90
        0
176
     1
 62
    18
420
        0
176
     1
 90
       50
176
     1
 90
        3
176
     1
 62
     5
420
      255
176
     1
290
     0
176
     1
 90
       50
176
     1
 90
       50
176
     1
 90
       50
176
     1
290
     0
176
     1
 90
       50
176
     1
 62
   256
176
     0
 40
1.0
176
     0
 90
        2
176
     1
  1
strokes_ogs.tif
176
     1
290
     0
176
     1
 40
1.0
176
     1
 40
1.0
176
     1
  0
VISUALSTYLE
  5
35BA
102
{ACAD_REACTORS
330
35B8
102
}
330
35B8
100
AcDbVisualStyle
  2
FlatWithEdges
 70
     1
177
     3
291
     1
 70
    58
 90
        2
176
     1
 90
        1
176
     1
 90
        1
176
     1
 90
        2
176
     1
 40
0.6
176
     1
 40
30.0
176
     1
 62
     7
420
 16777215
176
     1
 90
        1
176
     1
 90
        0
176
     1
 62
     7
176
     1
 62
   257
176
     1
 90
        1
176
     1
 90
        1
176
     1
 40
1.0
176
     1
 90
        0
176
     1
 62
   257
176
     1
 40
1.0
176
     1
 90
        1
176
     1
 90
        6
176
     1
 90
        2
176
     1
 62
     7
176
     1
 90
        5
176
     1
 90
        0
176
     1
 90
        0
176
     1
290
     0
176
     1
 90
       13
176
     1
 40
0.0
176
     1
 90
        0
176
     1
290
     0
176
     1
290
     1
176
     1
290
     1
176
     1
290
     0
176
     1
290
     0
176
     1
290
     0
176
     1
290
     0
176
     1
290
     0
176
     1
290
     0
176
     1
 90
       50
176
     1
 40
0.0
176
     1
 40
1.0
176
     1
 90
        0
176
     1
 62
    18
420
        0
176
     1
 90
       50
176
     1
 90
        3
176
     1
 62
     5
420
      255
176
     1
290
     0
176
     1
 90
       50
176
     1
 90
       50
176
     1
 90
       50
176
     1
290
     0
176
     1
 90
       50
176
     1
 62
   256
176
     0
 40
1.0
176
     0
 90
        2
176
     1
  1
strokes_ogs.tif
176
     1
290
     0
176
     1
 40
1.0
176
     1
 40
1.0
176
     1
  0
VISUALSTYLE
  5
35BB
102
{ACAD_REACTORS
330
35B8
102
}
330
35B8
100
AcDbVisualStyle
  2
Gouraud
 70
     2
177
     3
291
     1
 70
    58
 90
        2
176
     1
 90
        2
176
     1
 90
        1
176
     1
 90
        2
176
     1
 40
0.6
176
     1
 40
30.0
176
     1
 62
     7
420
 16777215
176
     1
 90
        0
176
     1
 90
        0
176
     1
 62
     7
176
     1
 62
   257
176
     1
 90
        1
176
     1
 90
        1
176
     1
 40
1.0
176
     1
 90
        0
176
     1
 62
     7
176
     1
 40
1.0
176
     1
 90
        1
176
     1
 90
        6
176
     1
 90
        2
176
     1
 62
     7
176
     1
 90
        5
176
     1
 90
        0
176
     1
 90
        0
176
     1
290
     0
176
     1
 90
       13
176
     1
 40
0.0
176
     1
 90
        0
176
     1
290
     0
176
     1
290
     1
176
     1
290
     1
176
     1
290
     0
176
     1
290
     0
176
     1
290
     0
176
     1
290
     0
176
     1
290
     0
176
     1
290
     0
176
     1
 90
       50
176
     1
 40
0.0
176
     1
 40
1.0
176
     1
 90
        0
176
     1
 62
    18
420
        0
176
     1
 90
       50
176
     1
 90
        3
176
     1
 62
     5
420
      255
176
     1
290
     0
176
     1
 90
       50
176
     1
 90
       50
176
     1
 90
       50
176
     1
290
     0
176
     1
 90
       50
176
     1
 62
   256
176
     0
 40
1.0
176
     0
 90
        2
176
     1
  1
strokes_ogs.tif
176
     1
290
     0
176
     1
 40
1.0
176
     1
 40
1.0
176
     1
  0
VISUALSTYLE
  5
35BC
102
{ACAD_REACTORS
330
35B8
102
}
330
35B8
100
AcDbVisualStyle
  2
GouraudWithEdges
 70
     3
177
     3
291
     1
 70
    58
 90
        2
176
     1
 90
        2
176
     1
 90
        1
176
     1
 90
        2
176
     1
 40
0.6
176
     1
 40
30.0
176
     1
 62
     7
420
 16777215
176
     1
 90
        1
176
     1
 90
        0
176
     1
 62
     7
176
     1
 62
   257
176
     1
 90
        1
176
     1
 90
        1
176
     1
 40
1.0
176
     1
 90
        0
176
     1
 62
   257
176
     1
 40
1.0
176
     1
 90
        1
176
     1
 90
        6
176
     1
 90
        2
176
     1
 62
     7
176
     1
 90
        5
176
     1
 90
        0
176
     1
 90
        0
176
     1
290
     0
176
     1
 90
       13
176
     1
 40
0.0
176
     1
 90
        0
176
     1
290
     0
176
     1
290
     1
176
     1
290
     1
176
     1
290
     0
176
     1
290
     0
176
     1
290
     0
176
     1
290
     0
176
     1
290
     0
176
     1
290
     0
176
     1
 90
       50
176
     1
 40
0.0
176
     1
 40
1.0
176
     1
 90
        0
176
     1
 62
    18
420
        0
176
     1
 90
       50
176
     1
 90
        3
176
     1
 62
     5
420
      255
176
     1
290
     0
176
     1
 90
       50
176
     1
 90
       50
176
     1
 90
       50
176
     1
290
     0
176
     1
 90
       50
176
     1
 62
   256
176
     0
 40
1.0
176
     0
 90
        2
176
     1
  1
strokes_ogs.tif
176
     1
290
     0
176
     1
 40
1.0
176
     1
 40
1.0
176
     1
  0
VISUALSTYLE
  5
35BF
102
{ACAD_REACTORS
330
35B8
102
}
330
35B8
100
AcDbVisualStyle
  2
Hidden
 70
     6
177
     3
291
     0
 70
    58
 90
        1
176
     1
 90
        2
176
     1
 90
        2
176
     1
 90
        0
176
     1
 40
0.6
176
     1
 40
30.0
176
     1
 62
     7
420
 16777215
176
     1
 90
        2
176
     1
 90
        2
176
     1
 62
     7
176
     1
 62
   257
176
     1
 90
        2
176
     1
 90
        1
176
     1
 40
40.0
176
     1
 90
        0
176
     1
 62
   257
176
     1
 40
1.0
176
     1
 90
        1
176
     1
 90
        6
176
     1
 90
        2
176
     1
 62
     7
176
     1
 90
        3
176
     1
 90
        0
176
     1
 90
        0
176
     1
290
     0
176
     1
 90
        1
176
     1
 40
0.0
176
     1
 90
        0
176
     1
290
     0
176
     1
290
     1
176
     1
290
     1
176
     1
290
     0
176
     1
290
     0
176
     1
290
     0
176
     1
290
     0
176
     1
290
     0
176
     1
290
     0
176
     1
 90
       50
176
     1
 40
0.0
176
     1
 40
1.0
176
     1
 90
        0
176
     1
 62
    18
420
        0
176
     1
 90
       50
176
     1
 90
        3
176
     1
 62
     5
420
      255
176
     1
290
     0
176
     1
 90
       50
176
     1
 90
       50
176
     1
 90
       50
176
     1
290
     0
176
     1
 90
       50
176
     1
 62
   256
176
     0
 40
1.0
176
     0
 90
        2
176
     1
  1
strokes_ogs.tif
176
     1
290
     0
176
     1
 40
1.0
176
     1
 40
1.0
176
     1
  0
VISUALSTYLE
  5
35C9
102
{ACAD_REACTORS
330
35B8
102
}
330
35B8
100
AcDbVisualStyle
  2
JitterOff
 70
    20
177
     3
291
     1
 70
    58
 90
        2
176
     0
 90
        2
176
     0
 90
        0
176
     0
 90
        0
176
     0
 40
0.6
176
     0
 40
30.0
176
     0
 62
     7
420
 16777215
176
     0
 90
        1
176
     0
 90
        4
176
     0
 62
     7
176
     0
 62
   257
176
     0
 90
        1
176
     0
 90
        1
176
     0
 40
1.0
176
     0
 90
       10
176
     2
 62
     7
176
     0
 40
1.0
176
     0
 90
        1
176
     0
 90
        6
176
     0
 90
        2
176
     0
 62
     7
176
     0
 90
        5
176
     0
 90
        0
176
     0
 90
        0
176
     0
290
     0
176
     0
 90
        1
176
     0
 40
0.0
176
     0
 90
        0
176
     0
290
     0
176
     0
290
     1
176
     0
290
     1
176
     0
290
     0
176
     0
290
     0
176
     0
290
     0
176
     0
290
     0
176
     0
290
     0
176
     0
290
     0
176
     0
 90
       50
176
     0
 40
0.0
176
     0
 40
1.0
176
     0
 90
        0
176
     0
 62
    18
420
        0
176
     0
 90
       50
176
     0
 90
        3
176
     0
 62
     5
420
      255
176
     0
290
     0
176
     0
 90
       50
176
     0
 90
       50
176
     0
 90
       50
176
     0
290
     0
176
     0
 90
       50
176
     0
 62
   256
176
     0
 40
1.0
176
     0
 90
        2
176
     0
  1
strokes_ogs.tif
176
     0
290
     0
176
     0
 40
1.0
176
     0
 40
1.0
176
     0
  0
VISUALSTYLE
  5
35C6
102
{ACAD_REACTORS
330
35B8
102
}
330
35B8
100
AcDbVisualStyle
  2
Linepattern
 70
    14
177
     3
291
     1
 70
    58
 90
        2
176
     1
 90
        2
176
     1
 90
        0
176
     1
 90
        0
176
     1
 40
0.6
176
     1
 40
30.0
176
     1
 62
     7
420
 16777215
176
     1
 90
        1
176
     1
 90
        4
176
     1
 62
     7
176
     1
 62
   257
176
     1
 90
        7
176
     1
 90
        7
176
     1
 40
1.0
176
     1
 90
        8
176
     1
 62
     7
176
     1
 40
1.0
176
     1
 90
        1
176
     1
 90
        6
176
     1
 90
        2
176
     1
 62
     7
176
     1
 90
        5
176
     1
 90
        0
176
     1
 90
        0
176
     1
290
     0
176
     1
 90
        1
176
     1
 40
0.0
176
     1
 90
        0
176
     1
290
     0
176
     1
290
     1
176
     1
290
     1
176
     1
290
     0
176
     1
290
     0
176
     1
290
     0
176
     1
290
     0
176
     1
290
     0
176
     1
290
     0
176
     1
 90
       50
176
     1
 40
0.0
176
     1
 40
1.0
176
     1
 90
        0
176
     1
 62
    18
420
        0
176
     1
 90
       50
176
     1
 90
        3
176
     1
 62
     5
420
      255
176
     1
290
     0
176
     1
 90
       50
176
     1
 90
       50
176
     1
 90
       50
176
     1
290
     0
176
     1
 90
       50
176
     1
 62
   256
176
     0
 40
1.0
176
     0
 90
        2
176
     1
  1
strokes_ogs.tif
176
     1
290
     0
176
     1
 40
1.0
176
     1
 40
1.0
176
     1
  0
VISUALSTYLE
  5
35CA
102
{ACAD_REACTORS
330
35B8
102
}
330
35B8
100
AcDbVisualStyle
  2
OverhangOff
 70
    21
177
     3
291
     1
 70
    58
 90
        2
176
     0
 90
        2
176
     0
 90
        0
176
     0
 90
        0
176
     0
 40
0.6
176
     0
 40
30.0
176
     0
 62
     7
420
 16777215
176
     0
 90
        1
176
     0
 90
        4
176
     0
 62
     7
176
     0
 62
   257
176
     0
 90
        1
176
     0
 90
        1
176
     0
 40
1.0
176
     0
 90
        9
176
     2
 62
     7
176
     0
 40
1.0
176
     0
 90
        1
176
     0
 90
        6
176
     0
 90
        2
176
     0
 62
     7
176
     0
 90
        5
176
     0
 90
        0
176
     0
 90
        0
176
     0
290
     0
176
     0
 90
        1
176
     0
 40
0.0
176
     0
 90
        0
176
     0
290
     0
176
     0
290
     1
176
     0
290
     1
176
     0
290
     0
176
     0
290
     0
176
     0
290
     0
176
     0
290
     0
176
     0
290
     0
176
     0
290
     0
176
     0
 90
       50
176
     0
 40
0.0
176
     0
 40
1.0
176
     0
 90
        0
176
     0
 62
    18
420
        0
176
     0
 90
       50
176
     0
 90
        3
176
     0
 62
     5
420
      255
176
     0
290
     0
176
     0
 90
       50
176
     0
 90
       50
176
     0
 90
       50
176
     0
290
     0
176
     0
 90
       50
176
     0
 62
   256
176
     0
 40
1.0
176
     0
 90
        2
176
     0
  1
strokes_ogs.tif
176
     0
290
     0
176
     0
 40
1.0
176
     0
 40
1.0
176
     0
  0
VISUALSTYLE
  5
35C1
102
{ACAD_REACTORS
330
35B8
102
}
330
35B8
100
AcDbVisualStyle
  2
Realistic
 70
     8
177
     3
291
     0
 70
    58
 90
        2
176
     1
 90
        3
176
     1
 90
        0
176
     1
 90
        2
176
     1
 40
0.6
176
     1
 40
30.0
176
     1
 62
     7
420
 16777215
176
     1
 90
        0
176
     1
 90
        0
176
     1
 62
     7
176
     1
 62
   257
176
     1
 90
        1
176
     1
 90
        1
176
     1
 40
1.0
176
     1
 90
        8
176
     1
 62
   257
176
     1
 40
1.0
176
     1
 90
        1
176
     1
 90
        6
176
     1
 90
        2
176
     1
 62
     7
176
     1
 90
        3
176
     1
 90
        0
176
     1
 90
        0
176
     1
290
     0
176
     1
 90
       13
176
     1
 40
0.0
176
     1
 90
        0
176
     1
290
     0
176
     1
290
     1
176
     1
290
     1
176
     1
290
     0
176
     1
290
     0
176
     1
290
     0
176
     1
290
     0
176
     1
290
     0
176
     1
290
     0
176
     1
 90
       50
176
     1
 40
0.0
176
     1
 40
1.0
176
     1
 90
        0
176
     1
 62
    18
420
        0
176
     1
 90
       50
176
     1
 90
        3
176
     1
 62
     5
420
      255
176
     1
290
     0
176
     1
 90
       50
176
     1
 90
       50
176
     1
 90
       50
176
     1
290
     0
176
     1
 90
       50
176
     1
 62
   256
176
     0
 40
1.0
176
     0
 90
        2
176
     1
  1
strokes_ogs.tif
176
     1
290
     0
176
     1
 40
1.0
176
     1
 40
1.0
176
     1
  0
VISUALSTYLE
  5
35D0
102
{ACAD_REACTORS
330
35B8
102
}
330
35B8
100
AcDbVisualStyle
  2
Shaded
 70
    27
177
     3
291
     0
 70
    58
 90
        2
176
     1
 90
        2
176
     1
 90
        1
176
     1
 90
        2
176
     1
 40
0.6
176
     1
 40
30.0
176
     1
 62
     7
420
 16777215
176
     1
 90
        0
176
     1
 90
        4
176
     1
 62
     7
176
     1
 62
   257
176
     1
 90
        1
176
     1
 90
        1
176
     1
 40
1.0
176
     1
 90
        8
176
     1
 62
   257
176
     1
 40
1.0
176
     1
 90
        1
176
     1
 90
        6
176
     1
 90
        2
176
     1
 62
     8
420
  7895160
176
     1
 90
        3
176
     1
 90
        0
176
     1
 90
        0
176
     1
290
     0
176
     1
 90
        5
176
     1
 40
0.0
176
     1
 90
        0
176
     1
290
     0
176
     1
290
     1
176
     1
290
     1
176
     1
290
     0
176
     1
290
     0
176
     1
290
     0
176
     1
290
     0
176
     1
290
     0
176
     1
290
     0
176
     1
 90
       50
176
     1
 40
0.0
176
     1
 40
1.0
176
     1
 90
        0
176
     1
 62
    18
420
        0
176
     1
 90
       50
176
     1
 90
        3
176
     1
 62
     5
420
      255
176
     1
290
     0
176
     1
 90
       50
176
     1
 90
       50
176
     1
 90
       50
176
     1
290
     0
176
     1
 90
       50
176
     1
 62
   256
176
     0
 40
1.0
176
     0
 90
        2
176
     1
  1
strokes_ogs.tif
176
     1
290
     0
176
     1
 40
1.0
176
     1
 40
1.0
176
     1
  0
VISUALSTYLE
  5
35CF
102
{ACAD_REACTORS
330
35B8
102
}
330
35B8
100
AcDbVisualStyle
  2
Shaded with edges
 70
    26
177
     3
291
     0
 70
    58
 90
        2
176
     1
 90
        2
176
     1
 90
        1
176
     1
 90
        2
176
     1
 40
0.6
176
     1
 40
30.0
176
     1
 62
     7
420
 16777215
176
     1
 90
        1
176
     1
 90
       10
176
     1
 62
     7
176
     1
 62
   257
176
     1
 90
        2
176
     1
 90
        1
176
     1
 40
1.0
176
     1
 90
        8
176
     1
 62
   257
176
     1
 40
1.0
176
     1
 90
        1
176
     1
 90
        6
176
     1
 90
        2
176
     1
 62
     7
176
     1
 90
        3
176
     1
 90
        0
176
     1
 90
        0
176
     1
290
     0
176
     1
 90
        5
176
     1
 40
0.0
176
     1
 90
        0
176
     1
290
     0
176
     1
290
     1
176
     1
290
     1
176
     1
290
     0
176
     1
290
     0
176
     1
290
     0
176
     1
290
     0
176
     1
290
     0
176
     1
290
     0
176
     1
 90
       50
176
     1
 40
0.0
176
     1
 40
1.0
176
     1
 90
        0
176
     1
 62
    18
420
        0
176
     1
 90
       50
176
     1
 90
        3
176
     1
 62
     5
420
      255
176
     1
290
     0
176
     1
 90
       50
176
     1
 90
       50
176
     1
 90
       50
176
     1
290
     0
176
     1
 90
       50
176
     1
 62
   256
176
     0
 40
1.0
176
     0
 90
        2
176
     1
  1
strokes_ogs.tif
176
     1
290
     0
176
     1
 40
1.0
176
     1
 40
1.0
176
     1
  0
VISUALSTYLE
  5
35CC
102
{ACAD_REACTORS
330
35B8
102
}
330
35B8
100
AcDbVisualStyle
  2
Shades of Gray
 70
    23
177
     3
291
     0
 70
    58
 90
        2
176
     1
 90
        2
176
     1
 90
        3
176
     1
 90
        0
176
     1
 40
0.6
176
     1
 40
30.0
176
     1
 62
     7
420
 16777215
176
     1
 90
        2
176
     1
 90
        2
176
     1
 62
     7
176
     1
 62
     7
176
     1
 90
        1
176
     1
 90
        1
176
     1
 40
40.0
176
     1
 90
        8
176
     1
 62
     7
176
     1
 40
1.0
176
     1
 90
        1
176
     1
 90
        6
176
     1
 90
        2
176
     1
 62
     7
176
     1
 90
        3
176
     1
 90
        0
176
     1
 90
        0
176
     1
290
     0
176
     1
 90
        1
176
     1
 40
0.0
176
     1
 90
        0
176
     1
290
     0
176
     1
290
     1
176
     1
290
     1
176
     1
290
     0
176
     1
290
     0
176
     1
290
     0
176
     1
290
     0
176
     1
290
     0
176
     1
290
     0
176
     1
 90
       50
176
     1
 40
0.0
176
     1
 40
1.0
176
     1
 90
        0
176
     1
 62
    18
420
        0
176
     1
 90
       50
176
     1
 90
        3
176
     1
 62
     5
420
      255
176
     1
290
     0
176
     1
 90
       50
176
     1
 90
       50
176
     1
 90
       50
176
     1
290
     0
176
     1
 90
       50
176
     1
 62
   256
176
     0
 40
1.0
176
     0
 90
        2
176
     1
  1
strokes_ogs.tif
176
     1
290
     0
176
     1
 40
1.0
176
     1
 40
1.0
176
     1
  0
VISUALSTYLE
  5
35CD
102
{ACAD_REACTORS
330
35B8
102
}
330
35B8
100
AcDbVisualStyle
  2
Sketchy
 70
    24
177
     3
291
     0
 70
    58
 90
        1
176
     1
 90
        2
176
     1
 90
        2
176
     1
 90
        0
176
     1
 40
0.6
176
     1
 40
30.0
176
     1
 62
     7
420
 16777215
176
     1
 90
        2
176
     1
 90
        2
176
     1
 62
     7
176
     1
 62
     7
176
     1
 90
        1
176
     1
 90
        1
176
     1
 40
40.0
176
     1
 90
       11
176
     1
 62
     7
176
     1
 40
1.0
176
     1
 90
        1
176
     1
 90
        6
176
     1
 90
        2
176
     1
 62
     7
176
     1
 90
        6
176
     1
 90
        0
176
     1
 90
        0
176
     1
290
     0
176
     1
 90
        1
176
     1
 40
0.0
176
     1
 90
        0
176
     1
290
     0
176
     1
290
     1
176
     1
290
     1
176
     1
290
     0
176
     1
290
     0
176
     1
290
     0
176
     1
290
     0
176
     1
290
     0
176
     1
290
     0
176
     1
 90
       50
176
     1
 40
0.0
176
     1
 40
1.0
176
     1
 90
        0
176
     1
 62
    18
420
        0
176
     1
 90
       50
176
     1
 90
        3
176
     1
 62
     5
420
      255
176
     1
290
     0
176
     1
 90
       50
176
     1
 90
       50
176
     1
 90
       50
176
     1
290
     0
176
     1
 90
       50
176
     1
 62
   256
176
     0
 40
1.0
176
     0
 90
        2
176
     1
  1
strokes_ogs.tif
176
     1
290
     0
176
     1
 40
1.0
176
     1
 40
1.0
176
     1
  0
VISUALSTYLE
  5
35C5
102
{ACAD_REACTORS
330
35B8
102
}
330
35B8
100
AcDbVisualStyle
  2
Thicken
 70
    13
177
     3
291
     1
 70
    58
 90
        2
176
     1
 90
        2
176
     1
 90
        0
176
     1
 90
        0
176
     1
 40
0.6
176
     1
 40
30.0
176
     1
 62
     7
420
 16777215
176
     1
 90
        1
176
     1
 90
        4
176
     1
 62
     7
176
     1
 62
   257
176
     1
 90
        1
176
     1
 90
        1
176
     1
 40
1.0
176
     1
 90
       12
176
     1
 62
     7
176
     1
 40
1.0
176
     1
 90
        1
176
     1
 90
        6
176
     1
 90
        2
176
     1
 62
     7
176
     1
 90
        5
176
     1
 90
        0
176
     1
 90
        0
176
     1
290
     0
176
     1
 90
        1
176
     1
 40
0.0
176
     1
 90
        0
176
     1
290
     0
176
     1
290
     1
176
     1
290
     1
176
     1
290
     0
176
     1
290
     0
176
     1
290
     0
176
     1
290
     0
176
     1
290
     0
176
     1
290
     0
176
     1
 90
       50
176
     1
 40
0.0
176
     1
 40
1.0
176
     1
 90
        0
176
     1
 62
    18
420
        0
176
     1
 90
       50
176
     1
 90
        3
176
     1
 62
     5
420
      255
176
     1
290
     0
176
     1
 90
       50
176
     1
 90
       50
176
     1
 90
       50
176
     1
290
     0
176
     1
 90
       50
176
     1
 62
   256
176
     0
 40
1.0
176
     0
 90
        2
176
     1
  1
strokes_ogs.tif
176
     1
290
     0
176
     1
 40
1.0
176
     1
 40
1.0
176
     1
  0
VISUALSTYLE
  5
35BE
102
{ACAD_REACTORS
330
35B8
102
}
330
35B8
100
AcDbVisualStyle
  2
Wireframe
 70
     5
177
     3
291
     0
 70
    58
 90
        0
176
     1
 90
        2
176
     1
 90
        0
176
     1
 90
        0
176
     1
 40
0.6
176
     1
 40
30.0
176
     1
 62
     7
420
 16777215
176
     1
 90
        1
176
     1
 90
        4
176
     1
 62
     7
176
     1
 62
   257
176
     1
 90
        1
176
     1
 90
        1
176
     1
 40
1.0
176
     1
 90
        0
176
     1
 62
   257
176
     1
 40
1.0
176
     1
 90
        1
176
     1
 90
        6
176
     1
 90
        2
176
     1
 62
     7
176
     1
 90
        3
176
     1
 90
        0
176
     1
 90
        0
176
     1
290
     0
176
     1
 90
        1
176
     1
 40
0.0
176
     1
 90
        0
176
     1
290
     0
176
     1
290
     1
176
     1
290
     1
176
     1
290
     0
176
     1
290
     0
176
     1
290
     0
176
     1
290
     0
176
     1
290
     0
176
     1
290
     0
176
     1
 90
       50
176
     1
 40
0.0
176
     1
 40
1.0
176
     1
 90
        0
176
     1
 62
    18
420
        0
176
     1
 90
       50
176
     1
 90
        3
176
     1
 62
     5
420
      255
176
     1
290
     0
176
     1
 90
       50
176
     1
 90
       50
176
     1
 90
       50
176
     1
290
     0
176
     1
 90
       50
176
     1
 62
   256
176
     0
 40
1.0
176
     0
 90
        2
176
     1
  1
strokes_ogs.tif
176
     1
290
     0
176
     1
 40
1.0
176
     1
 40
1.0
176
     1
  0
VISUALSTYLE
  5
35CE
102
{ACAD_REACTORS
330
35B8
102
}
330
35B8
100
AcDbVisualStyle
  2
X-Ray
 70
    25
177
     3
291
     0
 70
    58
 90
        2
176
     1
 90
        2
176
     1
 90
        1
176
     1
 90
        1
176
     1
 40
0.5
176
     1
 40
30.0
176
     1
 62
     7
420
 16777215
176
     1
 90
        1
176
     1
 90
        0
176
     1
 62
     7
176
     1
 62
   257
176
     1
 90
        1
176
     1
 90
        1
176
     1
 40
1.0
176
     1
 90
        8
176
     1
 62
     7
176
     1
 40
1.0
176
     1
 90
        1
176
     1
 90
        6
176
     1
 90
        2
176
     1
 62
     7
176
     1
 90
        3
176
     1
 90
        0
176
     1
 90
        0
176
     1
290
     0
176
     1
 90
       13
176
     1
 40
0.0
176
     1
 90
        0
176
     1
290
     0
176
     1
290
     1
176
     1
290
     1
176
     1
290
     0
176
     1
290
     0
176
     1
290
     0
176
     1
290
     0
176
     1
290
     0
176
     1
290
     0
176
     1
 90
       50
176
     1
 40
0.0
176
     1
 40
1.0
176
     1
 90
        0
176
     1
 62
    18
420
        0
176
     1
 90
       50
176
     1
 90
        3
176
     1
 62
     5
420
      255
176
     1
290
     0
176
     1
 90
       50
176
     1
 90
       50
176
     1
 90
       50
176
     1
290
     0
176
     1
 90
       50
176
     1
 62
   256
176
     0
 40
1.0
176
     0
 90
        2
176
     1
  1
strokes_ogs.tif
176
     1
290
     0
176
     1
 40
1.0
176
     1
 40
1.0
176
     1
  0
DICTIONARYVAR
  5
3680
102
{ACAD_REACTORS
330
367F
102
}
330
367F
100
DictionaryVariables
280
     0
  1
1:1
  0
DICTIONARYVAR
  5
3685
102
{ACAD_REACTORS
330
367F
102
}
330
367F
100
DictionaryVariables
280
     0
  1
Standard
  0
DICTIONARYVAR
  5
3684
102
{ACAD_REACTORS
330
367F
102
}
330
367F
100
DictionaryVariables
280
     0
  1
Standard
  0
XRECORD
  5
35FF
102
{ACAD_REACTORS
330
35FD
102
}
330
35FD
100
AcDbXrecord
280
     1
1000
#ffffff
  0
XRECORD
  5
3600
102
{ACAD_REACTORS
330
35FD
102
}
330
35FD
100
AcDbXrecord
280
     1
1000
FullColor
  0
XRECORD
  5
3601
102
{ACAD_REACTORS
330
35FD
102
}
330
35FD
100
AcDbXrecord
280
     1
 90
        0
  0
XRECORD
  5
3602
102
{ACAD_REACTORS
330
35FD
102
}
330
35FD
100
AcDbXrecord
280
     1
 90
        0
  0
XRECORD
  5
3603
102
{ACAD_REACTORS
330
35FD
102
}
330
35FD
100
AcDbXrecord
280
     1
 90
       46
  0
XRECORD
  5
3604
102
{ACAD_REACTORS
330
35FD
102
}
330
35FD
100
AcDbXrecord
280
     1
1000

  0
XRECORD
  5
3605
102
{ACAD_REACTORS
330
35FD
102
}
330
35FD
100
AcDbXrecord
280
     1
290
     1
  0
XRECORD
  5
3606
102
{ACAD_REACTORS
330
35FD
102
}
330
35FD
100
AcDbXrecord
280
     1
 90
        2
  0
XRECORD
  5
3607
102
{ACAD_REACTORS
330
35FD
102
}
330
35FD
100
AcDbXrecord
280
     1
 90
        4
  0
XRECORD
  5
3608
102
{ACAD_REACTORS
330
35FD
102
}
330
35FD
100
AcDbXrecord
280
     1
290
     1
  0
XRECORD
  5
3609
102
{ACAD_REACTORS
330
35FD
102
}
330
35FD
100
AcDbXrecord
280
     1
290
     1
  0
XRECORD
  5
360A
102
{ACAD_REACTORS
330
35FD
102
}
330
35FD
100
AcDbXrecord
280
     1
290
     1
  0
XRECORD
  5
360B
102
{ACAD_REACTORS
330
35FD
102
}
330
35FD
100
AcDbXrecord
280
     1
290
     1
  0
XRECORD
  5
360C
102
{ACAD_REACTORS
330
35FD
102
}
330
35FD
100
AcDbXrecord
280
     1
1000
auto
  0
XRECORD
  5
360D
102
{ACAD_REACTORS
330
35FD
102
}
330
35FD
100
AcDbXrecord
280
     1
1000
auto
  0
XRECORD
  5
360E
102
{ACAD_REACTORS
330
35FD
102
}
330
35FD
100
AcDbXrecord
280
     1
1000
auto
  0
XRECORD
  5
360F
102
{ACAD_REACTORS
330
35FD
102
}
330
35FD
100
AcDbXrecord
280
     1
1000
auto
  0
XRECORD
  5
3610
102
{ACAD_REACTORS
330
35FD
102
}
330
35FD
100
AcDbXrecord
280
     1
1000
auto
  0
XRECORD
  5
3611
102
{ACAD_REACTORS
330
35FD
102
}
330
35FD
100
AcDbXrecord
280
     1
1000
auto
  0
XRECORD
  5
3612
102
{ACAD_REACTORS
330
35FD
102
}
330
35FD
100
AcDbXrecord
280
     1
1000
auto
  0
XRECORD
  5
3613
102
{ACAD_REACTORS
330
35FD
102
}
330
35FD
100
AcDbXrecord
280
     1
1000
auto
  0
XRECORD
  5
3614
102
{ACAD_REACTORS
330
35FD
102
}
330
35FD
100
AcDbXrecord
280
     1
290
     0
  0
XRECORD
  5
3615
102
{ACAD_REACTORS
330
35FD
102
}
330
35FD
100
AcDbXrecord
280
     1
290
     0
  0
XRECORD
  5
3616
102
{ACAD_REACTORS
330
35FD
102
}
330
35FD
100
AcDbXrecord
280
     1
290
     0
  0
XRECORD
  5
3617
102
{ACAD_REACTORS
330
35FD
102
}
330
35FD
100
AcDbXrecord
280
     1
290
     0
  0
XRECORD
  5
3618
102
{ACAD_REACTORS
330
35FD
102
}
330
35FD
100
AcDbXrecord
280
     1
 90
    65537
  0
XRECORD
  5
3619
102
{ACAD_REACTORS
330
35FD
102
}
330
35FD
100
AcDbXrecord
280
     1
 90
    65537
  0
XRECORD
  5
361A
102
{ACAD_REACTORS
330
35FD
102
}
330
35FD
100
AcDbXrecord
280
     1
 90
    65537
  0
XRECORD
  5
361B
102
{ACAD_REACTORS
330
35FD
102
}
330
35FD
100
AcDbXrecord
280
     1
 90
    65537
  0
XRECORD
  5
361C
102
{ACAD_REACTORS
330
35FD
102
}
330
35FD
100
AcDbXrecord
280
     1
1000
auto
  0
XRECORD
  5
361D
102
{ACAD_REACTORS
330
35FD
102
}
330
35FD
100
AcDbXrecord
280
     1
1000
auto
  0
XRECORD
  5
361E
102
{ACAD_REACTORS
330
35FD
102
}
330
35FD
100
AcDbXrecord
280
     1
1000
auto
  0
XRECORD
  5
361F
102
{ACAD_REACTORS
330
35FD
102
}
330
35FD
100
AcDbXrecord
280
     1
1000
auto
  0
XRECORD
  5
3620
102
{ACAD_REACTORS
330
35FD
102
}
330
35FD
100
AcDbXrecord
280
     1
1000
auto
  0
XRECORD
  5
3621
102
{ACAD_REACTORS
330
35FD
102
}
330
35FD
100
AcDbXrecord
280
     1
1000
auto
  0
XRECORD
  5
3622
102
{ACAD_REACTORS
330
35FD
102
}
330
35FD
100
AcDbXrecord
280
     1
1000
auto
  0
XRECORD
  5
3623
102
{ACAD_REACTORS
330
35FD
102
}
330
35FD
100
AcDbXrecord
280
     1
1000
auto
  0
XRECORD
  5
3624
102
{ACAD_REACTORS
330
35FD
102
}
330
35FD
100
AcDbXrecord
280
     1
 90
        1
  0
XRECORD
  5
3625
102
{ACAD_REACTORS
330
35FD
102
}
330
35FD
100
AcDbXrecord
280
     1
 40
0.5
  0
XRECORD
  5
3626
102
{ACAD_REACTORS
330
35FD
102
}
330
35FD
100
AcDbXrecord
280
     1
 40
0.5
  0
XRECORD
  5
3627
102
{ACAD_REACTORS
330
35FD
102
}
330
35FD
100
AcDbXrecord
280
     1
 40
0.5
  0
XRECORD
  5
3628
102
{ACAD_REACTORS
330
35FD
102
}
330
35FD
100
AcDbXrecord
280
     1
 40
0.5
  0
XRECORD
  5
3629
102
{ACAD_REACTORS
330
35FD
102
}
330
35FD
100
AcDbXrecord
280
     1
290
     0
  0
XRECORD
  5
362A
102
{ACAD_REACTORS
330
35FD
102
}
330
35FD
100
AcDbXrecord
280
     1
 90
        1
  0
XRECORD
  5
362B
102
{ACAD_REACTORS
330
35FD
102
}
330
35FD
100
AcDbXrecord
280
     1
 40
0.0
  0
XRECORD
  5
362C
102
{ACAD_REACTORS
330
35FD
102
}
330
35FD
100
AcDbXrecord
280
     1
 40
0.0
  0
XRECORD
  5
362D
102
{ACAD_REACTORS
330
35FD
102
}
330
35FD
100
AcDbXrecord
280
     1
1000
Portrait
  0
XRECORD
  5
362E
102
{ACAD_REACTORS
330
35FD
102
}
330
35FD
100
AcDbXrecord
280
     1
 40
900.0
  0
XRECORD
  5
362F
102
{ACAD_REACTORS
330
35FD
102
}
330
35FD
100
AcDbXrecord
280
     1
 40
900.0
  0
XRECORD
  5
3630
102
{ACAD_REACTORS
330
35FD
102
}
330
35FD
100
AcDbXrecord
280
     1
1000
1:1
  0
XRECORD
  5
3631
102
{ACAD_REACTORS
330
35FD
102
}
330
35FD
100
AcDbXrecord
280
     1
290
     1
  0
XRECORD
  5
3632
102
{ACAD_REACTORS
330
35FD
102
}
330
35FD
100
AcDbXrecord
280
     1
290
     0
  0
XRECORD
  5
3633
102
{ACAD_REACTORS
330
35FD
102
}
330
35FD
100
AcDbXrecord
280
     1
1000
Inside
  0
XRECORD
  5
3634
102
{ACAD_REACTORS
330
35FD
102
}
330
35FD
100
AcDbXrecord
280
     1
1000
Arial,10,-1,5,50,0,0,0,0,0
  0
XRECORD
  5
3635
102
{ACAD_REACTORS
330
35FD
102
}
330
35FD
100
AcDbXrecord
280
     1
1000
TopLeft
  0
XRECORD
  5
3636
102
{ACAD_REACTORS
330
35FD
102
}
330
35FD
100
AcDbXrecord
280
     1
1000
3.26.1
  0
XRECORD
  5
3637
102
{ACAD_REACTORS
330
35FD
102
}
330
35FD
100
AcDbXrecord
280
     1
 90
        4
  0
XRECORD
  5
3638
102
{ACAD_REACTORS
330
35FD
102
}
330
35FD
100
AcDbXrecord
280
     1
  0
XRECORD
  5
3639
102
{ACAD_REACTORS
330
35FD
102
}
330
35FD
100
AcDbXrecord
280
     1
 40
68.49133142333554
  0
XRECORD
  5
363A
102
{ACAD_REACTORS
330
35FD
102
}
330
35FD
100
AcDbXrecord
280
     1
 40
131.1147257443909
  0
DICTIONARY
  5
3681
330
35F8
100
AcDbDictionary
280
     1
281
     1
  3
ACAD_ROUNDTRIP_2008_TABLESTYLE_CELLSTYLEMAP
360
3682
  0
CELLSTYLEMAP
  5
3682
102
{ACAD_REACTORS
330
3681
102
}
330
3681
100
AcDbCellStyleMap
 90
        3
300
CELLSTYLE
  1
TABLEFORMAT_BEGIN
 90
        5
170
     1
 91
        0
 92
    32768
 62
   257
 93
        1
300
CONTENTFORMAT
  1
CONTENTFORMAT_BEGIN
 90
        0
 91
        0
 92
        4
 93
        0
300

 40
0.0
140
1.0
 94
        5
 62
     0
340
35A0
144
0.25
309
CONTENTFORMAT_END
171
     1
301
MARGIN
  1
CELLMARGIN_BEGIN
 40
0.06
 40
0.06
 40
0.06
 40
0.06
 40
0.06
 40
0.06
309
CELLMARGIN_END
 94
        6
 95
        1
302
GRIDFORMAT
  1
GRIDFORMAT_BEGIN
 90
        0
 91
        1
 62
     0
 92
       -2
340
35A2
 93
        0
 40
0.045
309
GRIDFORMAT_END
 95
        2
302
GRIDFORMAT
  1
GRIDFORMAT_BEGIN
 90
        0
 91
        1
 62
     0
 92
       -2
340
35A2
 93
        0
 40
0.045
309
GRIDFORMAT_END
 95
        4
302
GRIDFORMAT
  1
GRIDFORMAT_BEGIN
 90
        0
 91
        1
 62
     0
 92
       -2
340
35A2
 93
        0
 40
0.045
309
GRIDFORMAT_END
 95
        8
302
GRIDFORMAT
  1
GRIDFORMAT_BEGIN
 90
        0
 91
        1
 62
     0
 92
       -2
340
35A2
 93
        0
 40
0.045
309
GRIDFORMAT_END
 95
       16
302
GRIDFORMAT
  1
GRIDFORMAT_BEGIN
 90
        0
 91
        1
 62
     0
 92
       -2
340
35A2
 93
        0
 40
0.045
309
GRIDFORMAT_END
 95
       32
302
GRIDFORMAT
  1
GRIDFORMAT_BEGIN
 90
        0
 91
        1
 62
     0
 92
       -2
340
35A2
 93
        0
 40
0.045
309
GRIDFORMAT_END
309
TABLEFORMAT_END
  1
CELLSTYLE_BEGIN
 90
        1
 91
        1
300
_TITLE
309
CELLSTYLE_END
300
CELLSTYLE
  1
TABLEFORMAT_BEGIN
 90
        5
170
     1
 91
        0
 92
        0
 62
   257
 93
        1
300
CONTENTFORMAT
  1
CONTENTFORMAT_BEGIN
 90
        0
 91
        0
 92
        4
 93
        0
300

 40
0.0
140
1.0
 94
        5
 62
     0
340
35A0
144
0.18
309
CONTENTFORMAT_END
171
     1
301
MARGIN
  1
CELLMARGIN_BEGIN
 40
0.06
 40
0.06
 40
0.06
 40
0.06
 40
0.06
 40
0.06
309
CELLMARGIN_END
 94
        6
 95
        1
302
GRIDFORMAT
  1
GRIDFORMAT_BEGIN
 90
        0
 91
        1
 62
     0
 92
       -2
340
35A2
 93
        0
 40
0.045
309
GRIDFORMAT_END
 95
        2
302
GRIDFORMAT
  1
GRIDFORMAT_BEGIN
 90
        0
 91
        1
 62
     0
 92
       -2
340
35A2
 93
        0
 40
0.045
309
GRIDFORMAT_END
 95
        4
302
GRIDFORMAT
  1
GRIDFORMAT_BEGIN
 90
        0
 91
        1
 62
     0
 92
       -2
340
35A2
 93
        0
 40
0.045
309
GRIDFORMAT_END
 95
        8
302
GRIDFORMAT
  1
GRIDFORMAT_BEGIN
 90
        0
 91
        1
 62
     0
 92
       -2
340
35A2
 93
        0
 40
0.045
309
GRIDFORMAT_END
 95
       16
302
GRIDFORMAT
  1
GRIDFORMAT_BEGIN
 90
        0
 91
        1
 62
     0
 92
       -2
340
35A2
 93
        0
 40
0.045
309
GRIDFORMAT_END
 95
       32
302
GRIDFORMAT
  1
GRIDFORMAT_BEGIN
 90
        0
 91
        1
 62
     0
 92
       -2
340
35A2
 93
        0
 40
0.045
309
GRIDFORMAT_END
309
TABLEFORMAT_END
  1
CELLSTYLE_BEGIN
 90
        2
 91
        1
300
_HEADER
309
CELLSTYLE_END
300
CELLSTYLE
  1
TABLEFORMAT_BEGIN
 90
        5
170
     1
 91
        0
 92
        0
 62
   257
 93
        1
300
CONTENTFORMAT
  1
CONTENTFORMAT_BEGIN
 90
        0
 91
        0
 92
        4
 93
        0
300

 40
0.0
140
1.0
 94
        2
 62
     0
340
35A0
144
0.18
309
CONTENTFORMAT_END
171
     1
301
MARGIN
  1
CELLMARGIN_BEGIN
 40
0.06
 40
0.06
 40
0.06
 40
0.06
 40
0.06
 40
0.06
309
CELLMARGIN_END
 94
        6
 95
        1
302
GRIDFORMAT
  1
GRIDFORMAT_BEGIN
 90
        0
 91
        1
 62
     0
 92
       -2
340
35A2
 93
        0
 40
0.045
309
GRIDFORMAT_END
 95
        2
302
GRIDFORMAT
  1
GRIDFORMAT_BEGIN
 90
        0
 91
        1
 62
     0
 92
       -2
340
35A2
 93
        0
 40
0.045
309
GRIDFORMAT_END
 95
        4
302
GRIDFORMAT
  1
GRIDFORMAT_BEGIN
 90
        0
 91
        1
 62
     0
 92
       -2
340
35A2
 93
        0
 40
0.045
309
GRIDFORMAT_END
 95
        8
302
GRIDFORMAT
  1
GRIDFORMAT_BEGIN
 90
        0
 91
        1
 62
     0
 92
       -2
340
35A2
 93
        0
 40
0.045
309
GRIDFORMAT_END
 95
       16
302
GRIDFORMAT
  1
GRIDFORMAT_BEGIN
 90
        0
 91
        1
 62
     0
 92
       -2
340
35A2
 93
        0
 40
0.045
309
GRIDFORMAT_END
 95
       32
302
GRIDFORMAT
  1
GRIDFORMAT_BEGIN
 90
        0
 91
        1
 62
     0
 92
       -2
340
35A2
 93
        0
 40
0.045
309
GRIDFORMAT_END
309
TABLEFORMAT_END
  1
CELLSTYLE_BEGIN
 90
        3
 91
        2
300
_DATA
309
CELLSTYLE_END
  0
ENDSEC
  0
EOF
